<svg xmlns="http://www.w3.org/2000/svg" width="204" height="132" viewBox="0 0 204 132" fill="none"><g opacity="0.3"><circle cx="3" cy="3" r="3" fill="#7562E0"></circle><circle cx="21" cy="3" r="3" fill="#7562E0"></circle><circle cx="39" cy="3" r="3" fill="#7562E0"></circle><circle cx="57" cy="3" r="3" fill="#7562E0"></circle><circle cx="75" cy="3" r="3" fill="#7562E0"></circle><circle cx="93" cy="3" r="3" fill="#7562E0"></circle><circle cx="111" cy="3" r="3" fill="#7562E0"></circle><circle cx="129" cy="3" r="3" fill="#7562E0"></circle><circle cx="147" cy="3" r="3" fill="#7562E0"></circle><circle cx="165" cy="3" r="3" fill="#7562E0"></circle><circle cx="183" cy="3" r="3" fill="#7562E0"></circle><circle cx="201" cy="3" r="3" fill="#7562E0"></circle><circle cx="3" cy="21" r="3" fill="#7562E0"></circle><circle cx="21" cy="21" r="3" fill="#7562E0"></circle><circle cx="39" cy="21" r="3" fill="#7562E0"></circle><circle cx="57" cy="21" r="3" fill="#7562E0"></circle><circle cx="75" cy="21" r="3" fill="#7562E0"></circle><circle cx="93" cy="21" r="3" fill="#7562E0"></circle><circle cx="111" cy="21" r="3" fill="#7562E0"></circle><circle cx="129" cy="21" r="3" fill="#7562E0"></circle><circle cx="147" cy="21" r="3" fill="#7562E0"></circle><circle cx="165" cy="21" r="3" fill="#7562E0"></circle><circle cx="183" cy="21" r="3" fill="#7562E0"></circle><circle cx="201" cy="21" r="3" fill="#7562E0"></circle><circle cx="3" cy="39" r="3" fill="#7562E0"></circle><circle cx="21" cy="39" r="3" fill="#7562E0"></circle><circle cx="39" cy="39" r="3" fill="#7562E0"></circle><circle cx="57" cy="39" r="3" fill="#7562E0"></circle><circle cx="75" cy="39" r="3" fill="#7562E0"></circle><circle cx="93" cy="39" r="3" fill="#7562E0"></circle><circle cx="111" cy="39" r="3" fill="#7562E0"></circle><circle cx="129" cy="39" r="3" fill="#7562E0"></circle><circle cx="147" cy="39" r="3" fill="#7562E0"></circle><circle cx="165" cy="39" r="3" fill="#7562E0"></circle><circle cx="183" cy="39" r="3" fill="#7562E0"></circle><circle cx="201" cy="39" r="3" fill="#7562E0"></circle><circle cx="3" cy="57" r="3" fill="#7562E0"></circle><circle cx="21" cy="57" r="3" fill="#7562E0"></circle><circle cx="39" cy="57" r="3" fill="#7562E0"></circle><circle cx="57" cy="57" r="3" fill="#7562E0"></circle><circle cx="75" cy="57" r="3" fill="#7562E0"></circle><circle cx="93" cy="57" r="3" fill="#7562E0"></circle><circle cx="111" cy="57" r="3" fill="#7562E0"></circle><circle cx="129" cy="57" r="3" fill="#7562E0"></circle><circle cx="147" cy="57" r="3" fill="#7562E0"></circle><circle cx="165" cy="57" r="3" fill="#7562E0"></circle><circle cx="183" cy="57" r="3" fill="#7562E0"></circle><circle cx="201" cy="57" r="3" fill="#7562E0"></circle><circle cx="3" cy="75" r="3" fill="#7562E0"></circle><circle cx="21" cy="75" r="3" fill="#7562E0"></circle><circle cx="39" cy="75" r="3" fill="#7562E0"></circle><circle cx="57" cy="75" r="3" fill="#7562E0"></circle><circle cx="75" cy="75" r="3" fill="#7562E0"></circle><circle cx="93" cy="75" r="3" fill="#7562E0"></circle><circle cx="111" cy="75" r="3" fill="#7562E0"></circle><circle cx="129" cy="75" r="3" fill="#7562E0"></circle><circle cx="147" cy="75" r="3" fill="#7562E0"></circle><circle cx="165" cy="75" r="3" fill="#7562E0"></circle><circle cx="183" cy="75" r="3" fill="#7562E0"></circle><circle cx="201" cy="75" r="3" fill="#7562E0"></circle><circle cx="3" cy="93" r="3" fill="#7562E0"></circle><circle cx="21" cy="93" r="3" fill="#7562E0"></circle><circle cx="39" cy="93" r="3" fill="#7562E0"></circle><circle cx="57" cy="93" r="3" fill="#7562E0"></circle><circle cx="75" cy="93" r="3" fill="#7562E0"></circle><circle cx="93" cy="93" r="3" fill="#7562E0"></circle><circle cx="111" cy="93" r="3" fill="#7562E0"></circle><circle cx="129" cy="93" r="3" fill="#7562E0"></circle><circle cx="147" cy="93" r="3" fill="#7562E0"></circle><circle cx="165" cy="93" r="3" fill="#7562E0"></circle><circle cx="183" cy="93" r="3" fill="#7562E0"></circle><circle cx="201" cy="93" r="3" fill="#7562E0"></circle><circle cx="3" cy="111" r="3" fill="#7562E0"></circle><circle cx="21" cy="111" r="3" fill="#7562E0"></circle><circle cx="39" cy="111" r="3" fill="#7562E0"></circle><circle cx="57" cy="111" r="3" fill="#7562E0"></circle><circle cx="75" cy="111" r="3" fill="#7562E0"></circle><circle cx="93" cy="111" r="3" fill="#7562E0"></circle><circle cx="111" cy="111" r="3" fill="#7562E0"></circle><circle cx="129" cy="111" r="3" fill="#7562E0"></circle><circle cx="147" cy="111" r="3" fill="#7562E0"></circle><circle cx="165" cy="111" r="3" fill="#7562E0"></circle><circle cx="183" cy="111" r="3" fill="#7562E0"></circle><circle cx="201" cy="111" r="3" fill="#7562E0"></circle><circle cx="3" cy="129" r="3" fill="#7562E0"></circle><circle cx="21" cy="129" r="3" fill="#7562E0"></circle><circle cx="39" cy="129" r="3" fill="#7562E0"></circle><circle cx="57" cy="129" r="3" fill="#7562E0"></circle><circle cx="75" cy="129" r="3" fill="#7562E0"></circle><circle cx="93" cy="129" r="3" fill="#7562E0"></circle><circle cx="111" cy="129" r="3" fill="#7562E0"></circle><circle cx="129" cy="129" r="3" fill="#7562E0"></circle><circle cx="147" cy="129" r="3" fill="#7562E0"></circle><circle cx="165" cy="129" r="3" fill="#7562E0"></circle><circle cx="183" cy="129" r="3" fill="#7562E0"></circle><circle cx="201" cy="129" r="3" fill="#7562E0"></circle></g></svg>