<svg width="179" height="40" viewBox="0 0 179 40" fill="none" xmlns="http://www.w3.org/2000/svg">
<path d="M63.3111 32.2517C61.555 32.2517 59.9672 31.9517 58.5478 31.3517C57.1524 30.7517 56.0458 29.8877 55.2279 28.7597C54.4099 27.6317 53.9889 26.2997 53.9648 24.7637H59.3778C59.4499 25.7957 59.8108 26.6117 60.4603 27.2117C61.1339 27.8117 62.0481 28.1117 63.2029 28.1117C64.3817 28.1117 65.3079 27.8357 65.9815 27.2837C66.6551 26.7077 66.9919 25.9637 66.9919 25.0517C66.9919 24.3077 66.7634 23.6957 66.3063 23.2157C65.8492 22.7357 65.2718 22.3637 64.5742 22.0997C63.9005 21.8117 62.9623 21.4997 61.7594 21.1637C60.1235 20.6837 58.7884 20.2157 57.7539 19.7597C56.7435 19.2797 55.8654 18.5717 55.1196 17.6357C54.3979 16.6757 54.037 15.4037 54.037 13.8197C54.037 12.3317 54.4099 11.0357 55.1557 9.93172C55.9015 8.82772 56.948 7.98772 58.2952 7.41172C59.6424 6.81172 61.1821 6.51172 62.9142 6.51172C65.5124 6.51172 67.6174 7.14772 69.2293 8.41972C70.8652 9.66772 71.7673 11.4197 71.9357 13.6757H66.3785C66.3303 12.8117 65.9575 12.1037 65.2598 11.5517C64.5862 10.9757 63.684 10.6877 62.5533 10.6877C61.567 10.6877 60.7731 10.9397 60.1717 11.4437C59.5943 11.9477 59.3056 12.6797 59.3056 13.6397C59.3056 14.3117 59.5221 14.8757 59.9551 15.3317C60.4122 15.7637 60.9655 16.1237 61.6151 16.4117C62.2887 16.6757 63.2269 16.9877 64.4298 17.3477C66.0657 17.8277 67.4009 18.3077 68.4354 18.7877C69.4698 19.2677 70.36 19.9877 71.1057 20.9477C71.8515 21.9077 72.2244 23.1677 72.2244 24.7277C72.2244 26.0717 71.8756 27.3197 71.1779 28.4717C70.4802 29.6237 69.4578 30.5477 68.1106 31.2437C66.7634 31.9157 65.1636 32.2517 63.3111 32.2517Z" fill="white"/>
<path d="M74.9444 21.9557C74.9444 19.9397 75.3413 18.1517 76.1352 16.5917C76.9532 15.0317 78.0478 13.8317 79.4191 12.9917C80.8144 12.1517 82.3661 11.7317 84.0742 11.7317C85.5657 11.7317 86.8648 12.0317 87.9715 12.6317C89.1022 13.2317 90.0043 13.9877 90.6779 14.8997V12.0557H95.7661V31.9997H90.6779V29.0837C90.0284 30.0197 89.1262 30.7997 87.9715 31.4237C86.8408 32.0237 85.5297 32.3237 84.0381 32.3237C82.3541 32.3237 80.8144 31.8917 79.4191 31.0277C78.0478 30.1637 76.9532 28.9517 76.1352 27.3917C75.3413 25.8077 74.9444 23.9957 74.9444 21.9557ZM90.6779 22.0277C90.6779 20.8037 90.4374 19.7597 89.9562 18.8957C89.4751 18.0077 88.8255 17.3357 88.0076 16.8797C87.1896 16.3997 86.3115 16.1597 85.3733 16.1597C84.435 16.1597 83.569 16.3877 82.7751 16.8437C81.9812 17.2997 81.3316 17.9717 80.8264 18.8597C80.3453 19.7237 80.1047 20.7557 80.1047 21.9557C80.1047 23.1557 80.3453 24.2117 80.8264 25.1237C81.3316 26.0117 81.9812 26.6957 82.7751 27.1757C83.593 27.6557 84.4591 27.8957 85.3733 27.8957C86.3115 27.8957 87.1896 27.6677 88.0076 27.2117C88.8255 26.7317 89.4751 26.0597 89.9562 25.1957C90.4374 24.3077 90.6779 23.2517 90.6779 22.0277Z" fill="white"/>
<path d="M99.0403 21.9557C99.0403 19.9397 99.4373 18.1517 100.231 16.5917C101.049 15.0317 102.144 13.8317 103.515 12.9917C104.91 12.1517 106.462 11.7317 108.17 11.7317C109.662 11.7317 110.961 12.0317 112.067 12.6317C113.198 13.2317 114.1 13.9877 114.774 14.8997V12.0557H119.862V31.9997H114.774V29.0837C114.124 30.0197 113.222 30.7997 112.067 31.4237C110.937 32.0237 109.626 32.3237 108.134 32.3237C106.45 32.3237 104.91 31.8917 103.515 31.0277C102.144 30.1637 101.049 28.9517 100.231 27.3917C99.4373 25.8077 99.0403 23.9957 99.0403 21.9557ZM114.774 22.0277C114.774 20.8037 114.533 19.7597 114.052 18.8957C113.571 18.0077 112.921 17.3357 112.103 16.8797C111.286 16.3997 110.407 16.1597 109.469 16.1597C108.531 16.1597 107.665 16.3877 106.871 16.8437C106.077 17.2997 105.428 17.9717 104.922 18.8597C104.441 19.7237 104.201 20.7557 104.201 21.9557C104.201 23.1557 104.441 24.2117 104.922 25.1237C105.428 26.0117 106.077 26.6957 106.871 27.1757C107.689 27.6557 108.555 27.8957 109.469 27.8957C110.407 27.8957 111.286 27.6677 112.103 27.2117C112.921 26.7317 113.571 26.0597 114.052 25.1957C114.533 24.3077 114.774 23.2517 114.774 22.0277Z" fill="white"/>
<path d="M133.132 32.2517C131.376 32.2517 129.788 31.9517 128.369 31.3517C126.973 30.7517 125.867 29.8877 125.049 28.7597C124.231 27.6317 123.81 26.2997 123.786 24.7637H129.199C129.271 25.7957 129.632 26.6117 130.281 27.2117C130.955 27.8117 131.869 28.1117 133.024 28.1117C134.203 28.1117 135.129 27.8357 135.802 27.2837C136.476 26.7077 136.813 25.9637 136.813 25.0517C136.813 24.3077 136.584 23.6957 136.127 23.2157C135.67 22.7357 135.093 22.3637 134.395 22.0997C133.722 21.8117 132.783 21.4997 131.58 21.1637C129.945 20.6837 128.609 20.2157 127.575 19.7597C126.564 19.2797 125.686 18.5717 124.941 17.6357C124.219 16.6757 123.858 15.4037 123.858 13.8197C123.858 12.3317 124.231 11.0357 124.977 9.93172C125.722 8.82772 126.769 7.98772 128.116 7.41172C129.463 6.81172 131.003 6.51172 132.735 6.51172C135.333 6.51172 137.438 7.14772 139.05 8.41972C140.686 9.66772 141.588 11.4197 141.757 13.6757H136.199C136.151 12.8117 135.778 12.1037 135.081 11.5517C134.407 10.9757 133.505 10.6877 132.374 10.6877C131.388 10.6877 130.594 10.9397 129.993 11.4437C129.415 11.9477 129.127 12.6797 129.127 13.6397C129.127 14.3117 129.343 14.8757 129.776 15.3317C130.233 15.7637 130.787 16.1237 131.436 16.4117C132.11 16.6757 133.048 16.9877 134.251 17.3477C135.887 17.8277 137.222 18.3077 138.256 18.7877C139.291 19.2677 140.181 19.9877 140.927 20.9477C141.672 21.9077 142.045 23.1677 142.045 24.7277C142.045 26.0717 141.697 27.3197 140.999 28.4717C140.301 29.6237 139.279 30.5477 137.932 31.2437C136.584 31.9157 134.985 32.2517 133.132 32.2517Z" fill="white"/>
<path d="M151.946 16.1957V25.8437C151.946 26.5157 152.103 27.0077 152.416 27.3197C152.752 27.6077 153.306 27.7517 154.076 27.7517H156.421V31.9997H153.246C148.987 31.9997 146.858 29.9357 146.858 25.8077V16.1957H144.477V12.0557H146.858V7.12372H151.946V12.0557H156.421V16.1957H151.946Z" fill="white"/>
<path d="M168.571 32.3237C166.647 32.3237 164.914 31.9037 163.375 31.0637C161.835 30.1997 160.62 28.9877 159.73 27.4277C158.864 25.8677 158.431 24.0677 158.431 22.0277C158.431 19.9877 158.876 18.1877 159.766 16.6277C160.68 15.0677 161.919 13.8677 163.483 13.0277C165.047 12.1637 166.791 11.7317 168.716 11.7317C170.64 11.7317 172.384 12.1637 173.948 13.0277C175.512 13.8677 176.739 15.0677 177.629 16.6277C178.543 18.1877 179 19.9877 179 22.0277C179 24.0677 178.531 25.8677 177.593 27.4277C176.679 28.9877 175.428 30.1997 173.84 31.0637C172.276 31.9037 170.52 32.3237 168.571 32.3237ZM168.571 27.9317C169.485 27.9317 170.339 27.7157 171.133 27.2837C171.951 26.8277 172.601 26.1557 173.082 25.2677C173.563 24.3797 173.804 23.2997 173.804 22.0277C173.804 20.1317 173.298 18.6797 172.288 17.6717C171.302 16.6397 170.087 16.1237 168.643 16.1237C167.2 16.1237 165.985 16.6397 164.999 17.6717C164.036 18.6797 163.555 20.1317 163.555 22.0277C163.555 23.9237 164.024 25.3877 164.963 26.4197C165.925 27.4277 167.128 27.9317 168.571 27.9317Z" fill="white"/>
<path d="M22.447 37.007H11.3327C6.68448 37.007 2.91406 33.249 2.91406 28.6085V11.3907C2.91406 6.75361 6.68102 2.99219 11.3327 2.99219H24.8765C23.3662 3.14044 21.9044 3.46107 20.5013 3.96443C18.5072 4.68155 16.8864 5.76068 15.6388 7.19836C14.3912 8.63604 13.7657 10.3599 13.7657 12.3733C13.7657 14.5281 14.2944 16.2796 15.3519 17.6173C16.406 18.9584 17.6812 19.9651 19.1707 20.634C20.6568 21.3063 22.5783 21.9751 24.9318 22.6474C26.8533 23.2232 28.3531 23.7265 29.4348 24.1575C30.5131 24.5885 31.4151 25.1884 32.1374 25.9537C32.8562 26.7191 33.2156 27.7017 33.2156 28.8981C33.2156 30.6702 32.5797 32.0493 31.308 33.0284C30.0362 34.011 28.2702 34.5006 26.0135 34.5006C23.5148 34.5006 21.6072 34.0799 20.287 33.2421C18.9668 32.4044 18.3068 31.2666 18.3068 29.8289C18.3068 28.7774 18.5832 27.9603 19.1362 27.3845C19.6891 26.8088 19.9656 26.4985 19.9656 26.4502C19.9656 26.2123 19.6649 25.8745 19.0636 25.4435C18.4623 25.0125 17.778 24.7953 17.0108 24.7953C15.6664 24.7953 14.5744 25.2263 13.7346 26.0882C12.8948 26.9501 12.4732 28.0775 12.4732 29.4669C12.4732 31.9113 13.6724 33.8041 16.0742 35.1418C17.816 36.1244 19.9449 36.7381 22.447 37.007Z" fill="#325FFD"/>
<path d="M28.9088 0H11.1834C5.01801 0 0 5.00603 0 11.1567V28.8399C0 34.994 5.01801 39.9966 11.1834 39.9966H28.9088C35.0777 39.9966 40.0957 34.9905 40.0957 28.8399V11.1567C40.0957 5.00603 35.0777 0 28.9088 0ZM39.1384 28.8399C39.1384 34.4734 34.5593 39.0415 28.9123 39.0415H11.1834C5.5364 39.0415 0.957292 34.4734 0.957292 28.8399V11.1567C0.957292 5.52319 5.5364 0.955008 11.1834 0.955008H28.9088C31.3176 0.955008 33.5294 1.79279 35.2781 3.18911C37.2687 5.10602 38.582 8.31926 37.0959 11.5359C36.8989 12.0772 36.6052 12.5737 36.2147 13.0219C35.4233 13.9321 34.3761 14.3872 33.0801 14.3872C32.3095 14.3872 31.6286 14.17 31.0273 13.739C30.426 13.3081 30.1253 12.9736 30.1253 12.7323C30.1253 12.684 30.3188 12.4944 30.7025 12.1565C31.0861 11.8221 31.4351 11.4256 31.7496 10.9705C32.0606 10.5154 32.2196 9.97759 32.2196 9.35356C32.1228 8.06068 31.4731 7.05396 30.2739 6.33684C29.0713 5.61972 27.6543 5.25771 26.0231 5.25771C24.1984 5.25771 22.6018 5.67833 21.2332 6.51612C19.8647 7.3539 19.1804 8.51577 19.1804 10.0017C19.1804 11.3429 19.4672 12.4082 20.0444 13.1977C20.6215 13.9872 21.4855 14.6251 22.6363 15.1008C23.7871 15.5801 25.6119 16.2282 28.1105 17.0419C30.6541 17.8555 32.6481 18.6106 34.0893 19.307C35.3127 19.8966 36.3045 20.6689 37.0959 21.6032C37.1063 21.617 37.1167 21.6273 37.127 21.6411C38.4679 23.2512 39.1384 25.3094 39.1384 27.4022V28.8399Z" fill="#325FFD"/>
</svg>
