<svg xmlns="http://www.w3.org/2000/svg" width="97" height="107" viewBox="0 0 97 107" fill="none"><path fill-rule="evenodd" clip-rule="evenodd" d="M95.2825 102.244C93.3729 102.777 91.4587 103.292 89.5433 103.803C86.2043 104.695 82.8306 105.641 79.3848 106.013C76.1033 106.368 72.7801 105.905 69.575 105.218C66.6202 104.583 63.6537 103.809 60.8753 102.61C58.3587 101.524 56.0541 99.9969 54.102 98.074C51.7853 95.7858 50.225 92.8623 48.7789 89.9806C48.2152 88.8549 47.8228 87.5477 46.5895 87.0059C46.0322 86.76 45.3547 86.7732 44.7617 86.717C43.8874 86.6332 43.0173 86.5039 42.1497 86.3575C39.053 85.831 36.0615 84.8063 33.2986 83.3158C28.1888 80.56 23.623 76.7511 20.9383 71.5263C20.341 70.3628 20.0141 69.038 19.2767 67.9541C18.5872 66.9439 17.399 66.5444 16.2513 66.3398C13.6393 65.8752 11.133 65.1764 8.84291 63.8001C3.44378 60.5583 1.0041 53.4882 0.658355 47.508C0.291868 41.1709 2.40016 34.7249 5.23992 29.1398C6.69881 26.2702 8.40304 23.5827 10.4946 21.1352C12.6275 18.6415 14.6538 16.0291 16.9565 13.6887C21.4407 9.13153 26.9204 5.68729 32.6413 2.89865C33.5147 2.47286 34.3606 2.1363 35.2374 1.84525C35.0959 1.87615 34.9534 1.91198 34.8217 1.93559C35.0946 1.86246 35.3697 1.78875 35.6426 1.71562C36.0572 1.58584 36.4806 1.46304 36.9194 1.34545C37.6115 1.15999 38.3035 0.965221 39.0038 0.810311C39.0388 0.80095 39.0737 0.791591 39.1086 0.78223C39.0955 0.78574 39.083 0.791429 39.0727 0.796536C39.1809 0.772233 39.289 0.747931 39.3977 0.72581C39.6666 0.672475 39.9444 0.661173 40.2165 0.637371C40.7448 0.591681 40.7543 0.932884 40.8001 1.40935C40.8844 2.25665 39.0523 2.89489 38.5347 3.19025C36.9129 4.11586 35.3097 5.06692 33.729 6.05868C23.5158 12.483 15.2873 21.6422 10.4578 32.7272C7.87119 38.663 5.95951 44.9955 8.1495 51.3608C9.18308 54.3623 11.0844 57.3184 13.404 59.4866C14.4934 60.5042 15.7763 61.2571 17.1391 61.8367C17.312 55.9841 17.3377 50.054 19.2124 44.4656C21.1179 38.7825 24.1232 33.1601 28.134 28.6877C30.0659 26.5355 32.3109 24.6783 34.7507 23.1289C37.4368 21.4247 40.2301 20.3909 43.2903 19.585C46.2349 18.81 48.8487 18.4955 51.8142 19.4407C54.6082 20.3312 56.8982 22.0303 58.1175 24.7295C60.1914 29.3253 59.5465 34.6824 58.1316 39.3408C57.3489 41.9217 56.5096 44.5271 55.3118 46.9479C54.0007 49.6002 51.9948 51.8611 50.0261 54.0419C46.4622 57.99 42.1202 61.1387 37.1583 63.0832C33.3654 64.5696 29.3826 65.417 25.3769 66.1091C28.2267 74.9634 36.8174 82.422 46.1944 83.4007C46.2359 82.4636 46.2196 81.5209 46.3225 80.586C46.4826 79.1401 46.8275 77.7194 47.2793 76.3403C48.1527 73.6697 49.5894 71.2152 51.2516 68.9646C54.6554 64.3579 59.8753 62.0051 65.2296 60.4161C65.2253 60.4173 65.2181 60.4168 65.2137 60.418C65.2399 60.411 65.2662 60.404 65.2902 60.3975C65.7954 60.2481 66.3046 60.1047 66.8105 59.9668C67.9862 59.6471 69.2641 59.1152 70.5054 59.2152C71.5744 59.3006 72.6234 59.7748 73.5694 60.2486C75.51 61.2205 77.0702 62.4581 77.6152 64.5967C78.3103 67.3217 78.3044 70.1294 76.6327 72.5018C74.6659 75.2924 72.0713 77.5918 69.3809 79.6643C66.5584 81.8377 63.4659 83.6063 60.0298 84.5902C58.1717 85.1231 56.2886 85.6931 54.387 86.046C54.0908 86.102 53.7971 86.1503 53.5008 86.197C53.786 87.2617 54.0816 88.2862 54.6157 89.2749C55.3614 90.6605 56.4937 91.821 57.5858 92.9361C59.8625 95.2584 62.1617 97.3151 65.1468 98.6829C70.5325 101.15 76.3568 102.694 82.3047 102.674C83.7077 102.67 85.1082 102.552 86.5 102.366C87.0963 102.286 87.6911 102.183 88.2824 102.067C88.5866 101.962 88.888 101.855 89.1905 101.744C89.9725 101.457 90.7355 101.187 91.5082 100.936C90.702 100.817 91.5469 100.556 94.0486 100.154C95.0223 99.8234 96.2995 99.446 96.7869 100.33C97.32 101.298 96.0034 102.044 95.2825 102.244ZM72.2547 67.892C72.0571 65.5388 69.3804 63.5668 67.3103 62.8541C66.8978 62.712 66.4648 62.6504 66.0312 62.6216C65.1973 62.9853 64.3771 63.3828 63.5778 63.8144C61.3412 65.0217 59.3073 66.5839 57.5805 68.445C53.9713 72.3374 51.1979 78.3186 52.9447 83.589C52.9441 83.5868 52.9283 83.5887 52.9015 83.5935C52.9152 83.5922 52.931 83.5903 52.9447 83.589C54.5728 83.4731 56.1961 83.3304 57.8087 83.0784C58.4814 82.8116 59.1279 82.4817 59.7552 82.1242C61.2249 81.2861 62.5056 80.1011 63.8237 79.0464C65.31 77.8601 66.7909 76.6706 68.2599 75.4632C70.5349 73.5956 72.5148 71.0026 72.2547 67.892ZM43.3465 24.1789C45.1685 23.817 44.6776 23.6095 43.599 24.0645C43.5152 24.101 43.4326 24.1419 43.3465 24.1789ZM51.3868 30.8146C50.8858 29.4429 50.4812 28.029 49.7598 26.7515C48.9548 25.328 47.4938 25.0109 46.0186 24.6579C45.0239 24.4217 44.0132 24.309 42.9983 24.3377C42.8362 24.4139 42.6768 24.4917 42.5181 24.5716C41.6947 24.9746 40.9098 25.4515 40.1395 25.9479C35.0626 29.2187 30.7113 33.9133 27.851 39.2209C24.9445 44.6181 23.4762 50.6143 23.5742 56.7264C23.5994 58.2092 23.564 59.7363 23.7322 61.2112C23.8425 62.1731 24.3263 62.7824 25.289 62.9431C26.5828 63.16 28.0844 62.7903 29.359 62.5868C29.7429 62.526 30.4102 62.3612 30.9185 62.2321C31.3774 62.067 31.8333 61.891 32.2876 61.7085C38.5061 59.2051 43.6217 54.6027 47.5319 49.2313C51.3522 43.9868 52.6308 37.1341 51.3868 30.8146Z" fill="black" fill-opacity="0.08"></path></svg>