<svg xmlns="http://www.w3.org/2000/svg" width="211" height="139" viewBox="0 0 211 139" fill="none"><path d="M200.581 12.8136C199.526 14.1161 198.47 15.4208 197.415 16.7232C196.023 18.4424 194.627 20.1629 193.235 21.882C192.539 22.7427 191.843 23.6011 191.145 24.461C190.376 25.4097 189.431 26.2615 189.481 27.5684C189.527 28.7413 190.406 29.5939 191.618 29.403C192.936 29.1946 193.571 28.1615 194.368 27.1976C195.125 26.2826 195.881 25.3698 196.638 24.4548C198.05 22.7484 199.463 21.0419 200.874 19.3346C203.8 15.8004 206.725 12.2662 209.65 8.72885C210.546 7.64594 209.823 5.68846 208.498 5.34789C204.395 4.29481 200.258 3.36183 196.137 2.37858C194.146 1.90316 192.152 1.47754 190.146 1.06827C189.065 0.849072 187.985 0.627641 186.906 0.409261C185.855 0.196175 184.826 -0.144158 183.756 0.0549813C182.402 0.306311 182.272 1.99242 183.227 2.75557C184.054 3.4163 185.228 3.60543 186.229 3.9049C187.129 4.17522 188.026 4.44475 188.926 4.71507C190.953 5.32298 192.978 5.90434 195.025 6.44323C196.953 6.95176 198.882 7.47316 200.812 7.98475C186.567 10.8361 172.545 15.4456 158.987 20.6018C145.425 25.7595 132.221 31.8497 119.497 38.8129C106.662 45.8351 94.3062 53.7477 82.5581 62.4626C77.8849 65.9301 73.2352 69.5153 68.7635 73.3048C65.2508 67.0628 60.282 61.6779 54.0348 57.7686C43.3895 51.1059 29.4555 49.1471 18.1395 55.3222C8.21287 60.7404 1.15051 71.6192 0.927032 83.0129C0.871398 85.7782 1.2526 88.5392 2.07127 91.1818C2.53751 92.6901 4.96018 92.2215 4.50472 90.6763C1.4365 80.2596 6.10466 69.3286 14.1613 62.5107C18.2229 59.0731 23.0117 56.6768 28.2912 55.841C34.1292 54.918 40.077 55.8825 45.5432 58.0422C54.1954 61.4611 61.2436 67.9913 65.5727 76.0746C59.5762 81.4157 53.9844 87.1856 49.1988 93.6239C44.8452 99.4819 40.923 106.137 38.8041 113.161C37.1533 118.634 36.6935 124.887 38.921 130.271C41.1576 135.68 46.7089 138.953 52.5274 138.14C58.2517 137.341 63.0074 132.866 66.215 128.344C69.9024 123.144 72.08 116.752 73.4205 110.569C74.8826 103.833 75.2775 96.9233 74.3507 90.0786C73.7553 85.6897 72.5638 81.4354 70.8215 77.4439C74.4141 74.3801 78.1265 71.4564 81.8603 68.6141C92.7196 60.3496 104.125 52.8192 115.982 46.0575C127.948 39.2337 140.359 33.1913 153.11 27.9788C165.799 22.7919 178.825 18.4493 192.092 14.9816C194.918 14.25 197.75 13.5383 200.581 12.8136ZM203.843 8.78639C203.729 8.92548 203.616 9.06761 203.502 9.2067C203.407 8.9842 203.279 8.77746 203.12 8.59561C203.362 8.66023 203.601 8.72403 203.843 8.78639ZM68.7278 83.8085C72.2493 95.9449 70.7044 109.137 65.6734 120.612C63.6566 125.213 60.3511 129.837 55.91 132.37C51.8729 134.672 46.9229 134.494 44.0228 130.523C41.2557 126.731 41.4377 121.041 42.4292 116.663C43.8952 110.19 47.3253 104.071 51.0533 98.6473C55.7293 91.8439 61.4029 85.8419 67.537 80.3245C67.9839 81.465 68.3849 82.627 68.7278 83.8085Z" fill="black" fill-opacity="0.1"></path></svg>