<svg xmlns="http://www.w3.org/2000/svg" width="179" height="40" viewBox="0 0 179 40" fill="none"><path d="M63.1599 32.2556C61.4079 32.2556 59.8239 31.9556 58.4079 31.3556C57.0159 30.7556 55.9119 29.8916 55.0959 28.7636C54.2799 27.6356 53.8599 26.3036 53.8359 24.7676H59.2359C59.3079 25.7996 59.6679 26.6156 60.3159 27.2156C60.9879 27.8156 61.8999 28.1156 63.0519 28.1156C64.2279 28.1156 65.1519 27.8396 65.8239 27.2876C66.4959 26.7116 66.8319 25.9676 66.8319 25.0556C66.8319 24.3116 66.6039 23.6996 66.1479 23.2196C65.6919 22.7396 65.1159 22.3676 64.4199 22.1036C63.7479 21.8156 62.8119 21.5036 61.6119 21.1676C59.9799 20.6876 58.6479 20.2196 57.6159 19.7636C56.6079 19.2836 55.7319 18.5756 54.9879 17.6396C54.2679 16.6796 53.9079 15.4076 53.9079 13.8236C53.9079 12.3356 54.2799 11.0396 55.0239 9.93562C55.7679 8.83162 56.8119 7.99162 58.1559 7.41562C59.4999 6.81562 61.0359 6.51562 62.7639 6.51562C65.3559 6.51562 67.4559 7.15162 69.0639 8.42362C70.6959 9.67162 71.5959 11.4236 71.7639 13.6796H66.2199C66.1719 12.8156 65.7999 12.1076 65.1039 11.5556C64.4319 10.9796 63.5319 10.6916 62.4039 10.6916C61.4199 10.6916 60.6279 10.9436 60.0279 11.4476C59.4519 11.9516 59.1639 12.6836 59.1639 13.6436C59.1639 14.3156 59.3799 14.8796 59.8119 15.3356C60.2679 15.7676 60.8199 16.1276 61.4679 16.4156C62.1399 16.6796 63.0759 16.9916 64.2759 17.3516C65.9079 17.8316 67.2399 18.3116 68.2719 18.7916C69.3039 19.2716 70.1919 19.9916 70.9359 20.9516C71.6799 21.9116 72.0519 23.1716 72.0519 24.7316C72.0519 26.0756 71.7039 27.3236 71.0079 28.4756C70.3119 29.6276 69.2919 30.5516 67.9479 31.2476C66.6039 31.9196 65.0079 32.2556 63.1599 32.2556Z" fill="white"></path><path d="M74.7654 21.9596C74.7654 19.9436 75.1614 18.1556 75.9534 16.5956C76.7694 15.0356 77.8614 13.8356 79.2294 12.9956C80.6214 12.1556 82.1694 11.7356 83.8734 11.7356C85.3614 11.7356 86.6574 12.0356 87.7614 12.6356C88.8894 13.2356 89.7894 13.9916 90.4614 14.9036V12.0596H95.5374V32.0036H90.4614V29.0876C89.8134 30.0236 88.9134 30.8036 87.7614 31.4276C86.6334 32.0276 85.3254 32.3276 83.8374 32.3276C82.1574 32.3276 80.6214 31.8956 79.2294 31.0316C77.8614 30.1676 76.7694 28.9556 75.9534 27.3956C75.1614 25.8116 74.7654 23.9996 74.7654 21.9596ZM90.4614 22.0316C90.4614 20.8076 90.2214 19.7636 89.7414 18.8996C89.2614 18.0116 88.6134 17.3396 87.7974 16.8836C86.9814 16.4036 86.1054 16.1636 85.1694 16.1636C84.2334 16.1636 83.3694 16.3916 82.5774 16.8476C81.7854 17.3036 81.1374 17.9756 80.6334 18.8636C80.1534 19.7276 79.9134 20.7596 79.9134 21.9596C79.9134 23.1596 80.1534 24.2156 80.6334 25.1276C81.1374 26.0156 81.7854 26.6996 82.5774 27.1796C83.3934 27.6596 84.2574 27.8996 85.1694 27.8996C86.1054 27.8996 86.9814 27.6716 87.7974 27.2156C88.6134 26.7356 89.2614 26.0636 89.7414 25.1996C90.2214 24.3116 90.4614 23.2556 90.4614 22.0316Z" fill="white"></path><path d="M98.8039 21.9596C98.8039 19.9436 99.1999 18.1556 99.9919 16.5956C100.808 15.0356 101.9 13.8356 103.268 12.9956C104.66 12.1556 106.208 11.7356 107.912 11.7356C109.4 11.7356 110.696 12.0356 111.8 12.6356C112.928 13.2356 113.828 13.9916 114.5 14.9036V12.0596H119.576V32.0036H114.5V29.0876C113.852 30.0236 112.952 30.8036 111.8 31.4276C110.672 32.0276 109.364 32.3276 107.876 32.3276C106.196 32.3276 104.66 31.8956 103.268 31.0316C101.9 30.1676 100.808 28.9556 99.9919 27.3956C99.1999 25.8116 98.8039 23.9996 98.8039 21.9596ZM114.5 22.0316C114.5 20.8076 114.26 19.7636 113.78 18.8996C113.3 18.0116 112.652 17.3396 111.836 16.8836C111.02 16.4036 110.144 16.1636 109.208 16.1636C108.272 16.1636 107.408 16.3916 106.616 16.8476C105.824 17.3036 105.176 17.9756 104.672 18.8636C104.192 19.7276 103.952 20.7596 103.952 21.9596C103.952 23.1596 104.192 24.2156 104.672 25.1276C105.176 26.0156 105.824 26.6996 106.616 27.1796C107.432 27.6596 108.296 27.8996 109.208 27.8996C110.144 27.8996 111.02 27.6716 111.836 27.2156C112.652 26.7356 113.3 26.0636 113.78 25.1996C114.26 24.3116 114.5 23.2556 114.5 22.0316Z" fill="white"></path><path d="M132.814 32.2556C131.062 32.2556 129.478 31.9556 128.062 31.3556C126.67 30.7556 125.566 29.8916 124.75 28.7636C123.934 27.6356 123.514 26.3036 123.49 24.7676H128.89C128.962 25.7996 129.322 26.6156 129.97 27.2156C130.642 27.8156 131.554 28.1156 132.706 28.1156C133.882 28.1156 134.806 27.8396 135.478 27.2876C136.15 26.7116 136.486 25.9676 136.486 25.0556C136.486 24.3116 136.258 23.6996 135.802 23.2196C135.346 22.7396 134.77 22.3676 134.074 22.1036C133.402 21.8156 132.466 21.5036 131.266 21.1676C129.634 20.6876 128.302 20.2196 127.27 19.7636C126.262 19.2836 125.386 18.5756 124.642 17.6396C123.922 16.6796 123.562 15.4076 123.562 13.8236C123.562 12.3356 123.934 11.0396 124.678 9.93562C125.422 8.83162 126.466 7.99162 127.81 7.41562C129.154 6.81562 130.69 6.51562 132.418 6.51562C135.01 6.51562 137.11 7.15162 138.718 8.42362C140.35 9.67162 141.25 11.4236 141.418 13.6796H135.874C135.826 12.8156 135.454 12.1076 134.758 11.5556C134.086 10.9796 133.186 10.6916 132.058 10.6916C131.074 10.6916 130.282 10.9436 129.682 11.4476C129.106 11.9516 128.818 12.6836 128.818 13.6436C128.818 14.3156 129.034 14.8796 129.466 15.3356C129.922 15.7676 130.474 16.1276 131.122 16.4156C131.794 16.6796 132.73 16.9916 133.93 17.3516C135.562 17.8316 136.894 18.3116 137.926 18.7916C138.958 19.2716 139.846 19.9916 140.59 20.9516C141.334 21.9116 141.706 23.1716 141.706 24.7316C141.706 26.0756 141.358 27.3236 140.662 28.4756C139.966 29.6276 138.946 30.5516 137.602 31.2476C136.258 31.9196 134.662 32.2556 132.814 32.2556Z" fill="white"></path><path d="M151.584 16.1996V25.8476C151.584 26.5196 151.74 27.0116 152.052 27.3236C152.388 27.6116 152.94 27.7556 153.708 27.7556H156.048V32.0036H152.88C148.632 32.0036 146.508 29.9396 146.508 25.8116V16.1996H144.132V12.0596H146.508V7.12762H151.584V12.0596H156.048V16.1996H151.584Z" fill="white"></path><path d="M168.169 32.3276C166.249 32.3276 164.521 31.9076 162.985 31.0676C161.449 30.2036 160.237 28.9916 159.349 27.4316C158.485 25.8716 158.053 24.0716 158.053 22.0316C158.053 19.9916 158.497 18.1916 159.385 16.6316C160.297 15.0716 161.533 13.8716 163.093 13.0316C164.653 12.1676 166.393 11.7356 168.313 11.7356C170.233 11.7356 171.973 12.1676 173.533 13.0316C175.093 13.8716 176.317 15.0716 177.205 16.6316C178.117 18.1916 178.573 19.9916 178.573 22.0316C178.573 24.0716 178.105 25.8716 177.169 27.4316C176.257 28.9916 175.009 30.2036 173.425 31.0676C171.865 31.9076 170.113 32.3276 168.169 32.3276ZM168.169 27.9356C169.081 27.9356 169.933 27.7196 170.725 27.2876C171.541 26.8316 172.189 26.1596 172.669 25.2716C173.149 24.3836 173.389 23.3036 173.389 22.0316C173.389 20.1356 172.885 18.6836 171.877 17.6756C170.893 16.6436 169.681 16.1276 168.241 16.1276C166.801 16.1276 165.589 16.6436 164.605 17.6756C163.645 18.6836 163.165 20.1356 163.165 22.0316C163.165 23.9276 163.633 25.3916 164.569 26.4236C165.529 27.4316 166.729 27.9356 168.169 27.9356Z" fill="white"></path><path d="M22.3925 37.007H11.3048C6.66767 37.007 2.90625 33.249 2.90625 28.6085V11.3907C2.90625 6.75361 6.66422 2.99219 11.3048 2.99219H24.8163C23.3096 3.14044 21.8513 3.46107 20.4515 3.96443C18.4622 4.68155 16.8452 5.76068 15.6006 7.19836C14.356 8.63604 13.732 10.3599 13.732 12.3733C13.732 14.5281 14.2595 16.2796 15.3145 17.6173C16.366 18.9584 17.6382 19.9651 19.1241 20.634C20.6066 21.3063 22.5236 21.9751 24.8714 22.6474C26.7883 23.2232 28.2846 23.7265 29.3638 24.1575C30.4394 24.5885 31.3393 25.1884 32.0598 25.9537C32.777 26.7191 33.1355 27.7017 33.1355 28.8981C33.1355 30.6702 32.5011 32.0493 31.2324 33.0284C29.9637 34.011 28.2019 34.5006 25.9506 34.5006C23.4579 34.5006 21.5548 34.0799 20.2377 33.2421C18.9207 32.4044 18.2622 31.2666 18.2622 29.8289C18.2622 28.7774 18.538 27.9603 19.0897 27.3845C19.6413 26.8088 19.9171 26.4985 19.9171 26.4502C19.9171 26.2123 19.6172 25.8745 19.0173 25.4435C18.4174 25.0125 17.7347 24.7953 16.9693 24.7953C15.6282 24.7953 14.5387 25.2263 13.7009 26.0882C12.8632 26.9501 12.4425 28.0775 12.4425 29.4669C12.4425 31.9113 13.6389 33.8041 16.035 35.1418C17.7727 36.1244 19.8964 36.7381 22.3925 37.007Z" fill="#8A2FFF"></path><path d="M28.8399 0H11.1567C5.00603 0 0 5.00603 0 11.1567V28.8399C0 34.994 5.00603 39.9966 11.1567 39.9966H28.8399C34.994 39.9966 40 34.9905 40 28.8399V11.1567C40 5.00603 34.994 0 28.8399 0ZM39.045 28.8399C39.045 34.4734 34.4768 39.0415 28.8433 39.0415H11.1567C5.52319 39.0415 0.955008 34.4734 0.955008 28.8399V11.1567C0.955008 5.52319 5.52319 0.955008 11.1567 0.955008H28.8399C31.2429 0.955008 33.4494 1.79279 35.1939 3.18911C37.1798 5.10602 38.4899 8.31926 37.0074 11.5359C36.8109 12.0772 36.5178 12.5737 36.1283 13.0219C35.3387 13.9321 34.2941 14.3872 33.0012 14.3872C32.2324 14.3872 31.5532 14.17 30.9533 13.739C30.3534 13.3081 30.0534 12.9736 30.0534 12.7323C30.0534 12.684 30.2465 12.4944 30.6292 12.1565C31.0119 11.8221 31.3601 11.4256 31.6739 10.9705C31.9841 10.5154 32.1427 9.97759 32.1427 9.35356C32.0462 8.06068 31.398 7.05396 30.2017 6.33684C29.0019 5.61972 27.5884 5.25771 25.961 5.25771C24.1407 5.25771 22.5478 5.67833 21.1826 6.51612C19.8173 7.3539 19.1346 8.51577 19.1346 10.0017C19.1346 11.3429 19.4208 12.4082 19.9966 13.1977C20.5723 13.9872 21.4342 14.6251 22.5823 15.1008C23.7304 15.5801 25.5508 16.2282 28.0434 17.0419C30.5809 17.8555 32.5702 18.6106 34.0079 19.307C35.2284 19.8966 36.2179 20.6689 37.0074 21.6032C37.0178 21.617 37.0281 21.6273 37.0384 21.6411C38.3761 23.2512 39.045 25.3094 39.045 27.4022V28.8399Z" fill="#8A2FFF"></path></svg>