<svg xmlns="http://www.w3.org/2000/svg" width="137" height="117" viewBox="0 0 137 117" fill="none"><path d="M111.453 16.9518C104.107 9.82722 93.7365 3.92505 83.3974 7.87282C82.0002 8.41217 80.7054 9.10184 79.4774 9.89678C75.0342 5.78491 69.7884 2.60485 63.7785 1.17369C53.9191 -1.16106 43.3614 1.17419 36.5855 9.05125C29.7401 17.04 27.955 28.3168 27.9249 38.5156C27.9131 41.2609 28.0527 44.0046 28.3235 46.757C24.7722 46.3852 21.1803 46.9726 18.349 49.3637C14.3221 52.7614 12.3316 58.8427 11.0505 63.7609C9.42943 69.9443 9.14885 76.4418 10.5394 82.5383C7.91099 83.5699 5.55142 85.2244 3.75755 87.4129C0.548643 91.342 -0.218733 96.6435 0.987292 101.49C2.43603 107.354 6.35853 112.355 10.7501 116.366C12.1104 117.609 14.2661 115.754 12.9199 114.416C6.14908 107.745 -1.30248 94.3335 9.11961 87.2108C9.87121 86.6983 10.664 86.2662 11.4932 85.9296C12.5809 89.1125 14.1766 92.1237 16.3198 94.8919C19.4245 98.8916 23.5695 102.002 28.3461 103.724C29.3388 104.077 30.4171 103.435 30.7554 102.488C34.1779 92.8945 27.0696 81.4378 16.5979 81.3701C15.7754 81.3737 14.9486 81.4428 14.1374 81.5673C14.0264 81.079 13.9153 80.5907 13.8243 80.092C12.972 75.2918 13.2933 70.2826 14.4452 65.5574C15.515 61.1914 17.1099 55.4019 20.5849 52.3127C22.8849 50.2703 25.8902 50.0473 28.797 50.5469C29.6928 56.6183 31.3444 62.5809 33.8951 68.1456C35.8988 72.5453 38.5358 76.6961 41.7828 80.3057C44.8101 83.6603 49.1289 87.9501 53.7555 88.8355C59.1404 89.8644 61.6569 84.8576 61.2201 80.2246C60.7596 75.2487 58.4306 70.1409 55.8083 65.9445C50.4867 57.4263 42.046 50.3182 32.2779 47.5435C30.4048 32.4242 32.168 10.7978 48.6649 5.52944C56.7877 2.94702 65.7314 5.05413 72.5935 9.82713C73.8134 10.6723 74.9638 11.6292 76.0741 12.6067C71.3676 17.1267 68.326 23.557 66.8459 29.7187C64.3841 39.9731 65.2582 50.7478 68.9837 60.5795C72.3151 69.396 79.5147 81.8711 90.6256 80.3173C96.3144 79.5163 99.0256 74.79 99.6313 69.47C100.279 63.8115 100.036 57.9503 99.3367 52.3108C97.9396 41.2337 94.2667 30.1449 88.3095 20.6846C86.4984 17.822 84.441 15.0478 82.1138 12.5388C84.3153 11.219 86.7994 10.3757 89.5284 10.2817C96.5502 10.027 102.976 14.1233 108.039 19.0714C106.847 20.0123 105.764 21.0884 104.858 22.3392C98.4059 31.2423 101.493 43.7349 105.822 52.8388C106.874 55.0381 108.238 57.1029 110.544 58.1134C112.82 59.1141 115.396 58.8703 117.627 57.8782C122.75 55.6046 124.391 49.3604 124.464 44.2377C124.591 35.0926 120.121 26.4797 114.126 19.7398C114.317 19.6671 114.493 19.5896 114.679 19.5322C122.551 17.1038 130.602 21.6222 132.291 29.7089C133.024 33.2639 132.619 37.5423 130.542 40.6118C129.359 42.3601 132.098 44.1633 133.296 42.42C135.985 38.4408 137.106 34.1752 136.319 29.3793C135.602 24.941 133.076 20.7588 129.39 18.1478C124.164 14.4377 117.112 14.2638 111.453 16.9518ZM23.2708 87.3562C26.7573 90.2215 28.4207 94.8972 27.6488 99.2753C21.7453 96.42 17.4111 91.1363 15.1573 85.0134C18.0052 84.7062 20.9293 85.4125 23.2708 87.3562ZM57.0135 79.4408C57.301 80.8911 57.63 83.4108 56.3091 84.4944C54.5779 85.9152 51.7129 83.6187 50.3504 82.6438C47.02 80.2311 44.1325 77.2233 41.7362 73.8874C37.066 67.3557 34.3511 59.5925 32.927 51.7251C36.7162 53.1289 40.255 55.2064 43.3998 57.7271C50.0355 63.0475 55.3513 71.0107 57.0135 79.4408ZM89.1147 31.6215C92.9192 40.3221 95.0514 49.7919 95.468 59.2795C95.5666 61.4736 95.5794 63.6737 95.4761 65.8699C95.3764 68.4192 95.4025 71.4114 93.9824 73.6364C91.5842 77.3906 86.2994 76.7795 83.0427 74.6586C79.1156 72.1208 76.4163 67.799 74.305 63.7335C72.2761 59.8287 70.8149 55.6706 69.9374 51.3652C68.1929 42.7745 68.6915 33.464 71.9876 25.3052C73.4684 21.6414 75.7261 17.9594 78.6742 15.1532C83.1241 19.9211 86.5147 25.689 89.1147 31.6215ZM119.94 47.4084C119.559 49.5823 118.715 51.8922 116.979 53.3282C115.293 54.7133 112.729 55.2295 110.982 53.6782C109.419 52.2866 108.591 49.8074 107.824 47.918C106.871 45.5663 106.129 43.1316 105.604 40.6493C104.222 33.9521 105.127 25.8788 110.538 21.6695C111.177 22.3945 111.785 23.1098 112.373 23.8354C117.562 30.3163 121.431 38.9203 119.94 47.4084Z" fill="#8C7FA9"></path></svg>