<svg xmlns="http://www.w3.org/2000/svg" width="165" height="162" viewBox="0 0 165 162" fill="none"><path id="Vector" d="M68.6272 1.03743C66.605 1.21945 66.5868 4.42305 68.6272 4.22282C72.9266 3.82237 77.4629 4.47766 81.7441 4.8417C86.08 5.20575 90.4159 5.93383 94.6606 6.91676C102.986 8.86441 111.002 11.9042 118.435 16.1453C133.501 24.755 145.307 37.9516 152.466 53.7147C159.644 69.5143 162.085 88.0806 158.023 105.045C155.873 114.019 151.628 122.155 145.179 128.799C139.313 134.842 132.208 139.502 124.775 143.397C108.342 151.989 89.3228 158.815 70.5401 156.576C53.2512 154.519 37.0919 145.327 25.4142 132.603C3.37048 108.631 -3.00581 69.4597 19.1654 43.4487C29.0214 31.872 43.3771 23.681 58.7895 23.1532C76.9164 22.5343 94.2052 32.3453 107.96 43.3213C120.731 53.5145 131.825 67.2208 133.046 84.0943C134.121 98.9473 128.346 114.164 117.415 124.358C106.229 134.806 90.1062 138.41 75.2585 135.315C60.1376 132.166 47.2575 122.301 41.2456 107.939C35.3976 93.9417 35.9624 77.05 43.6504 63.8352C47.968 56.4087 54.5994 49.8559 63.599 49.2188C72.7262 48.5635 81.5073 52.9866 88.9038 57.883C96.2274 62.743 103.077 68.7862 108.142 75.9943C113.024 82.9293 116.431 91.4298 114.5 100.003C110.765 116.676 90.5616 125.523 74.8577 122.337C67.1698 120.772 60.4109 116.403 56.6944 109.395C53.3423 103.079 52.5043 94.9064 55.7835 88.3718C59.2449 81.4914 67.7892 76.3401 74.8759 81.455C81.2158 86.0237 83.1469 95.3251 80.232 102.351C78.8292 105.737 76.1148 108.758 72.3801 109.468C68.9733 110.105 65.2569 109.031 63.4715 105.919C62.6153 104.408 60.3562 105.755 61.1578 107.266C64.8743 114.346 74.8577 113.964 79.8677 108.631C85.6245 102.515 86.0253 92.7586 82.3635 85.5141C78.6471 78.1604 70.5947 73.8646 62.6335 77.2684C54.9091 80.5631 50.5914 88.663 50.3364 96.7812C50.0995 104.444 53.1784 112.308 58.6437 117.696C64.8925 123.866 73.965 126.597 82.6004 126.342C100.017 125.85 119.182 112.999 118.617 93.9781C118.344 84.6404 113.48 76.1399 107.559 69.1866C101.365 61.9239 93.5858 55.6806 85.2237 51.0936C76.9528 46.543 66.9694 43.3577 57.6053 46.27C48.7332 49.0368 42.284 56.7909 38.3125 64.8727C30.8249 80.1444 31.3533 98.8199 39.2416 113.837C47.1847 128.945 62.506 138.282 79.2665 140.23C96.027 142.196 113.243 136.207 124.265 123.266C134.941 110.724 139.732 93.3228 136.434 77.1228C132.682 58.7022 118.435 44.5954 103.569 34.2201C87.5192 23.0075 68.2993 14.9075 48.4781 19.3671C31.8998 23.1168 17.2343 34.5478 8.65368 49.1278C-0.673909 64.9637 -2.09491 84.2763 2.65998 101.823C12.7709 139.211 50.0449 167.224 89.2317 161.181C99.9439 159.524 110.237 155.72 120.075 151.297C128.728 147.402 137.072 142.706 144.323 136.553C151.701 130.273 157.421 122.446 160.81 113.345C164.326 103.935 165.419 93.5594 164.873 83.5664C163.834 64.4723 156.583 45.9242 144.432 31.1803C132.317 16.5093 114.955 6.00665 96.3731 1.89294C91.8733 0.891811 87.3006 0.291134 82.6914 0.036297C77.8819 -0.200336 73.3638 0.600567 68.6272 1.03743Z" fill="#FEBE50"></path></svg>