<svg xmlns="http://www.w3.org/2000/svg" width="126" height="126" viewBox="0 0 126 126" fill="none"><g clip-path="url(#clip0_3292_407)"><path d="M63.6933 105.505L60.4636 111.912L53.3598 126H38.6759L45.7796 111.912L49.0094 105.505L58.3821 99.6869L63.6933 105.505Z" fill="#6DCBFF"></path><path d="M88.7088 126H74.0249L66.9214 111.912L63.6914 105.505L72.2072 100.699L78.3753 105.505L81.6053 111.912L88.7088 126Z" fill="#6DCBFF"></path><path d="M58.3837 99.6869L63.6949 105.505L60.4652 111.912H45.7812L49.011 105.505L58.3837 99.6869Z" fill="#3BB2F4"></path><path d="M81.6053 111.912H66.9214L63.6914 105.505L72.2072 100.699L78.3753 105.505L81.6053 111.912Z" fill="#3BB2F4"></path><path opacity="0.8" d="M7.40625 12.2254H119.982V93.2803H7.40625V12.2254Z" fill="#F3F8FB"></path><path opacity="0.5" d="M7.40625 12.2254H119.982V22.4632H7.40625V12.2254Z" fill="#B4D0D5"></path><path d="M83.0231 36.053C82.9768 35.551 82.7329 35.0876 82.3448 34.7654L75.5371 29.1075C74.7292 28.4364 73.531 28.5467 72.8594 29.3546C72.1883 30.1623 72.2988 31.361 73.1065 32.0321L76.3305 34.7116C62.1103 35.8884 48.8815 42.0008 38.6952 52.1872C38.2047 52.6776 37.716 53.1833 37.2425 53.6901C36.5256 54.4574 36.5665 55.6605 37.3338 56.3776C37.7005 56.7202 38.1663 56.8895 38.6314 56.8895C39.1396 56.8895 39.6468 56.687 40.0211 56.2861C40.4653 55.8106 40.9241 55.3362 41.384 54.876C50.959 45.301 63.4027 39.569 76.7752 38.492L74.0094 41.82C73.3383 42.6276 73.4488 43.8264 74.2565 44.4977C74.6118 44.793 75.0425 44.9367 75.4709 44.9367C76.0165 44.9367 76.5582 44.703 76.9342 44.2506L82.5921 37.4427C82.9143 37.0551 83.0693 36.5553 83.0231 36.053Z" fill="#DD636E"></path><path d="M83.9664 60.7005L80.0344 52.7697C79.5678 51.8288 78.4274 51.4444 77.4861 51.9108C76.5452 52.3774 76.1606 53.5183 76.6272 54.4591L78.5494 58.3363C65.7875 54.199 55.0049 45.7466 47.9012 34.2184C47.5601 33.6647 47.2234 33.0972 46.901 32.5314C46.381 31.6194 45.2197 31.3014 44.3075 31.8217C43.3952 32.3419 43.0775 33.503 43.5977 34.4152C43.9415 35.0182 44.3003 35.6231 44.6638 36.2132C52.2211 48.4775 63.6795 57.4811 77.2432 61.9116L73.4873 63.7737C72.5465 64.2403 72.1618 65.381 72.6284 66.322C72.9604 66.9914 73.6337 67.3793 74.3336 67.3793C74.6171 67.3793 74.9053 67.3155 75.1767 67.1812L83.1076 63.2491C84.0484 62.7822 84.433 61.6413 83.9664 60.7005Z" fill="#70C6DA"></path><path d="M32.9192 57.4124C32.1767 56.67 30.9728 56.67 30.2301 57.4124L25.9471 61.6955L21.6641 57.4124C20.9216 56.6697 19.7177 56.6697 18.975 57.4124C18.2323 58.1549 18.2323 59.3588 18.975 60.1015L23.258 64.3845L18.975 68.6675C18.2323 69.41 18.2323 70.6139 18.975 71.3566C19.3464 71.728 19.8329 71.9135 20.3194 71.9135C20.8059 71.9135 21.2927 71.7277 21.6638 71.3566L25.9468 67.0736L30.2299 71.3566C30.6012 71.728 31.0877 71.9135 31.5743 71.9135C32.0608 71.9135 32.5476 71.7277 32.9187 71.3566C33.6614 70.6141 33.6614 69.4102 32.9187 68.6675L28.6357 64.3845L32.9187 60.1015C33.6619 59.3588 33.6619 58.1549 32.9192 57.4124Z" fill="#475959"></path><path d="M35.7924 30.2402L40.0754 25.9572C40.8181 25.2148 40.8181 24.0109 40.0754 23.2682C39.333 22.5257 38.1291 22.5257 37.3864 23.2682L33.1033 27.5512L28.8203 23.2682C28.0779 22.5254 26.874 22.5254 26.1313 23.2682C25.3885 24.0106 25.3885 25.2145 26.1313 25.9572L30.4143 30.2402L26.1313 34.5233C25.3885 35.2657 25.3885 36.4696 26.1313 37.2123C26.5026 37.5837 26.9891 37.7692 27.4757 37.7692C27.9622 37.7692 28.449 37.5834 28.8201 37.2123L33.1031 32.9293L37.3861 37.2123C37.7575 37.5837 38.244 37.7692 38.7305 37.7692C39.217 37.7692 39.7038 37.5834 40.0749 37.2123C40.8176 36.4699 40.8176 35.266 40.0749 34.5233L35.7924 30.2402Z" fill="#475959"></path><path d="M121.976 16.8591H5.41181C3.80999 16.8591 2.5116 15.5608 2.5116 13.9589V2.90021C2.5116 1.29864 3.80999 0 5.41181 0H121.976C123.578 0 124.876 1.29839 124.876 2.90021V13.9589C124.876 15.5608 123.578 16.8591 121.976 16.8591Z" fill="#6DCBFF"></path><path d="M11.968 16.8591H5.41206C3.80974 16.8591 2.51184 15.5585 2.51184 13.9589V2.90021C2.51159 1.29814 3.80949 0 5.41181 0H11.9677C10.3654 0 9.06753 1.29814 9.06753 2.90021V13.9589C9.06753 15.5585 10.3657 16.8591 11.968 16.8591Z" fill="#3BB2F4"></path><path d="M121.976 105.506H5.41181C3.80999 105.506 2.5116 104.207 2.5116 102.605V91.5466C2.5116 89.9448 3.80999 88.6464 5.41181 88.6464H121.976C123.578 88.6464 124.876 89.9448 124.876 91.5466V102.605C124.876 104.207 123.578 105.506 121.976 105.506Z" fill="#6DCBFF"></path><path d="M11.968 105.506H5.41206C3.80974 105.506 2.51184 104.205 2.51184 102.605V91.5466C2.51184 89.9443 3.80999 88.6464 5.41206 88.6464H11.968C10.3657 88.6464 9.06778 89.9446 9.06778 91.5466V102.605C9.06753 104.205 10.3657 105.506 11.968 105.506Z" fill="#3BB2F4"></path><path d="M63.7308 63.1897C62.3391 61.798 60.0903 61.7727 58.6679 63.1331L2.4335 116.902C0.715767 118.545 0.685252 121.278 2.36558 122.959L3.96125 124.555C5.64183 126.235 8.37568 126.204 10.0181 124.487L63.7874 68.2523C65.1478 66.8299 65.1227 64.5814 63.7308 63.1897Z" fill="#C67D66"></path><path d="M63.7297 63.1912C63.461 62.92 62.1274 63.8099 60.7305 65.1967L5.4884 119.957C3.79995 121.63 2.68195 123.276 3.00901 123.603L2.36498 122.962C0.684161 121.281 0.717137 118.545 2.4334 116.902L58.6668 63.1332C60.0917 61.7742 62.338 61.7996 63.7297 63.1912Z" fill="#AA593D"></path><path d="M100.062 39.5397C99.5606 39.5397 99.0761 39.3411 98.7177 38.9828L93.3266 33.5916C92.5839 32.8491 92.5839 31.6452 93.3266 30.9025C94.069 30.16 95.2729 30.16 96.0156 30.9025L99.7597 34.6463L106.338 24.6847C106.917 23.8084 108.097 23.5669 108.973 24.1458C109.849 24.7243 110.09 25.9039 109.512 26.7802L101.649 38.686C101.334 39.1626 100.822 39.4725 100.254 39.5301C100.19 39.5365 100.126 39.5397 100.062 39.5397Z" fill="#80E29D"></path><path d="M100.062 57.6532C99.5606 57.6532 99.0761 57.4546 98.7177 57.0962L93.3266 51.7051C92.5839 50.9626 92.5839 49.7587 93.3266 49.016C94.069 48.2735 95.2729 48.2735 96.0156 49.016L99.7597 52.7598L106.338 42.7982C106.917 41.9219 108.097 41.6804 108.973 42.2593C109.849 42.8378 110.09 44.0173 109.512 44.8937L101.649 56.7995C101.334 57.2761 100.822 57.586 100.254 57.6436C100.19 57.65 100.126 57.6532 100.062 57.6532Z" fill="#80E29D"></path><path d="M100.062 76.7872C99.5606 76.7872 99.0761 76.5886 98.7177 76.2302L93.3266 70.8391C92.5839 70.0966 92.5839 68.8927 93.3266 68.15C94.069 67.4075 95.2729 67.4075 96.0156 68.15L99.7597 71.8938L106.338 61.9322C106.917 61.0559 108.097 60.8144 108.973 61.3933C109.849 61.9718 110.09 63.1513 109.512 64.0277L101.649 75.9335C101.334 76.4101 100.822 76.72 100.254 76.7776C100.19 76.784 100.126 76.7872 100.062 76.7872Z" fill="#80E29D"></path></g><defs><clipPath id="clip0_3292_407"><rect width="126" height="126" fill="white"></rect></clipPath></defs></svg>