<svg xmlns="http://www.w3.org/2000/svg" width="135" height="136" viewBox="0 0 135 136" fill="none"><path d="M72.0867 65.8308V57.1534H63.4093V65.8308C63.4093 66.9815 62.9522 68.0851 62.1385 68.8987C61.3248 69.7124 60.2213 70.1695 59.0706 70.1695H52.5625V78.847H82.9335V70.1695H76.4254C75.2747 70.1695 74.1712 69.7124 73.3575 68.8987C72.5438 68.0851 72.0867 66.9815 72.0867 65.8308Z" fill="#FFD3B6"></path><path d="M63.4138 65.3297C66.2677 65.9978 69.2374 65.9978 72.0912 65.3297V57.1534H63.4138V65.3297Z" fill="#F9B995"></path><path d="M104.629 87.5244V96.2018H30.8711V87.5244C30.8711 82.9216 32.6995 78.5073 35.9542 75.2526C39.2089 71.998 43.6232 70.1695 48.226 70.1695H57.1203C57.6182 72.6215 58.9485 74.826 60.8858 76.4094C62.823 77.9928 65.2481 78.8578 67.7502 78.8578C70.2522 78.8578 72.6773 77.9928 74.6146 76.4094C76.5518 74.826 77.8821 72.6215 78.38 70.1695H87.2744C91.8772 70.1695 96.2914 71.998 99.5461 75.2526C102.801 78.5073 104.629 82.9216 104.629 87.5244Z" fill="#C06EF3"></path><path d="M98.7264 74.5082H76.3842C75.383 75.8545 74.0808 76.948 72.5816 77.7014C71.0825 78.4547 69.428 78.8471 67.7502 78.8471C66.0724 78.8471 64.4178 78.4547 62.9187 77.7014C61.4196 76.948 60.1174 75.8545 59.1161 74.5082H43.2798C46.4394 71.7108 50.514 70.1674 54.734 70.1695H48.226C45.8091 70.1692 43.419 70.6757 41.2099 71.6561C39.0008 72.6366 37.0219 74.0694 35.4007 75.8619L35.3183 75.953C34.9017 76.4151 34.5107 76.8996 34.1468 77.4043L34.0861 77.4867C33.3128 78.5656 32.6671 79.7303 32.1619 80.9577C31.3085 83.0418 30.87 85.2723 30.8711 87.5244V96.2018H104.629V87.5244C104.63 85.0594 104.103 82.6229 103.085 80.378C102.067 78.1331 100.581 76.1318 98.7264 74.5082Z" fill="#AB3EEE"></path><path d="M48.2266 22.4437H87.275V41.9679C87.275 47.1461 85.218 52.1121 81.5565 55.7736C77.895 59.4351 72.9289 61.4921 67.7508 61.4921C62.5726 61.4921 57.6066 59.4351 53.9451 55.7736C50.2836 52.1121 48.2266 47.1461 48.2266 41.9679V22.4437Z" fill="#FFD3B6"></path><path d="M46.0536 31.1211H48.2229V39.7985H46.0536C44.9029 39.7985 43.7993 39.3414 42.9856 38.5277C42.172 37.7141 41.7148 36.6105 41.7148 35.4598C41.7148 34.3091 42.172 33.2055 42.9856 32.3919C43.7993 31.5782 44.9029 31.1211 46.0536 31.1211Z" fill="#F9B995"></path><path d="M89.4464 39.7985H87.2771V31.1211H89.4464C90.5971 31.1211 91.7007 31.5782 92.5144 32.3919C93.328 33.2055 93.7852 34.3091 93.7852 35.4598C93.7852 36.6105 93.328 37.7141 92.5144 38.5277C91.7007 39.3414 90.5971 39.7985 89.4464 39.7985Z" fill="#FFD3B6"></path><path d="M67.7508 0.750122C62.5726 0.750122 57.6066 2.80713 53.9451 6.46863C50.2836 10.1301 48.2266 15.0962 48.2266 20.2743V31.1211H70.2933C71.4439 31.1209 72.5473 30.6636 73.3607 29.8499L76.4282 26.7824L79.4957 29.8499C80.3092 30.6636 81.4125 31.1209 82.5631 31.1211H87.275V20.2743C87.275 15.0962 85.218 10.1301 81.5565 6.46863C77.895 2.80713 72.9289 0.750122 67.7508 0.750122Z" fill="#7A838B"></path><path d="M0.499756 122.234H135V135.25H0.499756V122.234Z" fill="#C06EF3"></path><path d="M103.67 78.8469H31.8209C31.1789 78.8467 30.5448 78.9889 29.9644 79.2634C29.384 79.5378 28.8717 79.9377 28.4646 80.4341C28.0574 80.9305 27.7655 81.5111 27.6099 82.1339C27.4542 82.7568 27.4388 83.4065 27.5646 84.036L34.5066 118.746C34.7032 119.73 35.2348 120.615 36.0109 121.251C36.7869 121.887 37.7595 122.234 38.7628 122.234H96.7281C97.7315 122.234 98.704 121.887 99.48 121.251C100.256 120.615 100.788 119.73 100.984 118.746L107.926 84.036C108.052 83.4065 108.037 82.7568 107.881 82.1339C107.725 81.5111 107.433 80.9305 107.026 80.4341C106.619 79.9377 106.107 79.5378 105.527 79.2634C104.946 78.9889 104.312 78.8467 103.67 78.8469Z" fill="#7A838B"></path><path d="M79.3233 115.726C68.7177 115.726 58.4396 112.052 50.2378 105.328C42.036 98.6044 36.4172 89.2466 34.3374 78.8469H31.8209C31.1789 78.8467 30.5448 78.9889 29.9644 79.2634C29.384 79.5378 28.8717 79.9377 28.4646 80.4341C28.0574 80.9305 27.7655 81.5111 27.6099 82.1339C27.4542 82.7568 27.4388 83.4065 27.5646 84.036L34.5066 118.746C34.7032 119.73 35.2348 120.615 36.0109 121.251C36.7869 121.887 37.7595 122.234 38.7628 122.234H96.7281C97.7314 122.234 98.7039 121.887 99.48 121.251C100.256 120.615 100.788 119.73 100.984 118.746L101.587 115.726H79.3233Z" fill="#5D6972"></path><path d="M67.7477 109.218C72.5402 109.218 76.4252 105.333 76.4252 100.541C76.4252 95.7481 72.5402 91.8631 67.7477 91.8631C62.9553 91.8631 59.0703 95.7481 59.0703 100.541C59.0703 105.333 62.9553 109.218 67.7477 109.218Z" fill="#C06EF3"></path><path d="M74.2589 54.9841C69.0807 54.9841 64.1146 52.9271 60.4531 49.2656C56.7916 45.6041 54.7346 40.638 54.7346 35.4599V22.4437H48.2266V41.9679C48.2231 46.2263 49.613 50.3689 52.1842 53.7634C54.7554 57.158 58.3667 59.618 62.4669 60.768C66.567 61.9181 70.9309 61.695 74.8924 60.1328C78.8539 58.5707 82.1955 55.7552 84.4071 52.1162C81.354 53.9907 77.8415 54.9834 74.2589 54.9841Z" fill="#F9B995"></path><path d="M7.00783 122.234H0.499756V135.25H135V128.742H13.5159C11.7899 128.742 10.1345 128.056 8.914 126.836C7.6935 125.615 7.00783 123.96 7.00783 122.234Z" fill="#AB3EEE"></path><path d="M71.0051 1.04302C68.2045 0.550902 65.33 0.679863 62.5848 1.42079C59.8395 2.16171 57.2905 3.49652 55.1178 5.33089C52.9451 7.16525 51.2018 9.4544 50.0111 12.0366C48.8204 14.6187 48.2113 17.4309 48.2269 20.2744V31.1212H54.7349V20.2744C54.7374 15.6632 56.3728 11.2019 59.3511 7.68161C62.3294 4.16129 66.4581 1.80941 71.0051 1.04302Z" fill="#5D6972"></path><path d="M76.4272 41.9679C77.0025 41.9679 77.5543 41.7394 77.9611 41.3325C78.368 40.9257 78.5965 40.3739 78.5965 39.7986V37.6292C78.5965 37.0538 78.368 36.5021 77.9611 36.0952C77.5543 35.6884 77.0025 35.4598 76.4272 35.4598C75.8518 35.4598 75.3 35.6884 74.8932 36.0952C74.4864 36.5021 74.2578 37.0538 74.2578 37.6292V39.7986C74.2578 40.3739 74.4864 40.9257 74.8932 41.3325C75.3 41.7394 75.8518 41.9679 76.4272 41.9679Z" fill="#7A838B"></path><path d="M59.0717 35.4598C58.4964 35.4598 57.9446 35.6884 57.5377 36.0952C57.1309 36.5021 56.9023 37.0538 56.9023 37.6292V39.7986C56.9023 40.3739 57.1309 40.9257 57.5377 41.3325C57.9446 41.7394 58.4964 41.9679 59.0717 41.9679C59.6471 41.9679 60.1988 41.7394 60.6057 41.3325C61.0125 40.9257 61.2411 40.3739 61.2411 39.7986V37.6292C61.2411 37.0538 61.0125 36.5021 60.6057 36.0952C60.1988 35.6884 59.6471 35.4598 59.0717 35.4598Z" fill="#7A838B"></path><path d="M102.461 85.355H98.1225C97.5471 85.355 96.9953 85.1265 96.5885 84.7196C96.1817 84.3128 95.9531 83.761 95.9531 83.1857C95.9531 82.6103 96.1817 82.0585 96.5885 81.6517C96.9953 81.2449 97.5471 81.0163 98.1225 81.0163H102.461C103.037 81.0163 103.588 81.2449 103.995 81.6517C104.402 82.0585 104.631 82.6103 104.631 83.1857C104.631 83.761 104.402 84.3128 103.995 84.7196C103.588 85.1265 103.037 85.355 102.461 85.355Z" fill="white"></path></svg>