<svg width="186" height="43" viewBox="0 0 186 43" fill="none" xmlns="http://www.w3.org/2000/svg">
<path d="M65.7174 34.9219C63.8915 34.9219 62.2407 34.5965 60.7649 33.9456C59.3142 33.2947 58.1636 32.3575 57.3132 31.1339C56.4627 29.9103 56.025 28.4654 56 26.7992H61.6278C61.7029 27.9186 62.0781 28.8038 62.7534 29.4547C63.4538 30.1055 64.4042 30.431 65.6049 30.431C66.8305 30.431 67.7935 30.1316 68.4938 29.5328C69.1942 28.908 69.5443 28.1009 69.5443 27.1116C69.5443 26.3045 69.3067 25.6406 68.8315 25.1199C68.3562 24.5993 67.7559 24.1957 67.0306 23.9093C66.3302 23.5969 65.3547 23.2585 64.1041 22.894C62.4032 22.3733 61.015 21.8656 59.9395 21.371C58.889 20.8503 57.976 20.0823 57.2006 19.0669C56.4502 18.0256 56.075 16.6457 56.075 14.9275C56.075 13.3133 56.4627 11.9075 57.2381 10.7099C58.0135 9.51232 59.1016 8.60111 60.5023 7.97629C61.903 7.32543 63.5038 7 65.3047 7C68.0061 7 70.1947 7.68991 71.8705 9.06973C73.5714 10.4235 74.5094 12.324 74.6844 14.7713H68.9065C68.8565 13.834 68.4688 13.066 67.7434 12.4672C67.0431 11.8424 66.1051 11.53 64.9295 11.53C63.904 11.53 63.0786 11.8033 62.4533 12.3501C61.853 12.8968 61.5528 13.6908 61.5528 14.7322C61.5528 15.4612 61.7779 16.073 62.2281 16.5676C62.7034 17.0363 63.2787 17.4268 63.954 17.7392C64.6544 18.0256 65.6299 18.364 66.8805 18.7545C68.5814 19.2752 69.9696 19.7959 71.0451 20.3166C72.1207 20.8373 73.0461 21.6183 73.8215 22.6597C74.5969 23.7011 74.9846 25.0679 74.9846 26.7601C74.9846 28.218 74.6219 29.5718 73.8965 30.8215C73.1712 32.0711 72.1081 33.0735 70.7074 33.8285C69.3067 34.5574 67.6434 34.9219 65.7174 34.9219Z" fill="#332C5C"/>
<path d="M77.8126 23.7531C77.8126 21.5662 78.2253 19.6267 79.0507 17.9344C79.9011 16.2422 81.0392 14.9405 82.4649 14.0293C83.9157 13.1181 85.529 12.6625 87.3049 12.6625C88.8557 12.6625 90.2064 12.9879 91.3569 13.6388C92.5325 14.2896 93.4705 15.1097 94.1709 16.099V13.0139H99.461V34.6485H94.1709V31.4854C93.4955 32.5007 92.5575 33.3468 91.3569 34.0237C90.1813 34.6746 88.8182 35 87.2674 35C85.5165 35 83.9157 34.5314 82.4649 33.5941C81.0392 32.6569 79.9011 31.3422 79.0507 29.6499C78.2253 27.9317 77.8126 25.9661 77.8126 23.7531ZM94.1709 23.8312C94.1709 22.5035 93.9207 21.371 93.4205 20.4338C92.9202 19.4705 92.2449 18.7415 91.3945 18.2469C90.544 17.7262 89.6311 17.4658 88.6556 17.4658C87.6801 17.4658 86.7796 17.7132 85.9542 18.2078C85.1288 18.7025 84.4534 19.4314 83.9282 20.3947C83.4279 21.3319 83.1778 22.4514 83.1778 23.7531C83.1778 25.0549 83.4279 26.2004 83.9282 27.1897C84.4534 28.153 85.1288 28.8949 85.9542 29.4156C86.8046 29.9363 87.7051 30.1967 88.6556 30.1967C89.6311 30.1967 90.544 29.9493 91.3945 29.4547C92.2449 28.934 92.9202 28.205 93.4205 27.2678C93.9207 26.3045 94.1709 25.159 94.1709 23.8312Z" fill="#332C5C"/>
<path d="M102.865 23.7531C102.865 21.5662 103.278 19.6267 104.103 17.9344C104.954 16.2422 106.092 14.9405 107.518 14.0293C108.968 13.1181 110.582 12.6625 112.358 12.6625C113.908 12.6625 115.259 12.9879 116.41 13.6388C117.585 14.2896 118.523 15.1097 119.224 16.099V13.0139H124.514V34.6485H119.224V31.4854C118.548 32.5007 117.61 33.3468 116.41 34.0237C115.234 34.6746 113.871 35 112.32 35C110.569 35 108.968 34.5314 107.518 33.5941C106.092 32.6569 104.954 31.3422 104.103 29.6499C103.278 27.9317 102.865 25.9661 102.865 23.7531ZM119.224 23.8312C119.224 22.5035 118.973 21.371 118.473 20.4338C117.973 19.4705 117.298 18.7415 116.447 18.2469C115.597 17.7262 114.684 17.4658 113.708 17.4658C112.733 17.4658 111.832 17.7132 111.007 18.2078C110.181 18.7025 109.506 19.4314 108.981 20.3947C108.481 21.3319 108.231 22.4514 108.231 23.7531C108.231 25.0549 108.481 26.2004 108.981 27.1897C109.506 28.153 110.181 28.8949 111.007 29.4156C111.857 29.9363 112.758 30.1967 113.708 30.1967C114.684 30.1967 115.597 29.9493 116.447 29.4547C117.298 28.934 117.973 28.205 118.473 27.2678C118.973 26.3045 119.224 25.159 119.224 23.8312Z" fill="#332C5C"/>
<path d="M138.311 34.9219C136.485 34.9219 134.834 34.5965 133.358 33.9456C131.908 33.2947 130.757 32.3575 129.907 31.1339C129.056 29.9103 128.618 28.4654 128.593 26.7992H134.221C134.296 27.9186 134.671 28.8038 135.347 29.4547C136.047 30.1055 136.998 30.431 138.198 30.431C139.424 30.431 140.387 30.1316 141.087 29.5328C141.788 28.908 142.138 28.1009 142.138 27.1116C142.138 26.3045 141.9 25.6406 141.425 25.1199C140.95 24.5993 140.349 24.1957 139.624 23.9093C138.924 23.5969 137.948 23.2585 136.697 22.894C134.997 22.3733 133.608 21.8656 132.533 21.371C131.482 20.8503 130.569 20.0823 129.794 19.0669C129.044 18.0256 128.668 16.6457 128.668 14.9275C128.668 13.3133 129.056 11.9075 129.831 10.7099C130.607 9.51232 131.695 8.60111 133.096 7.97629C134.496 7.32543 136.097 7 137.898 7C140.599 7 142.788 7.68991 144.464 9.06973C146.165 10.4235 147.103 12.324 147.278 14.7713H141.5C141.45 13.834 141.062 13.066 140.337 12.4672C139.636 11.8424 138.698 11.53 137.523 11.53C136.497 11.53 135.672 11.8033 135.047 12.3501C134.446 12.8968 134.146 13.6908 134.146 14.7322C134.146 15.4612 134.371 16.073 134.821 16.5676C135.297 17.0363 135.872 17.4268 136.547 17.7392C137.248 18.0256 138.223 18.364 139.474 18.7545C141.175 19.2752 142.563 19.7959 143.638 20.3166C144.714 20.8373 145.639 21.6183 146.415 22.6597C147.19 23.7011 147.578 25.0679 147.578 26.7601C147.578 28.218 147.215 29.5718 146.49 30.8215C145.765 32.0711 144.701 33.0735 143.301 33.8285C141.9 34.5574 140.237 34.9219 138.311 34.9219Z" fill="#332C5C"/>
<path d="M157.872 17.5049V27.9707C157.872 28.6997 158.035 29.2334 158.36 29.5718C158.71 29.8842 159.285 30.0404 160.086 30.0404H162.525V34.6485H159.223C154.796 34.6485 152.582 32.4096 152.582 27.9317V17.5049H150.106V13.0139H152.582V7.66388H157.872V13.0139H162.525V17.5049H157.872Z" fill="#332C5C"/>
<path d="M175.157 35C173.156 35 171.355 34.5444 169.754 33.6332C168.153 32.696 166.89 31.3812 165.965 29.689C165.064 27.9967 164.614 26.0442 164.614 23.8312C164.614 21.6183 165.077 19.6657 166.002 17.9735C166.953 16.2813 168.241 14.9795 169.867 14.0683C171.493 13.1311 173.306 12.6625 175.307 12.6625C177.308 12.6625 179.122 13.1311 180.747 14.0683C182.373 14.9795 183.649 16.2813 184.574 17.9735C185.525 19.6657 186 21.6183 186 23.8312C186 26.0442 185.512 27.9967 184.537 29.689C183.586 31.3812 182.286 32.696 180.635 33.6332C179.009 34.5444 177.183 35 175.157 35ZM175.157 30.2357C176.107 30.2357 176.995 30.0014 177.821 29.5328C178.671 29.0381 179.347 28.3092 179.847 27.3459C180.347 26.3826 180.597 25.2111 180.597 23.8312C180.597 21.7745 180.072 20.1994 179.021 19.106C177.996 17.9865 176.733 17.4268 175.232 17.4268C173.731 17.4268 172.468 17.9865 171.443 19.106C170.442 20.1994 169.942 21.7745 169.942 23.8312C169.942 25.888 170.43 27.4761 171.405 28.5955C172.406 29.689 173.656 30.2357 175.157 30.2357Z" fill="#332C5C"/>
<path d="M23.3872 39.6454H11.8091C6.96685 39.6454 3.03906 35.6195 3.03906 30.6482V12.2032C3.03906 7.23558 6.96325 3.20605 11.8091 3.20605H25.9182C24.3449 3.36487 22.822 3.70836 21.3603 4.2476C19.283 5.01583 17.5946 6.17187 16.2949 7.71203C14.9952 9.25219 14.3436 11.0989 14.3436 13.2559C14.3436 15.5643 14.8944 17.4405 15.9961 18.8736C17.0941 20.3103 18.4226 21.3888 19.9743 22.1053C21.5223 22.8255 23.524 23.5421 25.9758 24.2623C27.9774 24.8791 29.5399 25.4183 30.6668 25.88C31.79 26.3417 32.7297 26.9843 33.4821 27.8043C34.2309 28.6242 34.6054 29.6768 34.6054 30.9584C34.6054 32.8569 33.9429 34.3342 32.6181 35.3832C31.2932 36.4358 29.4535 36.9603 27.1026 36.9603C24.4997 36.9603 22.5124 36.5097 21.1371 35.6122C19.7619 34.7147 19.0742 33.4958 19.0742 31.9557C19.0742 30.8292 19.3622 29.9538 19.9383 29.337C20.5143 28.7202 20.8023 28.3878 20.8023 28.3361C20.8023 28.0813 20.4891 27.7193 19.8627 27.2576C19.2362 26.796 18.5234 26.5633 17.7242 26.5633C16.3237 26.5633 15.186 27.0249 14.3112 27.9483C13.4364 28.8717 12.9971 30.0794 12.9971 31.5679C12.9971 34.1865 14.2464 36.2142 16.7485 37.6472C18.563 38.6999 20.7807 39.3573 23.3872 39.6454Z" fill="#8976FD"/>
<path d="M30.1154 0H11.6502C5.22745 0 0 5.36285 0 11.9519V30.8955C0 37.4883 5.22745 42.8474 11.6502 42.8474H30.1154C36.5417 42.8474 41.7692 37.4846 41.7692 30.8955V11.9519C41.7692 5.36285 36.5417 0 30.1154 0ZM40.7719 30.8955C40.7719 36.9305 36.0017 41.8243 30.119 41.8243H11.6502C5.76747 41.8243 0.997248 36.9305 0.997248 30.8955V11.9519C0.997248 5.91687 5.76747 1.02308 11.6502 1.02308H30.1154C32.6248 1.02308 34.9289 1.92058 36.7506 3.41642C38.8243 5.46996 40.1923 8.91223 38.6442 12.3582C38.439 12.9381 38.133 13.4699 37.7262 13.9501C36.9018 14.9251 35.8109 15.4127 34.4608 15.4127C33.658 15.4127 32.9488 15.18 32.3223 14.7183C31.6959 14.2566 31.3827 13.8984 31.3827 13.6398C31.3827 13.5881 31.5843 13.385 31.9839 13.023C32.3835 12.6647 32.7472 12.24 33.0748 11.7525C33.3988 11.2649 33.5644 10.6888 33.5644 10.0203C33.4636 8.63522 32.7868 7.55674 31.5375 6.78851C30.2846 6.02028 28.8086 5.63247 27.1093 5.63247C25.2084 5.63247 23.5451 6.08307 22.1195 6.98057C20.6938 7.87807 19.981 9.12276 19.981 10.7146C19.981 12.1514 20.2798 13.2926 20.881 14.1384C21.4822 14.9842 22.3823 15.6675 23.5811 16.1772C24.78 16.6906 26.6809 17.3849 29.2838 18.2566C31.9335 19.1282 34.0108 19.9371 35.5121 20.6832C36.7866 21.3147 37.8198 22.1421 38.6442 23.143C38.655 23.1578 38.6658 23.1688 38.6766 23.1836C40.0735 24.9085 40.7719 27.1134 40.7719 29.3553V30.8955V30.8955Z" fill="#8976FD"/>
</svg>
