<svg width="179" height="40" viewBox="0 0 179 40" fill="none" xmlns="http://www.w3.org/2000/svg">
<path d="M63.1599 32.2522C61.4079 32.2522 59.8239 31.9522 58.4079 31.3522C57.0159 30.7522 55.9119 29.8882 55.0959 28.7602C54.2799 27.6322 53.8599 26.3002 53.8359 24.7642H59.2359C59.3079 25.7962 59.6679 26.6122 60.3159 27.2122C60.9879 27.8122 61.8999 28.1122 63.0519 28.1122C64.2279 28.1122 65.1519 27.8362 65.8239 27.2842C66.4959 26.7082 66.8319 25.9642 66.8319 25.0522C66.8319 24.3082 66.6039 23.6962 66.1479 23.2162C65.6919 22.7362 65.1159 22.3642 64.4199 22.1002C63.7479 21.8122 62.8119 21.5002 61.6119 21.1642C59.9799 20.6842 58.6479 20.2162 57.6159 19.7602C56.6079 19.2802 55.7319 18.5722 54.9879 17.6362C54.2679 16.6762 53.9079 15.4042 53.9079 13.8202C53.9079 12.3322 54.2799 11.0362 55.0239 9.93221C55.7679 8.82821 56.8119 7.98821 58.1559 7.41221C59.4999 6.81221 61.0359 6.51221 62.7639 6.51221C65.3559 6.51221 67.4559 7.14821 69.0639 8.42021C70.6959 9.66821 71.5959 11.4202 71.7639 13.6762H66.2199C66.1719 12.8122 65.7999 12.1042 65.1039 11.5522C64.4319 10.9762 63.5319 10.6882 62.4039 10.6882C61.4199 10.6882 60.6279 10.9402 60.0279 11.4442C59.4519 11.9482 59.1639 12.6802 59.1639 13.6402C59.1639 14.3122 59.3799 14.8762 59.8119 15.3322C60.2679 15.7642 60.8199 16.1242 61.4679 16.4122C62.1399 16.6762 63.0759 16.9882 64.2759 17.3482C65.9079 17.8282 67.2399 18.3082 68.2719 18.7882C69.3039 19.2682 70.1919 19.9882 70.9359 20.9482C71.6799 21.9082 72.0519 23.1682 72.0519 24.7282C72.0519 26.0722 71.7039 27.3202 71.0079 28.4722C70.3119 29.6242 69.2919 30.5482 67.9479 31.2442C66.6039 31.9162 65.0079 32.2522 63.1599 32.2522Z" fill="#18063C"/>
<path d="M74.7654 21.9562C74.7654 19.9402 75.1614 18.1522 75.9534 16.5922C76.7694 15.0322 77.8614 13.8322 79.2294 12.9922C80.6214 12.1522 82.1694 11.7322 83.8734 11.7322C85.3614 11.7322 86.6574 12.0322 87.7614 12.6322C88.8894 13.2322 89.7894 13.9882 90.4614 14.9002V12.0562H95.5374V32.0002H90.4614V29.0842C89.8134 30.0202 88.9134 30.8002 87.7614 31.4242C86.6334 32.0242 85.3254 32.3242 83.8374 32.3242C82.1574 32.3242 80.6214 31.8922 79.2294 31.0282C77.8614 30.1642 76.7694 28.9522 75.9534 27.3922C75.1614 25.8082 74.7654 23.9962 74.7654 21.9562ZM90.4614 22.0282C90.4614 20.8042 90.2214 19.7602 89.7414 18.8962C89.2614 18.0082 88.6134 17.3362 87.7974 16.8802C86.9814 16.4002 86.1054 16.1602 85.1694 16.1602C84.2334 16.1602 83.3694 16.3882 82.5774 16.8442C81.7854 17.3002 81.1374 17.9722 80.6334 18.8602C80.1534 19.7242 79.9134 20.7562 79.9134 21.9562C79.9134 23.1562 80.1534 24.2122 80.6334 25.1242C81.1374 26.0122 81.7854 26.6962 82.5774 27.1762C83.3934 27.6562 84.2574 27.8962 85.1694 27.8962C86.1054 27.8962 86.9814 27.6682 87.7974 27.2122C88.6134 26.7322 89.2614 26.0602 89.7414 25.1962C90.2214 24.3082 90.4614 23.2522 90.4614 22.0282Z" fill="#18063C"/>
<path d="M98.8039 21.9562C98.8039 19.9402 99.1999 18.1522 99.9919 16.5922C100.808 15.0322 101.9 13.8322 103.268 12.9922C104.66 12.1522 106.208 11.7322 107.912 11.7322C109.4 11.7322 110.696 12.0322 111.8 12.6322C112.928 13.2322 113.828 13.9882 114.5 14.9002V12.0562H119.576V32.0002H114.5V29.0842C113.852 30.0202 112.952 30.8002 111.8 31.4242C110.672 32.0242 109.364 32.3242 107.876 32.3242C106.196 32.3242 104.66 31.8922 103.268 31.0282C101.9 30.1642 100.808 28.9522 99.9919 27.3922C99.1999 25.8082 98.8039 23.9962 98.8039 21.9562ZM114.5 22.0282C114.5 20.8042 114.26 19.7602 113.78 18.8962C113.3 18.0082 112.652 17.3362 111.836 16.8802C111.02 16.4002 110.144 16.1602 109.208 16.1602C108.272 16.1602 107.408 16.3882 106.616 16.8442C105.824 17.3002 105.176 17.9722 104.672 18.8602C104.192 19.7242 103.952 20.7562 103.952 21.9562C103.952 23.1562 104.192 24.2122 104.672 25.1242C105.176 26.0122 105.824 26.6962 106.616 27.1762C107.432 27.6562 108.296 27.8962 109.208 27.8962C110.144 27.8962 111.02 27.6682 111.836 27.2122C112.652 26.7322 113.3 26.0602 113.78 25.1962C114.26 24.3082 114.5 23.2522 114.5 22.0282Z" fill="#18063C"/>
<path d="M132.814 32.2522C131.062 32.2522 129.478 31.9522 128.062 31.3522C126.67 30.7522 125.566 29.8882 124.75 28.7602C123.934 27.6322 123.514 26.3002 123.49 24.7642H128.89C128.962 25.7962 129.322 26.6122 129.97 27.2122C130.642 27.8122 131.554 28.1122 132.706 28.1122C133.882 28.1122 134.806 27.8362 135.478 27.2842C136.15 26.7082 136.486 25.9642 136.486 25.0522C136.486 24.3082 136.258 23.6962 135.802 23.2162C135.346 22.7362 134.77 22.3642 134.074 22.1002C133.402 21.8122 132.466 21.5002 131.266 21.1642C129.634 20.6842 128.302 20.2162 127.27 19.7602C126.262 19.2802 125.386 18.5722 124.642 17.6362C123.922 16.6762 123.562 15.4042 123.562 13.8202C123.562 12.3322 123.934 11.0362 124.678 9.93221C125.422 8.82821 126.466 7.98821 127.81 7.41221C129.154 6.81221 130.69 6.51221 132.418 6.51221C135.01 6.51221 137.11 7.14821 138.718 8.42021C140.35 9.66821 141.25 11.4202 141.418 13.6762H135.874C135.826 12.8122 135.454 12.1042 134.758 11.5522C134.086 10.9762 133.186 10.6882 132.058 10.6882C131.074 10.6882 130.282 10.9402 129.682 11.4442C129.106 11.9482 128.818 12.6802 128.818 13.6402C128.818 14.3122 129.034 14.8762 129.466 15.3322C129.922 15.7642 130.474 16.1242 131.122 16.4122C131.794 16.6762 132.73 16.9882 133.93 17.3482C135.562 17.8282 136.894 18.3082 137.926 18.7882C138.958 19.2682 139.846 19.9882 140.59 20.9482C141.334 21.9082 141.706 23.1682 141.706 24.7282C141.706 26.0722 141.358 27.3202 140.662 28.4722C139.966 29.6242 138.946 30.5482 137.602 31.2442C136.258 31.9162 134.662 32.2522 132.814 32.2522Z" fill="#18063C"/>
<path d="M151.584 16.1962V25.8442C151.584 26.5162 151.74 27.0082 152.052 27.3202C152.388 27.6082 152.94 27.7522 153.708 27.7522H156.048V32.0002H152.88C148.632 32.0002 146.508 29.9362 146.508 25.8082V16.1962H144.132V12.0562H146.508V7.12421H151.584V12.0562H156.048V16.1962H151.584Z" fill="#18063C"/>
<path d="M168.169 32.3242C166.249 32.3242 164.521 31.9042 162.985 31.0642C161.449 30.2002 160.237 28.9882 159.349 27.4282C158.485 25.8682 158.053 24.0682 158.053 22.0282C158.053 19.9882 158.497 18.1882 159.385 16.6282C160.297 15.0682 161.533 13.8682 163.093 13.0282C164.653 12.1642 166.393 11.7322 168.313 11.7322C170.233 11.7322 171.973 12.1642 173.533 13.0282C175.093 13.8682 176.317 15.0682 177.205 16.6282C178.117 18.1882 178.573 19.9882 178.573 22.0282C178.573 24.0682 178.105 25.8682 177.169 27.4282C176.257 28.9882 175.009 30.2002 173.425 31.0642C171.865 31.9042 170.113 32.3242 168.169 32.3242ZM168.169 27.9322C169.081 27.9322 169.933 27.7162 170.725 27.2842C171.541 26.8282 172.189 26.1562 172.669 25.2682C173.149 24.3802 173.389 23.3002 173.389 22.0282C173.389 20.1322 172.885 18.6802 171.877 17.6722C170.893 16.6402 169.681 16.1242 168.241 16.1242C166.801 16.1242 165.589 16.6402 164.605 17.6722C163.645 18.6802 163.165 20.1322 163.165 22.0282C163.165 23.9242 163.633 25.3882 164.569 26.4202C165.529 27.4282 166.729 27.9322 168.169 27.9322Z" fill="#18063C"/>
<path d="M22.3925 37.0075H11.3048C6.66767 37.0075 2.90625 33.2495 2.90625 28.609V11.3912C2.90625 6.7541 6.66422 2.99268 11.3048 2.99268H24.8163C23.3096 3.14093 21.8513 3.46156 20.4515 3.96492C18.4622 4.68204 16.8452 5.76116 15.6006 7.19885C14.356 8.63653 13.732 10.3604 13.732 12.3738C13.732 14.5286 14.2595 16.28 15.3145 17.6177C16.366 18.9589 17.6382 19.9656 19.1241 20.6345C20.6066 21.3068 22.5236 21.9756 24.8714 22.6479C26.7883 23.2237 28.2846 23.727 29.3638 24.158C30.4394 24.589 31.3393 25.1889 32.0598 25.9542C32.777 26.7196 33.1355 27.7022 33.1355 28.8986C33.1355 30.6707 32.5011 32.0497 31.2324 33.0289C29.9637 34.0115 28.2019 34.501 25.9506 34.501C23.4579 34.501 21.5548 34.0804 20.2377 33.2426C18.9207 32.4048 18.2622 31.2671 18.2622 29.8294C18.2622 28.7779 18.538 27.9608 19.0897 27.385C19.6413 26.8093 19.9171 26.499 19.9171 26.4507C19.9171 26.2128 19.6172 25.8749 19.0173 25.444C18.4174 25.013 17.7347 24.7958 16.9693 24.7958C15.6282 24.7958 14.5387 25.2268 13.7009 26.0887C12.8632 26.9506 12.4425 28.078 12.4425 29.4674C12.4425 31.9118 13.6389 33.8046 16.035 35.1423C17.7727 36.1249 19.8964 36.7386 22.3925 37.0075Z" fill="#FA865F"/>
<path d="M28.8399 0H11.1567C5.00603 0 0 5.00603 0 11.1567V28.8399C0 34.994 5.00603 39.9966 11.1567 39.9966H28.8399C34.994 39.9966 40 34.9905 40 28.8399V11.1567C40 5.00603 34.994 0 28.8399 0ZM39.045 28.8399C39.045 34.4734 34.4768 39.0415 28.8433 39.0415H11.1567C5.52319 39.0415 0.955008 34.4734 0.955008 28.8399V11.1567C0.955008 5.52319 5.52319 0.955008 11.1567 0.955008H28.8399C31.2429 0.955008 33.4494 1.79279 35.1939 3.18911C37.1798 5.10602 38.4899 8.31926 37.0074 11.5359C36.8109 12.0772 36.5178 12.5737 36.1283 13.0219C35.3387 13.9321 34.2941 14.3872 33.0012 14.3872C32.2324 14.3872 31.5532 14.17 30.9533 13.739C30.3534 13.3081 30.0534 12.9736 30.0534 12.7323C30.0534 12.684 30.2465 12.4944 30.6292 12.1565C31.0119 11.8221 31.3601 11.4256 31.6739 10.9705C31.9841 10.5154 32.1427 9.97759 32.1427 9.35356C32.0462 8.06068 31.398 7.05396 30.2017 6.33684C29.0019 5.61972 27.5883 5.25771 25.961 5.25771C24.1407 5.25771 22.5478 5.67833 21.1826 6.51612C19.8173 7.3539 19.1346 8.51577 19.1346 10.0017C19.1346 11.3429 19.4208 12.4082 19.9966 13.1977C20.5723 13.9872 21.4342 14.6251 22.5823 15.1008C23.7304 15.5801 25.5508 16.2282 28.0434 17.0419C30.5809 17.8555 32.5702 18.6106 34.0079 19.307C35.2284 19.8966 36.2179 20.6689 37.0074 21.6032C37.0178 21.617 37.0281 21.6273 37.0384 21.6411C38.3761 23.2512 39.045 25.3094 39.045 27.4022V28.8399V28.8399Z" fill="#FA865F"/>
</svg>
