<svg width="196" height="44" viewBox="0 0 196 44" fill="none" xmlns="http://www.w3.org/2000/svg">
<path d="M69.0906 35.4776C67.174 35.4776 65.4412 35.1476 63.8922 34.4876C62.3694 33.8276 61.1617 32.8772 60.269 31.6364C59.3763 30.3956 58.9169 28.9304 58.8906 27.2408H64.798C64.8767 28.376 65.2705 29.2736 65.9794 29.9336C66.7146 30.5936 67.7122 30.9236 68.9725 30.9236C70.259 30.9236 71.2698 30.62 72.0049 30.0128C72.74 29.3792 73.1076 28.5608 73.1076 27.5576C73.1076 26.7392 72.8582 26.066 72.3593 25.538C71.8605 25.01 71.2304 24.6008 70.469 24.3104C69.7339 23.9936 68.7099 23.6504 67.3972 23.2808C65.6119 22.7528 64.1547 22.238 63.0258 21.7364C61.9231 21.2084 60.9648 20.4296 60.1509 19.4C59.3632 18.344 58.9694 16.9448 58.9694 15.2024C58.9694 13.5656 59.3763 12.14 60.1902 10.9256C61.0041 9.71117 62.1462 8.78717 63.6165 8.15357C65.0868 7.49357 66.7671 7.16357 68.6574 7.16357C71.4929 7.16357 73.7902 7.86317 75.5493 9.26237C77.3346 10.6352 78.3192 12.5624 78.503 15.044H72.4381C72.3856 14.0936 71.9786 13.3148 71.2173 12.7076C70.4821 12.074 69.4976 11.7572 68.2636 11.7572C67.1871 11.7572 66.3207 12.0344 65.6644 12.5888C65.0342 13.1432 64.7192 13.9484 64.7192 15.0044C64.7192 15.7436 64.9555 16.364 65.4281 16.8656C65.9269 17.3408 66.5308 17.7368 67.2397 18.0536C67.9748 18.344 68.9987 18.6872 70.3115 19.0832C72.0968 19.6112 73.5539 20.1392 74.6829 20.6672C75.8118 21.1952 76.7833 21.9872 77.5972 23.0432C78.4111 24.0992 78.818 25.4852 78.818 27.2012C78.818 28.6796 78.4373 30.0524 77.6759 31.3196C76.9145 32.5868 75.7987 33.6032 74.3284 34.3688C72.8582 35.108 71.1122 35.4776 69.0906 35.4776Z" fill="#18063C"/>
<path d="M81.7864 24.152C81.7864 21.9344 82.2196 19.9676 83.0861 18.2516C83.9787 16.5356 85.1733 15.2156 86.6698 14.2916C88.1926 13.3676 89.8861 12.9056 91.7501 12.9056C93.3779 12.9056 94.7957 13.2356 96.0034 13.8956C97.2374 14.5556 98.2219 15.3872 98.9571 16.3904V13.262H104.51V35.2004H98.9571V31.9928C98.2482 33.0224 97.2636 33.8804 96.0034 34.5668C94.7694 35.2268 93.3386 35.5568 91.7108 35.5568C89.8729 35.5568 88.1926 35.0816 86.6698 34.1312C85.1733 33.1808 83.9787 31.8476 83.0861 30.1316C82.2196 28.3892 81.7864 26.396 81.7864 24.152ZM98.9571 24.2312C98.9571 22.8848 98.6945 21.7364 98.1694 20.786C97.6443 19.8092 96.9355 19.07 96.0428 18.5684C95.1501 18.0404 94.1918 17.7764 93.1679 17.7764C92.144 17.7764 91.1988 18.0272 90.3324 18.5288C89.466 19.0304 88.7571 19.7696 88.2057 20.7464C87.6806 21.6968 87.4181 22.832 87.4181 24.152C87.4181 25.472 87.6806 26.6336 88.2057 27.6368C88.7571 28.6136 89.466 29.366 90.3324 29.894C91.225 30.422 92.1702 30.686 93.1679 30.686C94.1918 30.686 95.1501 30.4352 96.0428 29.9336C96.9355 29.4056 97.6443 28.6664 98.1694 27.716C98.6945 26.7392 98.9571 25.5776 98.9571 24.2312Z" fill="#18063C"/>
<path d="M108.083 24.152C108.083 21.9344 108.516 19.9676 109.383 18.2516C110.276 16.5356 111.47 15.2156 112.967 14.2916C114.489 13.3676 116.183 12.9056 118.047 12.9056C119.675 12.9056 121.093 13.2356 122.3 13.8956C123.534 14.5556 124.519 15.3872 125.254 16.3904V13.262H130.807V35.2004H125.254V31.9928C124.545 33.0224 123.56 33.8804 122.3 34.5668C121.066 35.2268 119.635 35.5568 118.008 35.5568C116.17 35.5568 114.489 35.0816 112.967 34.1312C111.47 33.1808 110.276 31.8476 109.383 30.1316C108.516 28.3892 108.083 26.396 108.083 24.152ZM125.254 24.2312C125.254 22.8848 124.991 21.7364 124.466 20.786C123.941 19.8092 123.232 19.07 122.34 18.5684C121.447 18.0404 120.489 17.7764 119.465 17.7764C118.441 17.7764 117.496 18.0272 116.629 18.5288C115.763 19.0304 115.054 19.7696 114.503 20.7464C113.977 21.6968 113.715 22.832 113.715 24.152C113.715 25.472 113.977 26.6336 114.503 27.6368C115.054 28.6136 115.763 29.366 116.629 29.894C117.522 30.422 118.467 30.686 119.465 30.686C120.489 30.686 121.447 30.4352 122.34 29.9336C123.232 29.4056 123.941 28.6664 124.466 27.716C124.991 26.7392 125.254 25.5776 125.254 24.2312Z" fill="#18063C"/>
<path d="M145.289 35.4776C143.372 35.4776 141.64 35.1476 140.091 34.4876C138.568 33.8276 137.36 32.8772 136.467 31.6364C135.575 30.3956 135.115 28.9304 135.089 27.2408H140.996C141.075 28.376 141.469 29.2736 142.178 29.9336C142.913 30.5936 143.911 30.9236 145.171 30.9236C146.457 30.9236 147.468 30.62 148.203 30.0128C148.938 29.3792 149.306 28.5608 149.306 27.5576C149.306 26.7392 149.057 26.066 148.558 25.538C148.059 25.01 147.429 24.6008 146.667 24.3104C145.932 23.9936 144.908 23.6504 143.596 23.2808C141.81 22.7528 140.353 22.238 139.224 21.7364C138.121 21.2084 137.163 20.4296 136.349 19.4C135.562 18.344 135.168 16.9448 135.168 15.2024C135.168 13.5656 135.575 12.14 136.389 10.9256C137.203 9.71117 138.345 8.78717 139.815 8.15357C141.285 7.49357 142.965 7.16357 144.856 7.16357C147.691 7.16357 149.989 7.86317 151.748 9.26237C153.533 10.6352 154.518 12.5624 154.701 15.044H148.636C148.584 14.0936 148.177 13.3148 147.416 12.7076C146.681 12.074 145.696 11.7572 144.462 11.7572C143.386 11.7572 142.519 12.0344 141.863 12.5888C141.233 13.1432 140.918 13.9484 140.918 15.0044C140.918 15.7436 141.154 16.364 141.626 16.8656C142.125 17.3408 142.729 17.7368 143.438 18.0536C144.173 18.344 145.197 18.6872 146.51 19.0832C148.295 19.6112 149.752 20.1392 150.881 20.6672C152.01 21.1952 152.982 21.9872 153.796 23.0432C154.609 24.0992 155.016 25.4852 155.016 27.2012C155.016 28.6796 154.636 30.0524 153.874 31.3196C153.113 32.5868 151.997 33.6032 150.527 34.3688C149.057 35.108 147.311 35.4776 145.289 35.4776Z" fill="#18063C"/>
<path d="M165.822 17.816V28.4288C165.822 29.168 165.993 29.7092 166.334 30.0524C166.701 30.3692 167.305 30.5276 168.145 30.5276H170.705V35.2004H167.24C162.593 35.2004 160.269 32.93 160.269 28.3892V17.816H157.67V13.262H160.269V7.83677H165.822V13.262H170.705V17.816H165.822Z" fill="#18063C"/>
<path d="M183.965 35.5568C181.865 35.5568 179.974 35.0948 178.294 34.1708C176.614 33.2204 175.288 31.8872 174.316 30.1712C173.371 28.4552 172.899 26.4752 172.899 24.2312C172.899 21.9872 173.384 20.0072 174.356 18.2912C175.354 16.5752 176.706 15.2552 178.412 14.3312C180.119 13.3808 182.022 12.9056 184.123 12.9056C186.223 12.9056 188.126 13.3808 189.833 14.3312C191.54 15.2552 192.879 16.5752 193.85 18.2912C194.848 20.0072 195.347 21.9872 195.347 24.2312C195.347 26.4752 194.835 28.4552 193.811 30.1712C192.813 31.8872 191.448 33.2204 189.715 34.1708C188.008 35.0948 186.092 35.5568 183.965 35.5568ZM183.965 30.7256C184.963 30.7256 185.895 30.488 186.761 30.0128C187.654 29.5112 188.363 28.772 188.888 27.7952C189.413 26.8184 189.675 25.6304 189.675 24.2312C189.675 22.1456 189.124 20.5484 188.021 19.4396C186.945 18.3044 185.619 17.7368 184.044 17.7368C182.469 17.7368 181.143 18.3044 180.066 19.4396C179.016 20.5484 178.491 22.1456 178.491 24.2312C178.491 26.3168 179.003 27.9272 180.027 29.0624C181.077 30.1712 182.39 30.7256 183.965 30.7256Z" fill="#18063C"/>
<path d="M24.4967 40.7083H12.3673C7.29449 40.7083 3.17969 36.5745 3.17969 31.4699V12.5304C3.17969 7.42956 7.29072 3.29199 12.3673 3.29199H27.1481C25.5 3.45507 23.9046 3.80777 22.3733 4.36146C20.1971 5.15029 18.4282 6.33733 17.0667 7.91878C15.7051 9.50023 15.0225 11.3965 15.0225 13.6112C15.0225 15.9815 15.5995 17.9081 16.7536 19.3796C17.904 20.8548 19.2957 21.9622 20.9212 22.698C22.543 23.4375 24.64 24.1732 27.2085 24.9127C29.3055 25.5461 30.9424 26.0998 32.1229 26.5738C33.2996 27.0479 34.284 27.7078 35.0723 28.5497C35.8567 29.3916 36.249 30.4725 36.249 31.7885C36.249 33.7378 35.555 35.2548 34.1671 36.3318C32.7791 37.4127 30.8518 37.9512 28.389 37.9512C25.6621 37.9512 23.5802 37.4885 22.1395 36.5669C20.6987 35.6454 19.9783 34.3939 19.9783 32.8124C19.9783 31.6557 20.2801 30.7569 20.8835 30.1236C21.487 29.4902 21.7887 29.1489 21.7887 29.0958C21.7887 28.8341 21.4606 28.4625 20.8043 27.9884C20.1481 27.5144 19.4013 27.2754 18.564 27.2754C17.0969 27.2754 15.905 27.7495 14.9885 28.6976C14.072 29.6457 13.6119 30.8859 13.6119 32.4142C13.6119 35.1031 14.9206 37.1851 17.5419 38.6566C19.4428 39.7374 21.7661 40.4125 24.4967 40.7083Z" fill="#5BC17F"/>
<path d="M31.5494 0H12.2049C5.47635 0 0 5.50664 0 12.2724V31.7238C0 38.4934 5.47635 43.9962 12.2049 43.9962H31.5494C38.2816 43.9962 43.758 38.4896 43.758 31.7238V12.2724C43.758 5.50664 38.2816 0 31.5494 0ZM42.7133 31.7238C42.7133 37.9207 37.7159 42.9457 31.5531 42.9457H12.2049C6.04209 42.9457 1.04473 37.9207 1.04473 31.7238V12.2724C1.04473 6.0755 6.04209 1.05051 12.2049 1.05051H31.5494C34.1782 1.05051 36.592 1.97207 38.5004 3.50802C40.6728 5.61662 42.106 9.15118 40.4842 12.6895C40.2693 13.285 39.9487 13.8311 39.5225 14.3241C38.6588 15.3253 37.516 15.8259 36.1017 15.8259C35.2606 15.8259 34.5176 15.587 33.8613 15.1129C33.2051 14.6389 32.877 14.271 32.877 14.0055C32.877 13.9524 33.0882 13.7438 33.5068 13.3722C33.9255 13.0043 34.3064 12.5682 34.6496 12.0676C34.989 11.567 35.1625 10.9753 35.1625 10.2889C35.0569 8.86675 34.3479 7.75935 33.0391 6.97052C31.7266 6.18169 30.1803 5.78349 28.4001 5.78349C26.4087 5.78349 24.6662 6.24616 23.1727 7.16773C21.6791 8.0893 20.9323 9.36735 20.9323 11.0019C20.9323 12.4772 21.2454 13.649 21.8752 14.5175C22.5051 15.386 23.448 16.0876 24.7039 16.6109C25.9599 17.1381 27.9513 17.8511 30.6781 18.7461C33.454 19.6411 35.6302 20.4716 37.203 21.2377C38.5381 21.8862 39.6206 22.7357 40.4842 23.7635C40.4956 23.7787 40.5069 23.79 40.5182 23.8052C41.9816 25.5763 42.7133 27.8404 42.7133 30.1424V31.7238V31.7238Z" fill="#5BC17F"/>
</svg>
