<svg width="34" height="35" viewBox="0 0 34 35" fill="none" xmlns="http://www.w3.org/2000/svg">
<path d="M18.609 31.546H9.39626C5.5433 31.546 2.41797 28.3427 2.41797 24.387V9.71032C2.41797 5.75756 5.54044 2.55127 9.39626 2.55127H20.6228C19.371 2.67764 18.1592 2.95095 16.9962 3.38003C15.3433 3.99131 13.9998 4.91117 12.9656 6.13667C11.9315 7.36217 11.413 8.8316 11.413 10.5479C11.413 12.3847 11.8513 13.8776 12.7279 15.0179C13.6016 16.1611 14.6586 17.0192 15.8933 17.5894C17.1251 18.1625 18.7178 18.7326 20.6687 19.3057C22.2614 19.7965 23.5047 20.2255 24.4013 20.5929C25.2951 20.9602 26.0428 21.4716 26.6415 22.124C27.2373 22.7765 27.5352 23.614 27.5352 24.6338C27.5352 26.1444 27.0081 27.3199 25.954 28.1546C24.8998 28.9921 23.4359 29.4095 21.5653 29.4095C19.4942 29.4095 17.9129 29.0509 16.8186 28.3368C15.7243 27.6226 15.1771 26.6528 15.1771 25.4273C15.1771 24.531 15.4063 23.8344 15.8646 23.3437C16.323 22.8529 16.5522 22.5884 16.5522 22.5472C16.5522 22.3445 16.3029 22.0564 15.8045 21.6891C15.306 21.3217 14.7388 21.1366 14.1029 21.1366C12.9885 21.1366 12.0833 21.5039 11.3872 22.2387C10.6911 22.9734 10.3416 23.9344 10.3416 25.1187C10.3416 27.2024 11.3356 28.8158 13.3266 29.9561C14.7703 30.7937 16.535 31.3168 18.609 31.546Z" fill="#8976FD"/>
<path d="M23.9628 0H9.27002C4.15948 0 0 4.26722 0 9.51013V24.5835C0 29.8294 4.15948 34.0936 9.27002 34.0936H23.9628C29.0762 34.0936 33.2357 29.8264 33.2357 24.5835V9.51013C33.2357 4.26722 29.0762 0 23.9628 0ZM32.4422 24.5835C32.4422 29.3856 28.6465 33.2796 23.9657 33.2796H9.27002C4.58917 33.2796 0.793509 29.3856 0.793509 24.5835V9.51013C0.793509 4.70804 4.58917 0.814062 9.27002 0.814062H23.9628C25.9595 0.814062 27.7929 1.5282 29.2424 2.71844C30.8924 4.35244 31.981 7.09145 30.7492 9.8334C30.5859 10.2948 30.3424 10.718 30.0187 11.1C29.3627 11.8759 28.4947 12.2638 27.4205 12.2638C26.7816 12.2638 26.2173 12.0787 25.7189 11.7113C25.2204 11.344 24.9712 11.0589 24.9712 10.8532C24.9712 10.812 25.1316 10.6504 25.4496 10.3624C25.7675 10.0773 26.0569 9.73936 26.3176 9.35143C26.5754 8.9635 26.7072 8.50504 26.7072 7.97311C26.6269 6.87104 26.0884 6.01289 25.0944 5.40161C24.0975 4.79033 22.923 4.48175 21.5708 4.48175C20.0583 4.48175 18.7348 4.84029 17.6004 5.55443C16.466 6.26857 15.8988 7.25897 15.8988 8.52561C15.8988 9.66883 16.1366 10.5769 16.615 11.2499C17.0934 11.9229 17.8095 12.4666 18.7635 12.8722C19.7174 13.2807 21.2299 13.8332 23.3011 14.5268C25.4095 15.2203 27.0624 15.8639 28.2569 16.4576C29.271 16.9601 30.0932 17.6184 30.7492 18.4149C30.7578 18.4266 30.7664 18.4354 30.775 18.4472C31.8864 19.8196 32.4422 21.5741 32.4422 23.358V24.5835V24.5835Z" fill="#8976FD"/>
</svg>
