<svg xmlns="http://www.w3.org/2000/svg" width="132" height="132" viewBox="0 0 132 132" fill="none"><path d="M52.7927 103.389C52.7927 103.389 53.2999 105.498 52.5865 108.351C51.8731 111.205 49.9868 115.134 44.8221 119.266C44.2326 119.729 43.9834 120.363 43.9884 120.989H87.9969C88.0013 120.362 87.7483 119.729 87.159 119.266C81.9943 115.134 80.1123 111.205 79.3989 108.351C78.6855 105.498 79.1927 103.389 79.1927 103.389H52.7927Z" fill="#FCA61F"></path><path d="M6.59351 13.1832C2.97518 13.1832 0 16.1749 0 19.7932V98.9964C0 102.615 2.97518 105.59 6.59351 105.59H125.39C129.009 105.59 132 102.615 132 98.9964V19.7932C132 16.1748 129.009 13.1832 125.39 13.1832H6.59351Z" fill="#FDBA09"></path><path opacity="0.9" d="M6.59558 17.5843H125.392C126.649 17.5843 127.601 18.5363 127.601 19.7932V83.5886H4.38696V19.7932C4.38696 18.5363 5.33869 17.5843 6.59558 17.5843Z" fill="#F4F4F4"></path><path d="M41.7888 118.793C38.1705 118.793 35.1953 121.768 35.1953 125.386V129.787C35.1942 130.076 35.25 130.363 35.3596 130.63C35.4692 130.898 35.6304 131.141 35.834 131.346C36.0376 131.551 36.2796 131.714 36.5462 131.826C36.8128 131.937 37.0988 131.995 37.3878 131.996H94.6018C94.8908 131.995 95.1768 131.937 95.4434 131.826C95.71 131.714 95.952 131.551 96.1556 131.346C96.3592 131.141 96.5204 130.898 96.63 130.63C96.7396 130.363 96.7954 130.076 96.7943 129.787V125.386C96.7943 121.768 93.8191 118.793 90.2008 118.793H41.7888Z" fill="#FDBA09"></path><path d="M61.599 92.3864C61.0154 92.3864 60.4556 92.6183 60.043 93.0309C59.6303 93.4436 59.3984 94.0033 59.3984 94.587C59.3984 95.1706 59.6303 95.7303 60.043 96.143C60.4556 96.5556 61.0154 96.7875 61.599 96.7875H70.385C70.9686 96.7875 71.5283 96.5556 71.941 96.143C72.3537 95.7303 72.5855 95.1706 72.5855 94.587C72.5855 94.0033 72.3537 93.4436 71.941 93.0309C71.5283 92.6183 70.9686 92.3864 70.385 92.3864H61.599Z" fill="#DBE9EE"></path><path d="M79.1418 32.9875C78.8066 41.0675 76.7012 47.083 74.9609 50.7768C83.0002 51.8565 86.034 58.1846 86.034 58.1846C87.0776 60.2546 90.2044 59.5163 90.2062 57.1962C90.2062 48.0296 87.8827 42.0515 85.4324 38.3759C82.9821 34.7005 80.1859 33.2283 80.1859 33.2283C79.8635 33.062 79.5045 32.9817 79.1418 32.9875Z" fill="#EB5757"></path><path d="M52.8379 32.9875C53.173 41.0675 55.2785 47.083 57.0187 50.7768C48.9794 51.8565 45.9457 58.1846 45.9457 58.1846C44.902 60.2546 41.7753 59.5163 41.7734 57.1962C41.7734 48.0296 44.0969 42.0515 46.5472 38.3759C48.9976 34.7005 51.7937 33.2283 51.7937 33.2283C52.1163 33.062 52.4755 32.9817 52.8379 32.9875Z" fill="#EB5757"></path><path d="M65.993 0.000468133C65.4832 0.00133598 64.9897 0.179281 64.5965 0.503659C64.5965 0.503659 50.6016 12.0923 50.6016 30.7923C50.6016 46.8208 57.6484 56.3201 57.6484 56.3201C57.853 56.5917 58.1178 56.8122 58.422 56.9643C58.7262 57.1164 59.0615 57.1958 59.4016 57.1965H72.6058C72.9459 57.1958 73.2812 57.1164 73.5854 56.9643C73.8896 56.8122 74.1544 56.5917 74.359 56.3201C74.359 56.3201 81.4058 46.8208 81.4058 30.7923C81.4058 12.0923 67.4066 0.503659 67.4066 0.503659C67.0089 0.175506 66.5086 -0.00267513 65.993 0.000468133Z" fill="#FCA61F"></path><path d="M65.9898 24.1961C62.3708 24.1961 59.3984 27.1728 59.3984 30.7919C59.3984 34.4109 62.3708 37.4004 65.9898 37.4004C69.6089 37.4004 72.6027 34.4109 72.6027 30.7919C72.6027 27.1728 69.6089 24.1961 65.9898 24.1961Z" fill="#FCE8D1"></path><path d="M24.4104 83.5875H107.594C106.533 77.3685 101.101 72.5919 94.5912 72.5919C92.6496 72.5963 90.7659 73.0658 89.0311 73.881C86.9584 69.1972 82.3049 66.0048 77.0041 66.0004C72.421 66.0004 68.3693 68.3648 65.9999 71.9344C63.6303 68.3657 59.5824 66.0004 54.9999 66.0004C49.6991 66.0048 45.0456 69.1972 42.9729 73.881C41.238 73.0661 39.3544 72.5955 37.4041 72.5919C30.8856 72.5919 25.4683 77.3685 24.4104 83.5875Z" fill="#494369"></path><path d="M59.4023 61.5964C58.1924 61.6008 57.2134 62.5821 57.2109 63.7921C57.2109 73.692 64.7777 78.831 64.7777 78.831C65.1403 79.0729 65.5665 79.201 66.0023 79.2002C66.4381 79.201 66.8687 79.0721 67.2313 78.831C67.2313 78.831 74.7982 73.692 74.7982 63.7921C74.796 62.5821 73.8167 61.6012 72.6067 61.5964C68.2053 61.6029 63.8038 61.5985 59.4023 61.5964Z" fill="#EB5757"></path><path d="M65.9898 0.000416767C65.4801 0.00128461 64.9865 0.17923 64.5934 0.503608C64.5934 0.503608 59.0404 5.11267 54.9297 13.1966H77.0715C72.9595 5.11225 67.4035 0.5031 67.4035 0.5031C67.0058 0.174948 66.5054 -0.0027265 65.9898 0.000416767Z" fill="#EB5757"></path></svg>