<svg xmlns="http://www.w3.org/2000/svg" width="257" height="235" viewBox="0 0 257 235" fill="none"><g opacity="0.3"><g opacity="0.1"><path d="M239.569 143.603C239.507 143.762 239.409 143.897 239.323 144.057L239.299 144.106C238.538 145.198 237.593 146.228 236.477 147.124C234.244 148.915 231.3 150.277 227.705 151.062C225.423 151.553 222.871 151.847 220.074 151.872C202.383 152.056 179.907 142.265 164.13 128.525C160.302 125.188 156.879 121.63 154.008 117.912C153.824 117.692 153.652 117.471 153.468 117.213C151.922 115.152 150.597 113.14 149.53 111.189L150.156 110.895C150.671 110.674 151.248 110.441 151.837 110.196C151.996 110.147 152.156 110.085 152.291 109.999C154.462 109.153 156.192 107.153 157.345 104.061C157.591 103.387 157.811 102.651 158.02 101.865C158.044 101.816 158.044 101.779 158.069 101.73C158.228 101.019 158.388 100.27 158.511 99.473C158.695 98.2829 158.83 97.0315 158.916 95.6697C159.1 92.5167 158.965 89.0202 158.535 85.352C158.094 81.2052 157.284 76.8254 156.167 72.2983C155.493 69.5624 154.707 66.7652 153.836 63.968C150.205 52.4847 144.905 40.7683 138.697 31.0762C137.348 28.9906 135.961 27.0031 134.55 25.126C134.195 24.6352 133.839 24.169 133.471 23.7151C130.894 20.4517 128.392 17.8017 126.011 15.7651C122.564 12.833 119.386 11.1767 116.614 10.7964C115.669 10.686 114.798 10.7105 113.976 10.8577H113.915C113.179 11.1522 112.455 11.4344 111.743 11.7043C111.854 11.6429 111.964 11.5693 112.099 11.508C112.185 11.4589 112.295 11.4221 112.393 11.373L112.099 11.4834C110.774 12.0233 109.474 12.5631 108.247 13.0906L107.511 13.4096C107.486 13.4096 107.486 13.4096 107.486 13.4341H107.425C104.959 14.526 101.732 16.1209 99.2539 17.2864C99.6342 17.1024 100.064 16.992 100.505 16.9674C101.205 16.9061 101.978 17.0165 102.836 17.2864C105.192 18.0225 108.099 20.0591 111.387 23.3716C113.718 25.6781 116.221 28.6102 118.908 32.1436C119.067 32.3399 119.202 32.573 119.35 32.7692C121.055 35.0512 122.736 37.4681 124.392 39.9954C129.79 48.3257 134.869 57.8338 139.041 67.2191C140.317 70.1268 141.531 73.0344 142.623 75.9052C144.5 80.7881 146.07 85.4869 147.236 89.879C148.193 93.5228 148.917 96.9334 149.272 100.001C149.432 101.276 149.518 102.442 149.567 103.534C149.616 105.08 149.542 106.441 149.371 107.607C148.99 110.208 148.046 111.84 146.635 112.527C146.635 112.551 146.61 112.551 146.586 112.551C146.524 112.6 146.451 112.637 146.389 112.662C147.69 115.128 149.346 117.741 151.407 120.452V120.464V120.477C151.653 120.808 151.922 121.151 152.168 121.458C166.964 140.45 194.592 157.822 214.565 160.545C216.602 160.84 218.479 160.95 220.209 160.901C223.301 160.84 225.852 160.276 227.889 159.27C229.165 158.644 230.244 157.834 231.091 156.877C231.275 156.681 231.447 156.448 231.606 156.227C231.631 156.202 231.655 156.166 231.668 156.141L232.367 155.135C232.391 155.111 232.416 155.086 232.428 155.074C232.539 154.939 232.625 154.755 232.723 154.632C232.747 154.608 232.772 154.608 232.772 154.583C233.348 153.749 233.986 152.816 234.612 151.872C235.348 150.731 236.109 149.516 236.833 148.314L237.458 147.357C237.544 147.173 237.655 147.026 237.753 146.866C237.863 146.682 237.949 146.535 238.072 146.375L238.882 144.94C239.127 144.535 239.348 144.13 239.581 143.75C239.826 143.345 240.047 142.94 240.28 142.535C240.341 142.425 240.391 142.29 240.464 142.18C240.403 142.265 240.354 142.339 240.305 142.425C240.219 142.572 240.133 142.719 240.047 142.867L240.587 141.922C240.587 141.91 240.599 141.897 240.599 141.885C240.378 142.265 240.17 142.646 239.949 143.038C239.777 143.235 239.667 143.419 239.569 143.603Z" fill="url(#paint0_linear_3269_13201)"></path><path d="M68.8203 36.0683L68.8444 36.0442H68.8203C68.8203 36.0442 68.8203 36.0442 68.8203 36.0683Z" fill="url(#paint1_linear_3269_13201)"></path><path d="M217.956 173.133C217.195 173.758 216.165 174.139 214.864 174.249C213.294 174.384 211.368 174.139 209.049 173.488C207.884 173.157 206.608 172.728 205.246 172.188C197.787 169.231 188.696 163.526 179.605 156.423C174.292 152.276 168.968 147.663 163.999 142.829C157.951 136.99 152.381 130.831 147.878 124.832C145.523 121.703 143.597 118.808 142.124 116.195C141.94 115.9 141.793 115.593 141.609 115.299C141.609 115.274 141.585 115.274 141.585 115.25C140.984 115.63 140.358 116.011 139.818 116.329L139.708 116.391C139.352 116.612 138.971 116.882 138.542 117.127C138.481 117.176 138.407 117.213 138.346 117.237C138.64 117.053 138.787 116.636 138.787 116.011C138.787 115.434 138.653 114.673 138.407 113.729C138.162 112.833 137.806 111.741 137.328 110.477C136.972 109.582 136.567 108.551 136.101 107.459C134.874 104.638 133.303 101.386 131.439 97.8532C128.936 93.0194 125.906 87.6458 122.593 82.0514C116.483 71.7581 109.343 60.7165 102.46 51.0612C100.78 48.7056 99.1235 46.4482 97.5163 44.2767C95.7742 41.9457 94.1302 39.8601 92.6334 38.0321C89.0756 33.6645 86.2293 30.6219 84.2173 28.9411C83.5057 28.3645 82.8677 27.9351 82.3647 27.7143C81.9231 27.4934 81.555 27.4198 81.2851 27.4934C81.2606 27.4934 81.236 27.4934 81.236 27.4934C81.1256 27.5548 81.0152 27.6284 80.917 27.6897C80.9416 27.6652 80.9661 27.6406 80.9784 27.6284C80.8189 27.7388 80.6594 27.8247 80.5122 27.9474C79.3221 28.6835 78.1444 29.4441 77.0893 30.168C76.9543 30.2784 76.7948 30.3642 76.6599 30.4624L76.5004 30.5728C75.249 31.4193 73.8136 32.4499 72.3782 33.4804C72.3536 33.4804 72.3536 33.505 72.3291 33.505C72.1941 33.5909 72.0592 33.689 71.9488 33.7749C71.8138 33.8853 71.6789 33.9712 71.5439 34.0693C71.0532 34.4006 70.587 34.7441 70.1085 35.0753C69.949 35.1858 69.8141 35.2962 69.6791 35.3943C69.5932 35.4802 69.4951 35.5293 69.4092 35.5906C69.3601 35.6397 69.3233 35.6765 69.2742 35.701C69.2497 35.7256 69.2252 35.7256 69.2129 35.7501C69.1638 35.7992 69.127 35.8115 69.078 35.836C69.0166 35.8973 68.943 35.9464 68.8817 35.9955L68.8203 36.0568C68.8694 36.1059 69.1516 36.4862 69.7159 37.1733C70.1453 37.7376 70.7219 38.4737 71.4458 39.4061C73.4578 42.0316 76.574 46.166 80.733 51.6746C81.4078 52.5702 82.0948 53.4903 82.8187 54.4473C86.7323 59.6368 91.0385 65.3785 95.4184 71.2428C98.2156 74.9847 101.062 78.7879 103.859 82.5298C109.797 90.4798 115.526 98.1844 120.311 104.625C122.838 108.048 125.12 111.14 127.022 113.716C127.721 114.661 128.347 115.508 128.875 116.268C129.66 117.323 130.31 118.194 130.825 118.906C131.942 120.476 132.481 121.237 132.481 121.274C131.61 121.924 130.58 122.709 129.746 123.384C129.611 123.494 129.5 123.605 129.365 123.703C129.365 123.727 129.341 123.727 129.316 123.752C129.292 123.776 129.255 123.801 129.23 123.838L129.255 123.862C130.261 125.052 131.365 126.365 132.543 127.85C133.978 129.665 135.536 131.702 137.242 133.935C139.057 136.339 140.922 138.891 142.799 141.517C149.461 150.816 156.417 161.269 162.515 171.035C165.901 176.457 169.017 181.671 171.667 186.37C173.753 190.063 175.556 193.449 176.979 196.345C177.09 196.271 177.188 196.21 177.298 196.136C177.188 196.21 177.09 196.283 176.979 196.345C177.482 197.375 177.924 198.32 178.304 199.179C178.954 200.651 179.433 201.865 179.74 202.847C180.194 204.282 180.279 205.19 180.034 205.558C180.01 205.595 179.985 205.62 179.948 205.644C180.316 205.399 180.684 205.166 181.028 204.932L181.813 204.405L181.899 204.344C184.512 202.54 187.788 200.148 190.56 198.099C191.063 197.731 191.554 197.363 192.02 197.019C192.008 197.019 191.996 197.007 191.971 196.995C191.775 196.884 191.272 196.357 190.487 195.449C189.812 194.676 188.941 193.621 187.898 192.357C187.297 191.621 186.635 190.824 185.923 189.94C183.678 187.168 180.966 183.769 177.961 179.966C171.655 171.979 164.011 162.177 156.491 152.387C156.442 152.325 156.393 152.264 156.356 152.203C150.847 145.05 145.412 137.91 140.603 131.506C139.953 130.635 139.327 129.8 138.751 129.027C136.285 125.764 134.359 123.139 132.813 121.053C133.242 120.734 133.659 120.403 134.113 120.096L135.34 119.2L136.076 118.685C136.125 118.685 136.137 118.661 136.162 118.636L136.346 118.526C136.53 118.415 136.677 118.305 136.837 118.194C136.861 118.194 136.861 118.17 136.886 118.17C137.217 117.949 137.585 117.704 137.941 117.47C139.683 120.403 142.039 123.85 144.995 127.751C146.652 129.972 148.418 132.229 150.295 134.511C160.306 146.755 172.906 159.748 183.972 169.366C188.966 173.685 193.628 177.353 197.603 179.954C198.658 180.653 199.639 181.23 200.535 181.745C202.301 182.727 203.761 183.377 204.951 183.696C206.141 184.027 207.037 184.015 207.614 183.647C207.663 183.622 207.7 183.585 207.749 183.561C207.798 183.512 207.834 183.475 207.884 183.45L207.945 183.389L208.006 183.328L209.393 182.003L209.491 181.905C209.503 181.892 209.528 181.868 209.54 181.855C209.785 181.635 210.031 181.402 210.276 181.156C211.233 180.224 212.263 179.181 213.257 178.15C213.478 177.917 213.711 177.684 213.932 177.463C214.496 176.874 215.048 176.286 215.6 175.697C215.625 175.672 215.662 175.635 215.686 175.599C215.699 175.586 215.723 175.562 215.735 175.549L215.846 175.427C216.324 174.899 216.84 174.335 217.379 173.758C217.33 173.807 217.269 173.869 217.22 173.93C217.269 173.881 217.318 173.82 217.367 173.771C217.527 173.611 217.662 173.452 217.796 173.304C217.846 173.28 217.858 173.243 217.907 173.194C217.993 173.108 218.091 172.998 218.177 172.875C218.091 172.936 218.042 173.01 217.98 173.071C217.993 173.108 217.981 173.133 217.956 173.133Z" fill="url(#paint2_linear_3269_13201)"></path><path d="M218.607 172.483C218.631 172.434 218.668 172.397 218.693 172.348C218.533 172.532 218.362 172.703 218.227 172.887C218.362 172.753 218.472 172.618 218.607 172.483Z" fill="url(#paint3_linear_3269_13201)"></path><path d="M9.54708 185.315C9.65749 185.561 9.76791 185.806 9.87833 186.039C10.0255 186.334 10.1728 186.603 10.3077 186.873C9.86606 185.941 9.43666 184.996 9.01953 184.076C9.19129 184.493 9.36305 184.91 9.54708 185.315Z" fill="url(#paint4_linear_3269_13201)"></path><path d="M108.285 147.369C108.322 147.626 108.346 147.872 108.371 148.129C108.359 147.945 108.334 147.749 108.297 147.491L108.285 147.369Z" fill="url(#paint5_linear_3269_13201)"></path><path d="M256.293 79.9292C256.293 79.8924 256.293 79.8433 256.293 79.8065L256.281 79.6961C256.268 79.4752 256.256 79.2544 256.244 79.0581C256.207 78.5551 256.17 78.0276 256.109 77.4755C256.06 76.9602 256.023 76.4572 255.974 75.9419C255.974 75.9174 255.974 75.8806 255.974 75.856C255.974 75.8806 255.974 75.9051 255.974 75.9296C255.999 76.2486 256.011 76.5431 256.035 76.8498C256.133 78.3833 256.219 79.6593 256.281 80.7757C256.207 79.6593 256.133 78.3833 256.035 76.8498C256.661 88.3822 252.392 104.282 229.437 116.477C229.462 116.796 229.486 117.103 229.523 117.422C229.474 117.103 229.462 116.796 229.413 116.477C225.695 118.293 221.819 119.728 217.88 120.795C212.126 122.317 206.213 123.077 200.422 123.077C184.731 123.077 169.665 117.618 160.01 107.496C160.439 107.386 160.881 107.3 161.286 107.202L161.85 107.092L161.875 107.067C161.899 107.067 161.899 107.067 161.899 107.067C162.034 107.043 162.169 107.018 162.304 107.006C173.456 116.232 189.749 119.458 205.894 116.121C210.617 115.164 215.341 113.631 219.905 111.533C222.395 110.367 224.849 109.042 227.253 107.546C248.699 94.0625 257.728 70.9609 250.159 52.4232C249.508 50.9878 248.969 49.7855 248.453 48.7059C248.404 48.62 248.368 48.5096 248.294 48.3869C247.84 47.4054 247.398 46.5098 246.944 45.6388C246.405 44.6082 245.865 43.5777 245.215 42.4858C244.945 42.0564 244.699 41.6147 244.429 41.1608C243.975 40.4615 243.534 39.7254 243.018 38.9279C246.38 44.6573 248.061 51.086 248.171 57.711C248.257 62.8146 247.435 68.0287 245.754 73.157C242.196 83.9042 234.872 94.222 224.235 102.037C222.26 103.497 220.224 104.81 218.15 106C214.347 108.196 210.409 109.938 206.397 111.263C191.111 116.256 175.235 114.661 163.703 106.785H163.617C164.083 106.699 164.574 106.601 165.052 106.49C176.266 112.183 190.374 111.864 203.588 105.595C206.851 104.024 210.078 102.123 213.169 99.8409C214.875 98.5895 216.555 97.2155 218.163 95.7432C223.978 90.4801 228.615 84.3213 232.038 77.7822C240.295 61.9804 241.325 43.8353 233.891 30.0455C232.995 28.3647 231.965 26.7576 230.799 25.2363C228.738 22.4881 226.382 20.1326 223.794 18.1819C221.512 16.5011 218.31 14.44 215.917 12.8942C215.917 12.8942 215.917 12.8942 215.893 12.8942C215.868 12.8697 215.868 12.8697 215.844 12.8451C214.997 12.3544 214.138 11.8636 213.341 11.4342C212.985 11.238 212.642 11.0539 212.286 10.8699C212.175 10.8086 212.041 10.7349 211.906 10.6736C211.366 10.4037 210.814 10.1093 210.249 9.83934L210.065 9.72893C210.004 9.70439 209.955 9.67985 209.906 9.66758C209.844 9.64305 209.771 9.60624 209.71 9.58171C209.526 9.49583 209.378 9.42221 209.194 9.33634C209.219 9.3486 209.243 9.36087 209.268 9.37314C209.243 9.36087 209.219 9.3486 209.207 9.33634C209.047 9.26272 208.9 9.17685 208.74 9.10323C208.777 9.12777 208.814 9.14004 208.851 9.16458C208.704 9.10323 208.569 9.02962 208.421 8.96828C208.397 8.95601 208.372 8.94374 208.36 8.94374C207.943 8.75972 207.526 8.57569 207.109 8.40393C207.121 8.40393 207.121 8.4162 207.133 8.4162C207.894 8.75972 208.654 9.10323 209.415 9.45902C209.82 9.66758 210.237 9.87615 210.654 10.097H210.666C214.089 11.9986 217.255 14.5504 220.003 17.7525C220.567 18.3782 221.095 19.0284 221.61 19.7032C232.922 34.7444 232.983 57.7232 223.266 76.9479C220.469 82.481 216.862 87.6951 212.494 92.3326H212.47L212.445 92.3572C211.035 93.8784 209.575 95.2402 208.078 96.5407C205.465 98.8226 202.753 100.749 199.956 102.381C188.534 109.079 176.094 110.441 165.543 106.343C169.53 105.202 173.248 102.675 176.425 98.7122C177.677 97.1909 178.818 95.4488 179.897 93.4981C180.609 92.1731 181.283 90.7622 181.934 89.2655C181.872 89.2655 181.799 89.29 181.737 89.29C181.799 89.2655 181.872 89.2655 181.934 89.241C183.369 85.7935 184.461 82.0271 185.222 78.0889C186.093 73.6354 186.547 68.9489 186.608 64.1887C186.633 61.1216 186.522 58.0054 186.228 54.9015C185.111 42.6821 181.529 30.4259 175.812 20.5743C174.622 18.4886 173.321 16.5502 171.935 14.6854C171.469 14.0842 170.99 13.4708 170.524 12.8942C167.862 9.66758 165.065 7.11574 162.194 5.2632C158.636 2.90765 154.98 1.63173 151.422 1.4109C150.502 1.36182 149.582 1.36182 148.686 1.45997C148.392 1.48451 148.109 1.52131 147.815 1.54585L141.767 2.5764L141.583 2.62548C141.472 2.65001 141.337 2.67455 141.227 2.68682C141.092 2.71136 140.957 2.73589 140.847 2.74816C138.54 3.2389 135.743 3.91367 133.461 4.45348C134.467 4.26945 135.498 4.20811 136.553 4.25718C139.865 4.41667 143.398 5.75394 146.981 8.30578C149.508 10.097 152.06 12.5139 154.575 15.5197C155.201 16.2558 155.826 17.0409 156.428 17.8752C157.348 19.0652 158.219 20.3412 159.065 21.6416C165.85 32.0576 170.684 45.4179 172.941 58.6311C173.456 61.6123 173.837 64.5813 174.057 67.5135C174.413 72.0405 174.462 76.4204 174.119 80.6162C173.824 84.3581 173.248 87.9405 172.352 91.2039V91.2284C171.947 92.6884 171.506 94.0502 170.99 95.3261C170.254 97.2032 169.42 98.884 168.487 100.368C166.046 104.245 162.954 106.662 159.482 107.619L159.421 107.644C159.36 107.668 159.311 107.668 159.237 107.693C158.881 107.779 158.501 107.889 158.096 108.012C158.072 108.036 158.047 108.036 158.047 108.036C165.703 117.348 177.566 123.728 190.693 126.513C197.588 127.973 204.802 128.439 211.942 127.789C217.942 127.224 223.88 125.887 229.474 123.715C245.374 117.017 254.06 107.055 256.072 93.265C256.097 93.1055 256.121 92.946 256.133 92.7988C256.133 92.7375 256.133 92.6639 256.158 92.6025C256.183 91.8664 256.219 91.1058 256.244 90.2961C256.244 90.0752 256.268 89.8667 256.268 89.6704V89.5109C256.317 88.1859 256.354 87.094 256.379 86.1125C256.354 87.143 256.317 88.284 256.268 89.6581C256.268 89.6458 256.268 89.6336 256.268 89.6213C256.342 88.3208 256.391 87.0572 256.416 85.9162C256.514 84.1005 256.403 81.8308 256.293 79.9292Z" fill="url(#paint6_linear_3269_13201)"></path><path d="M163.954 204.049C163.463 201.031 162.629 197.645 161.562 194.014C160.237 189.622 158.519 184.861 156.507 179.954C154.986 176.31 153.329 172.593 151.538 168.876C147.87 161.281 143.662 153.65 139.221 146.731C137.405 143.909 135.577 141.198 133.737 138.646C133.295 138.02 132.817 137.419 132.375 136.806C129.799 133.358 127.357 130.488 125.149 128.206L124.719 127.776L124.916 127.58C124.315 128.144 123.075 128.022 121.198 127.175C120.278 126.746 119.223 126.169 118.021 125.408C117.174 124.869 116.23 124.243 115.248 123.531H115.224C111.69 120.979 107.617 117.581 103.2 113.594C91.7172 103.178 78.2096 88.787 67.7078 75.6229C66.2969 73.8562 64.9351 72.0896 63.6346 70.3843C59.6964 65.1456 56.7888 60.778 54.8995 57.3797C54.0284 55.7848 53.3782 54.3984 52.9488 53.2329C52.2985 51.4908 52.1881 50.2517 52.593 49.6015C52.6175 49.5524 52.6175 49.5401 52.6421 49.5156C52.6911 49.4665 52.7525 49.4052 52.8261 49.3315C52.7157 49.4174 52.6298 49.5156 52.5071 49.6015L51.0349 51.0123L49.0474 52.8894C48.802 53.1348 48.5321 53.3801 48.2622 53.65C48.2377 53.65 48.2377 53.65 48.2131 53.6746C47.6488 54.2389 47.0967 54.791 46.5569 55.3554C45.4159 56.5209 44.2504 57.7232 43.2199 58.8028C42.9745 59.0973 42.7046 59.3672 42.4347 59.6371C42.3488 59.7229 42.2384 59.8334 42.1402 59.956C42.0789 60.0174 42.0298 60.091 41.9808 60.1523C41.9317 60.1769 41.9194 60.2137 41.8949 60.2382C40.8643 61.6736 40.8643 64.0169 41.9194 67.1576C42.4838 68.8875 43.3794 70.8505 44.5571 73.022C46.1643 75.9296 48.3236 79.2176 51.0717 82.8736C54.6786 87.6828 58.9481 92.6393 63.6101 97.4731C70.3209 104.478 77.8047 111.238 85.1535 116.992C93.1403 123.261 101.004 128.341 107.494 131.211H107.519C108.844 131.788 110.022 132.266 111.163 132.647C112.794 133.187 114.23 133.493 115.481 133.604C117.604 133.8 119.125 133.383 120.045 132.389L120.07 132.365C120.131 132.316 120.18 132.254 120.229 132.205C120.315 132.119 120.413 132.021 120.499 131.935L121.149 131.26L121.849 130.549C123.799 132.426 125.836 134.708 127.934 137.395C128.204 137.75 128.474 138.106 128.768 138.487C130.203 140.413 131.614 142.449 133.001 144.572C139.159 154.104 144.508 165.551 148.336 176.764C149.281 179.537 150.127 182.297 150.864 185.009C152.115 189.646 153.084 194.161 153.661 198.369C154.176 202.001 154.397 205.423 154.336 208.54C154.311 209.791 154.225 210.981 154.09 212.073C153.894 213.913 153.55 215.496 153.084 216.87C152.213 219.495 150.888 221.287 149.207 222.219C149.146 222.243 149.072 222.28 149.011 222.305C148.68 222.44 148.312 222.599 147.956 222.734C148.152 222.673 148.385 222.599 148.582 222.538L151.048 221.458H151.072C151.072 221.458 151.072 221.434 151.097 221.434C153.967 220.158 157.562 218.391 160.617 216.894C161.132 216.649 161.598 216.428 162.077 216.195C162.236 216.109 162.371 216.011 162.531 215.901C163.512 215.14 164.138 213.729 164.383 211.644C164.518 210.429 164.518 209.006 164.383 207.325C164.273 206.331 164.138 205.239 163.954 204.049Z" fill="url(#paint7_linear_3269_13201)"></path><path d="M140.59 180.702C138.148 167.98 133.351 155.098 126.849 144.878C125.831 143.283 124.776 141.75 123.684 140.29C123.635 140.302 123.573 140.314 123.524 140.327C123.475 140.339 123.426 140.351 123.377 140.364C123.475 140.339 123.586 140.302 123.684 140.278C123.132 139.542 122.58 138.855 122.028 138.18C120.825 136.72 119.623 135.407 118.421 134.217C118.212 134.45 118.016 134.683 117.832 134.904C117.82 134.929 117.795 134.941 117.783 134.965C117.746 135.002 117.721 135.039 117.685 135.076C117.672 135.088 117.66 135.113 117.636 135.125C117.611 135.149 117.586 135.186 117.562 135.211C117.537 135.235 117.525 135.26 117.501 135.284C117.488 135.297 117.488 135.309 117.476 135.309C117.12 135.738 116.74 136.217 116.372 136.683C117.071 137.419 117.77 138.204 118.47 139.026C119.022 139.689 119.562 140.364 120.102 141.075C120.2 141.063 120.31 141.038 120.408 141.026C120.371 141.038 120.335 141.038 120.298 141.051C120.236 141.063 120.163 141.075 120.102 141.087C121.292 142.67 122.42 144.351 123.475 146.105C129.585 156.214 133.499 168.937 134.836 181.622C135.13 184.469 135.302 187.303 135.339 190.112C135.4 194.983 135.057 199.768 134.284 204.295C133.609 208.233 132.615 211.987 131.278 215.447C130.714 216.894 130.113 218.244 129.462 219.52C128.383 221.642 127.193 223.519 125.904 225.139C122.776 229.089 119.083 231.567 115.121 232.561L114.728 232.623C114.004 232.745 113.305 232.868 112.605 232.978C113.023 232.942 113.427 232.892 113.832 232.819H113.845L113.894 232.807L116.985 232.242C117.059 232.23 117.145 232.205 117.231 232.193C117.267 232.181 117.304 232.181 117.341 232.169C117.415 232.156 117.476 232.144 117.55 232.132C117.93 232.058 118.31 231.972 118.703 231.886C119.783 231.678 120.838 231.457 121.88 231.224C123.169 230.929 124.457 230.623 125.61 230.316C125.855 230.242 126.113 230.181 126.358 230.107C126.812 229.973 127.254 229.85 127.683 229.727C127.782 229.703 127.88 229.678 127.978 229.654C128.456 229.519 128.935 229.384 129.426 229.249C129.573 229.2 129.72 229.151 129.867 229.089C129.892 229.077 129.916 229.065 129.941 229.065C132.75 227.973 135.229 225.764 137.241 222.464C138.185 220.906 139.02 219.115 139.731 217.066C140.148 215.876 140.516 214.612 140.848 213.263C140.713 213.3 140.578 213.336 140.455 213.373C140.59 213.336 140.725 213.3 140.848 213.263C141.657 209.95 142.136 206.356 142.332 202.565C142.553 198.173 142.381 193.535 141.854 188.787C141.522 186.15 141.105 183.426 140.59 180.702Z" fill="url(#paint8_linear_3269_13201)"></path><path d="M118.35 216.612C120.497 212.92 122.226 208.932 123.588 204.724C125.318 199.375 126.41 193.707 126.876 187.953C127.195 183.966 127.232 179.942 126.962 175.955C126.361 167.072 124.275 158.398 120.754 150.878C119.503 148.142 118.043 145.578 116.411 143.173C116.006 142.609 115.626 142.081 115.221 141.541C114.792 140.977 114.375 140.45 113.921 139.91C114.056 139.75 114.166 139.579 114.276 139.419L114.497 139.088C113.54 140.413 112.166 141.456 110.4 142.155C109.504 142.511 108.523 142.781 107.443 142.989C107.332 142.989 107.247 143.014 107.148 143.038C106.032 143.198 104.842 143.284 103.517 143.259C101.812 143.259 99.9591 143.075 97.9471 142.744C78.0967 139.345 50.1736 120.894 35.5987 101.559C35.0834 100.859 34.5927 100.197 34.1265 99.522C31.8445 96.2585 30.1147 93.1914 28.9369 90.3819C26.5813 84.7875 26.3605 80.1991 28.1762 77.0216C28.2376 76.8866 28.3357 76.7517 28.4216 76.6167L25.9311 80.0887L25.7962 80.285C25.7716 80.3095 25.7471 80.334 25.7348 80.3709C25.7103 80.4199 25.6735 80.4567 25.6244 80.5303C25.195 81.156 24.7779 81.8308 24.2994 82.5178C23.7228 83.3889 23.0848 84.3336 22.4837 85.266C21.8334 86.2965 21.2078 87.3516 20.5821 88.3822C20.533 88.4435 20.5207 88.4926 20.4716 88.5417L20.3858 88.7257C20.3612 88.7748 20.3367 88.787 20.3244 88.8361C20.2999 88.8852 20.2631 88.9465 20.2385 88.9956C20.214 89.0201 20.214 89.0447 20.1895 89.0447C20.1404 89.1305 20.1281 89.2042 20.0791 89.2655C20.0545 89.2655 20.0545 89.29 20.0545 89.29C19.9441 89.5109 19.8337 89.7194 19.7233 89.9403C17.1714 95.044 18.0179 102.074 22.6064 110.073C23.6614 111.889 24.8638 113.717 26.2992 115.63C27.98 117.863 29.857 120.059 31.9181 122.194C47.585 138.499 72.9071 151.05 92.2545 151.393C95.0763 151.454 97.6281 151.234 99.9101 150.792C103.431 150.093 106.265 148.841 108.437 147.124C108.461 147.099 108.486 147.075 108.523 147.062C113.332 164.888 104.265 185.904 84.5254 198.713V198.737C82.084 200.332 79.5566 201.718 76.9803 202.945C72.7967 204.92 68.4905 206.417 64.1474 207.448C44.5301 212.036 24.4957 206.773 13.7485 192.493C12.6075 190.971 11.6015 189.376 10.7305 187.745C11.1599 188.616 11.5647 189.376 11.9205 190.076C12.8161 191.756 13.5522 193.081 14.411 194.443C15.5029 196.185 16.7788 198.001 18.6927 200.761C18.7172 200.786 18.7172 200.811 18.7418 200.823C18.7909 200.872 18.8031 200.909 18.8767 200.982C19.2571 201.473 19.6865 202.037 20.1281 202.577C20.398 202.908 20.6925 203.252 20.9747 203.559C32.642 216.661 52.5169 219.974 71.2631 213.14C74.821 211.84 78.3421 210.159 81.765 208.147C83.8015 206.92 85.8136 205.571 87.7643 204.074C87.7029 204.013 87.6538 203.914 87.5802 203.829C88.5862 203.964 89.4328 202.356 90.2179 201.718L92.0337 200.123C92.23 199.939 92.4385 199.768 92.6348 199.584C92.9661 199.289 93.2605 198.983 93.5795 198.664C93.6409 198.614 93.7145 198.553 93.7758 198.48C94.0703 198.185 94.3524 197.915 94.6469 197.633L94.8922 197.388C95.0885 197.167 95.3216 196.934 95.5179 196.737C95.6283 196.627 95.7388 196.492 95.8369 196.382C96.0209 196.198 96.1927 196.001 96.3767 195.817C96.4871 195.682 96.5976 195.572 96.708 195.437C96.8675 195.253 97.0392 195.081 97.1987 194.873C97.3091 194.762 97.4195 194.627 97.53 194.492C97.6895 194.308 97.8489 194.112 97.9962 193.928C98.1066 193.793 98.217 193.683 98.3274 193.548C98.3765 193.499 98.3888 193.462 98.4378 193.388C98.5728 193.253 98.6832 193.094 98.7936 192.959C98.8795 192.824 98.9899 192.713 99.0881 192.578C99.2721 192.382 99.4193 192.174 99.5788 191.953C99.6647 191.842 99.7628 191.732 99.8487 191.621C100.045 191.352 100.254 191.082 100.45 190.812C100.499 190.763 100.536 190.701 100.56 190.652C100.757 190.358 100.965 190.088 101.161 189.806C101.211 189.757 101.247 189.72 101.272 189.671C101.333 189.585 101.407 189.474 101.468 189.376C101.529 189.29 101.579 189.192 101.652 189.106C101.677 189.082 101.701 189.045 101.738 188.996C101.787 188.935 101.824 188.861 101.848 188.8C101.898 188.751 101.91 188.714 101.934 188.689C102.02 188.554 102.118 188.419 102.18 188.309C102.29 188.149 102.401 187.99 102.499 187.843C102.523 187.794 102.548 187.757 102.585 187.708C102.585 187.708 102.585 187.683 102.609 187.683C102.634 187.622 102.67 187.548 102.72 187.487C102.769 187.426 102.805 187.352 102.854 187.291C102.989 187.094 103.1 186.886 103.235 186.69C103.259 186.64 103.296 186.579 103.321 186.53C103.321 186.53 103.345 186.505 103.345 186.481C103.394 186.42 103.431 186.321 103.48 186.26C103.615 186.064 103.726 185.855 103.836 185.659C103.922 185.524 103.995 185.389 104.081 185.254C104.106 185.205 104.143 185.168 104.167 185.095C104.192 185.07 104.216 185.033 104.216 185.009C104.265 184.947 104.302 184.874 104.351 184.788C104.376 184.739 104.413 184.677 104.437 184.604C104.523 184.469 104.597 184.334 104.658 184.199C104.707 184.138 104.719 184.089 104.768 184.015C104.793 183.966 104.817 183.905 104.83 183.855C104.891 183.77 104.94 183.671 104.989 183.586C105.014 183.561 105.014 183.537 105.038 183.524C105.087 183.389 105.149 183.279 105.222 183.168C105.247 183.119 105.271 183.058 105.308 183.009C105.37 182.874 105.443 182.739 105.504 182.604C105.554 182.518 105.59 182.408 105.664 182.31C105.664 182.261 105.688 182.248 105.713 182.199C105.713 182.175 105.738 182.15 105.762 182.138C105.787 182.089 105.811 182.052 105.823 182.003C105.885 181.843 105.958 181.684 106.02 181.561C106.081 181.402 106.179 181.242 106.241 181.095C106.241 181.095 106.265 181.071 106.265 181.046C106.29 180.997 106.314 180.985 106.314 180.936C106.376 180.801 106.449 180.666 106.51 180.531C106.535 180.469 106.56 180.396 106.596 180.347C106.621 180.236 106.658 180.126 106.731 180.028C106.731 180.003 106.756 179.966 106.756 179.942C106.78 179.893 106.78 179.881 106.805 179.856C106.829 179.795 106.854 179.746 106.866 179.696C106.915 179.635 106.928 179.562 106.952 179.5C107.038 179.316 107.112 179.169 107.173 178.985C107.198 178.924 107.234 178.825 107.259 178.764C107.308 178.678 107.32 178.605 107.345 178.543C107.369 178.519 107.394 178.494 107.394 178.482C107.394 178.457 107.394 178.433 107.418 178.421C107.443 178.371 107.467 178.31 107.48 178.261C107.529 178.175 107.541 178.077 107.566 177.991C107.59 177.967 107.59 177.942 107.59 177.93C107.639 177.868 107.676 177.77 107.701 177.684C107.725 177.599 107.762 177.525 107.786 177.439C107.835 177.304 107.897 177.169 107.946 177.01C107.995 176.948 108.007 176.85 108.032 176.764C108.056 176.703 108.093 176.654 108.118 176.58C108.142 176.519 108.142 176.47 108.167 176.396C108.228 176.237 108.277 176.077 108.351 175.93C108.4 175.795 108.437 175.66 108.486 175.501C108.51 175.476 108.51 175.476 108.51 175.452C108.596 175.182 108.707 174.887 108.78 174.617C108.829 174.482 108.842 174.347 108.891 174.212C108.915 174.163 108.94 174.151 108.94 174.127C109.001 173.881 109.075 173.66 109.136 173.427C109.16 173.366 109.185 173.292 109.197 173.231C109.222 173.17 109.222 173.121 109.246 173.047C109.332 172.753 109.443 172.446 109.516 172.151C109.565 171.992 109.602 171.857 109.627 171.722C109.737 171.342 109.823 170.986 109.897 170.63C109.958 170.434 110.007 170.225 110.032 170.029C110.142 169.673 110.216 169.317 110.252 168.949C110.277 168.79 110.314 168.63 110.338 168.483C110.338 168.459 110.338 168.434 110.363 168.397C110.387 168.213 110.424 168.041 110.449 167.857C110.535 167.502 110.584 167.121 110.633 166.765C110.657 166.704 110.657 166.631 110.657 166.569C110.706 166.348 110.719 166.14 110.743 165.919C110.743 165.87 110.743 165.809 110.768 165.759C110.768 165.698 110.792 165.625 110.792 165.563C110.817 165.404 110.841 165.232 110.854 165.048L110.915 164.312C110.939 164.25 110.939 164.201 110.939 164.128V164.103C110.964 164.042 110.964 163.993 110.964 163.919C110.964 163.87 110.964 163.833 110.988 163.809V163.588C111.013 163.502 111.013 163.428 111.013 163.343C111.038 163.232 111.038 163.146 111.038 163.024C111.038 162.962 111.062 162.889 111.062 162.803V162.606C111.087 162.496 111.087 162.386 111.087 162.288V162.177C111.111 162.116 111.111 162.018 111.111 161.956V161.662V161.6C111.136 161.515 111.136 161.416 111.136 161.331V161.036C111.136 161.012 111.136 161.012 111.136 161.012V160.877C111.136 160.766 111.16 160.631 111.16 160.496V159.404C111.16 159.319 111.16 159.245 111.136 159.159V158.46C111.111 158.411 111.111 158.349 111.111 158.3V158.116C111.111 158.006 111.087 157.871 111.087 157.736V157.625C111.087 157.576 111.087 157.576 111.062 157.564C111.062 157.54 111.062 157.54 111.062 157.54C111.087 157.515 111.062 157.491 111.062 157.454V157.233C111.062 157.184 111.062 157.147 111.038 157.098C111.038 157.098 111.038 157.098 111.038 157.073C111.038 156.988 111.038 156.889 111.013 156.779C111.013 156.669 111.013 156.583 110.988 156.46C110.988 156.374 110.988 156.276 110.964 156.166V156.08C110.964 156.031 110.939 155.994 110.939 155.945V155.785C110.915 155.761 110.915 155.724 110.915 155.65C110.915 155.601 110.915 155.564 110.89 155.515C110.89 155.491 110.89 155.491 110.89 155.466C110.866 155.356 110.866 155.221 110.841 155.11V155C110.817 154.865 110.792 154.73 110.78 154.595V154.436C110.755 154.374 110.755 154.301 110.731 154.239C110.731 154.178 110.731 154.129 110.706 154.055C110.706 154.006 110.706 153.969 110.682 153.92C110.682 153.81 110.657 153.675 110.633 153.565C110.633 153.54 110.633 153.503 110.608 153.479C110.584 153.319 110.559 153.184 110.547 153.037C110.547 153.013 110.547 153.013 110.547 153.013C110.547 152.963 110.522 152.951 110.522 152.902C110.522 152.878 110.522 152.878 110.522 152.853C110.498 152.767 110.473 152.657 110.461 152.534C110.436 152.35 110.4 152.178 110.351 151.994C110.351 151.933 110.326 151.859 110.326 151.798C110.301 151.749 110.301 151.688 110.277 151.638C110.277 151.577 110.252 151.504 110.252 151.442C110.203 151.283 110.191 151.148 110.142 150.988C110.117 150.902 110.117 150.829 110.093 150.743C110.068 150.682 110.044 150.608 110.032 150.522C110.007 150.436 109.982 150.338 109.97 150.252C109.97 150.191 109.946 150.142 109.921 150.068C109.921 150.019 109.897 149.958 109.897 149.909C109.848 149.774 109.835 149.639 109.786 149.504C109.737 149.344 109.7 149.185 109.651 149.038C109.651 149.013 109.651 148.988 109.627 148.976C109.627 148.915 109.602 148.817 109.578 148.755C109.553 148.731 109.553 148.694 109.553 148.694C109.553 148.669 109.553 148.645 109.529 148.633L109.504 148.608C109.504 148.584 109.504 148.547 109.479 148.522C109.418 148.277 109.345 148.056 109.259 147.811L109.443 147.43L110.179 145.983C116.644 159.809 115.282 177.549 107.136 192.983C103.861 199.191 99.4807 205.031 94.0825 210.098C92.4754 211.521 90.8682 212.858 89.2365 214.085C86.3902 216.232 83.5071 218.072 80.5872 219.594C66.2699 227.114 51.4373 227.151 38.2855 219.336C38.1996 219.287 38.1137 219.226 38.0278 219.176C38.1505 219.262 38.2609 219.336 38.3836 219.422C38.7762 219.692 39.1443 219.949 39.5123 220.195C39.6718 220.305 39.8436 220.416 40.0153 220.526C40.1012 220.575 40.1748 220.636 40.2607 220.685C40.4079 220.784 40.5674 220.87 40.7146 220.968C41.3526 221.373 41.9783 221.753 42.5672 222.096C42.6531 222.145 42.7389 222.194 42.8248 222.244C43.5118 222.624 44.2848 223.078 45.0945 223.52C45.119 223.532 45.1436 223.544 45.1681 223.569C45.757 223.888 46.3336 224.194 46.9102 224.489C48.0144 225.065 49.0449 225.568 50.3454 226.157C51.057 226.476 51.8421 226.82 52.7623 227.225C52.8236 227.249 52.885 227.274 52.9463 227.31C52.9095 227.298 52.8727 227.274 52.8482 227.261C52.1489 226.967 51.4496 226.636 50.7748 226.292C52.382 226.979 54.1241 227.691 55.8294 228.366C65.8159 231.506 77.2747 229.826 87.7765 223.458C90.5492 221.777 93.2605 219.765 95.8492 217.434C97.2601 216.158 98.6464 214.784 99.9959 213.324C104.265 208.662 107.762 203.424 110.461 197.878C115.049 188.456 117.344 178.138 117.184 168.311C117.147 165.956 116.963 163.625 116.644 161.343C115.785 155.27 113.921 149.528 111.001 144.461C111.001 144.461 111.001 144.461 111.001 144.449C111.185 144.13 111.357 143.848 111.516 143.554C111.565 143.529 111.565 143.492 111.577 143.468C111.663 143.333 111.761 143.198 111.823 143.063L112.498 142.008C113.589 143.504 114.608 145.124 115.503 146.78C118.104 151.504 119.957 156.791 121.073 162.361C121.257 163.318 121.429 164.287 121.588 165.269C122.57 171.599 122.644 178.249 121.809 184.837C121 191.155 119.392 197.424 116.976 203.313C115.123 207.84 112.767 212.134 109.946 216.048C108.854 217.569 107.701 219.005 106.547 220.33C104.535 222.612 102.425 224.611 100.229 226.304C92.7943 232.107 84.4886 234.635 76.5631 233.739C78.0844 233.935 79.6548 234.119 81.1025 234.279H81.1638C81.3233 234.303 81.4583 234.328 81.5932 234.328C81.9245 234.377 82.268 234.389 82.5747 234.438C82.7587 234.438 82.9305 234.463 83.1145 234.463C83.3353 234.475 83.5562 234.488 83.8015 234.5C83.5684 234.488 83.3353 234.475 83.1145 234.463C83.8997 234.524 84.7094 234.586 85.5559 234.635C86.5497 234.696 87.5189 234.745 88.39 234.77C88.439 234.77 88.4881 234.77 88.5249 234.77C88.6721 234.77 88.8193 234.782 88.9666 234.782C89.077 234.782 89.1997 234.782 89.3101 234.794C89.445 234.794 89.5677 234.807 89.7027 234.807C89.9849 234.807 90.2548 234.819 90.5247 234.819C90.721 234.819 90.9173 234.819 91.1135 234.819C91.1994 234.819 91.273 234.819 91.3589 234.819C91.3835 234.819 91.3957 234.819 91.4203 234.819H91.9969C92.5122 234.819 93.0274 234.794 93.5182 234.757C99.407 234.316 105.21 231.641 110.351 226.832C112.117 225.176 113.823 223.25 115.43 221.054C116.485 219.606 117.429 218.158 118.35 216.612Z" fill="url(#paint9_linear_3269_13201)"></path><path d="M10.6606 187.61C10.6852 187.646 10.6975 187.683 10.722 187.72C10.6729 187.622 10.6238 187.511 10.5625 187.413C10.5993 187.475 10.6361 187.536 10.6606 187.61Z" fill="url(#paint10_linear_3269_13201)"></path><path d="M241.437 36.4373C242.002 37.247 242.529 38.069 243.02 38.9155C242.554 38.1671 242.026 37.3574 241.437 36.4373Z" fill="url(#paint11_linear_3269_13201)"></path><path d="M245.81 124.991C241.479 129.334 235.308 132.72 227.493 134.671C217.617 137.125 206.599 136.892 196.012 134.512C187.853 132.671 179.928 129.555 172.972 125.384C166.322 121.397 160.531 116.452 156.25 110.76C155.808 110.171 155.391 109.594 154.998 109.005C154.544 109.165 154.005 109.361 153.379 109.582C153.072 109.705 152.753 109.827 152.422 109.962C153.219 111.275 154.115 112.6 155.109 113.937C155.133 113.876 155.158 113.815 155.182 113.766C155.158 113.827 155.133 113.888 155.109 113.937C157.243 116.771 159.734 119.47 162.507 122.01C166.935 126.071 172.076 129.702 177.621 132.769C192.27 140.891 209.752 145.136 224.438 143.124C224.61 142.719 224.781 142.314 224.953 141.922C224.794 142.327 224.622 142.719 224.45 143.124C229.124 142.486 233.161 141.259 236.522 139.566C240.632 137.481 243.736 134.696 245.748 131.383C245.797 131.297 245.859 131.211 245.908 131.113C246.116 130.757 246.3 130.402 246.484 130.034C246.533 129.935 246.582 129.837 246.632 129.739C246.73 129.531 246.828 129.31 246.926 129.101C246.938 129.077 246.938 129.064 246.951 129.04C247.306 128.144 247.674 127.187 248.055 126.194C248.116 126.022 248.19 125.85 248.251 125.666C249.416 122.574 250.631 119.176 251.637 116.17C251.649 116.133 251.662 116.084 251.674 116.047C251.662 116.06 251.662 116.084 251.649 116.097C250.41 119.335 248.447 122.341 245.81 124.991Z" fill="url(#paint12_linear_3269_13201)"></path><path d="M53.1551 197.019C58.9949 196.934 64.9328 196.075 70.6868 194.394C74.5636 193.278 78.3423 191.793 81.9983 189.94C99.8857 180.85 109.517 165.183 108.547 149.958C108.498 149.467 108.486 148.976 108.412 148.498C108.437 148.853 108.437 149.197 108.461 149.798C108.461 149.798 108.461 149.823 108.461 149.847C106.474 153.81 103.112 157.196 98.4503 159.699C95.0274 161.539 90.8807 162.901 86.1082 163.661H86.0837C72.024 165.919 55.4984 162.52 41.2669 155.417C34.5316 152.08 28.3237 147.896 23.1587 143.075C20.6068 140.719 18.3004 138.192 16.3129 135.554C9.51612 126.537 7.5409 117.655 9.81057 110.33C9.85964 110.22 9.87191 110.085 9.92098 109.975C9.92098 109.95 9.94552 109.925 9.94552 109.913C9.94552 109.901 9.97006 109.864 9.97006 109.852C10.1295 109.422 10.289 109.018 10.4608 108.625C10.3258 108.919 10.2154 109.226 10.0805 109.521C9.8351 110.146 9.58973 110.772 9.34436 111.373C9.31983 111.422 9.31983 111.459 9.29529 111.508C9.27075 111.557 9.24622 111.594 9.24622 111.643C9.04992 112.207 8.84136 112.759 8.62052 113.348C8.4365 113.815 8.28927 114.305 8.10525 114.821C7.97029 115.25 7.8108 115.655 7.67585 116.035C6.97655 118.047 6.20363 120.697 5.61475 122.869C5.56567 123.09 5.50433 123.31 5.45526 123.519C5.43072 123.568 5.43072 123.629 5.40618 123.678C5.40618 123.703 5.40618 123.703 5.40618 123.703C5.40618 123.728 5.40618 123.728 5.40618 123.728C5.40618 123.728 5.40618 123.728 5.40618 123.752C5.38164 123.752 5.38164 123.777 5.38164 123.801C2.15503 139.787 13.258 155.073 30.3235 164.459C37.3288 168.311 45.3524 171.17 53.7931 172.679C63.3747 174.384 73.4962 174.36 83.2988 172.078H83.3233C93.9601 169.17 100.045 164.287 103.591 159.785C106.633 155.883 107.823 152.289 108.425 150.387C108.29 154.411 107.21 160.018 103.37 165.857C99.5177 171.722 92.8927 177.832 81.6548 182.923H81.6302C76.318 184.935 70.9321 186.26 65.5831 186.947C58.1975 187.928 50.9222 187.732 44.0396 186.542C21.4043 182.604 3.40642 167.71 2.15503 147.541C2.1305 147.185 2.1305 146.805 2.10596 146.424V146.854C2.10596 146.964 2.08142 147.074 2.08142 147.185V147.381C2.05689 147.676 2.05689 147.958 2.05689 148.252L2.00781 149.086C2.00781 149.221 2.03235 149.332 2.03235 149.442C2.00781 149.896 2.00781 150.338 2.00781 150.78C2.03235 151.491 2.05689 152.239 2.09369 152.976C2.11823 153.172 2.11823 153.405 2.11823 153.601C2.14277 153.871 2.14277 154.117 2.1673 154.362C2.1673 154.386 2.1673 154.386 2.1673 154.411V154.681C2.1673 154.84 2.1673 155 2.19184 155.147V155.307C2.21638 155.576 2.21638 155.822 2.24091 156.092C2.26545 156.362 2.28999 156.656 2.30226 156.963C2.30226 156.963 2.30226 156.987 2.30226 157.012C2.32679 157.196 2.35133 157.368 2.35133 157.527C2.37587 157.723 2.4004 157.932 2.41267 158.128C2.43721 158.325 2.46175 158.558 2.47401 158.754C2.49855 158.975 2.52309 159.196 2.53536 159.429C2.53536 159.453 2.55989 159.49 2.55989 159.539C2.58443 159.809 2.62124 160.079 2.64577 160.349C2.67031 160.545 2.69485 160.778 2.73165 160.975V161.061C2.73165 161.085 2.73165 161.085 2.73165 161.085C2.75619 161.269 2.78073 161.416 2.793 161.6C2.793 161.686 2.81753 161.76 2.81753 161.846V161.907L2.90341 162.471C2.90341 162.496 2.90341 162.496 2.90341 162.52C2.90341 162.57 2.92795 162.582 2.92795 162.606C3.73767 168.066 5.93373 173.403 9.602 178.298C18.9874 190.689 35.6848 197.289 53.1551 197.019Z" fill="url(#paint13_linear_3269_13201)"></path><path d="M171.926 0.355534C172.085 0.38007 172.245 0.404607 172.392 0.416876C176.306 0.907615 180.158 2.3921 183.814 4.83353C186.967 6.95598 189.973 9.80226 192.684 13.4092C193.015 13.8509 193.359 14.3539 193.69 14.8201C195.432 17.3106 196.954 20.0096 198.254 22.8805C201.775 30.6096 203.763 39.5165 204.143 48.632C204.302 52.2757 204.204 55.9563 203.849 59.6C203.309 65.2681 202.143 70.838 200.377 76.1257C198.904 80.4932 196.99 84.6523 194.672 88.4678C193.752 90.0136 192.77 91.449 191.74 92.7863C190.194 94.8228 188.537 96.6631 186.82 98.2703C180.71 103.938 173.717 106.736 166.785 106.576C166.687 106.564 166.601 106.552 166.503 106.527L166.785 106.576H166.43C166.565 106.576 166.749 106.576 166.859 106.601C175.521 108.122 184.832 105.656 193.101 99.3008C195.248 97.6691 197.309 95.7675 199.285 93.6083C200.499 92.2587 201.653 90.8601 202.818 89.3266H202.843V89.302C205.91 85.1553 208.461 80.6159 210.474 75.819C213.05 69.6602 214.731 63.1211 215.491 56.5452C216.964 44.0804 215.16 31.4684 209.958 21.3101C208.768 19.0036 207.431 16.8076 205.91 14.7955C203.824 12.0229 201.542 9.71638 199.101 7.81477C195.248 4.83353 191.04 2.93191 186.636 2.03632C186.575 2.01178 186.476 1.98724 186.39 1.97497L185.09 1.77868C184.035 1.59465 182.98 1.39835 181.937 1.23886C181.422 1.17752 180.906 1.10391 180.44 1.04257C180.195 1.01803 179.925 0.993495 179.655 0.981226C178.22 0.797199 176.784 0.662246 175.337 0.539561C175.091 0.515024 174.821 0.515024 174.576 0.490487C174.171 0.441413 173.766 0.429144 173.349 0.404607C173.263 0.404607 173.153 0.38007 173.055 0.38007H172.809C172.454 0.355534 172.073 0.330997 171.693 0.318728C171.374 0.294191 171.043 0.294191 170.687 0.269654C170.147 0.269654 169.57 0.245117 169.006 0.245117C169.497 0.269654 170.012 0.294191 170.552 0.30646C170.957 0.30646 171.447 0.330997 171.926 0.355534Z" fill="url(#paint14_linear_3269_13201)"></path></g><path d="M237.538 143.357C237.476 143.516 237.378 143.651 237.292 143.811L237.268 143.86C236.507 144.952 235.563 145.982 234.446 146.878C232.213 148.669 229.269 150.031 225.674 150.816C223.392 151.307 220.84 151.601 218.043 151.626C200.352 151.81 177.876 142.02 162.099 128.279C158.271 124.942 154.848 121.384 151.977 117.667C151.793 117.446 151.622 117.213 151.438 116.967C149.892 114.906 148.567 112.894 147.499 110.944L148.125 110.649C148.64 110.428 149.217 110.207 149.806 109.95C149.965 109.901 150.125 109.839 150.26 109.753C152.431 108.907 154.161 106.907 155.314 103.816C155.56 103.141 155.781 102.405 155.989 101.619C156.014 101.57 156.014 101.534 156.038 101.485C156.198 100.773 156.357 100.025 156.48 99.2271C156.664 98.0371 156.799 96.7857 156.885 95.4239C157.069 92.2709 156.934 88.7744 156.505 85.1061C156.051 80.9594 155.253 76.5795 154.137 72.0524C153.462 69.3166 152.677 66.5194 151.806 63.7221C148.174 52.2388 142.874 40.5224 136.666 30.8304C135.317 28.7447 133.931 26.7572 132.52 24.8801C132.164 24.3894 131.808 23.9232 131.44 23.4693C128.864 20.2058 126.361 17.5559 123.981 15.5193C120.533 12.5871 117.356 10.9309 114.583 10.5506C113.638 10.4401 112.767 10.4647 111.945 10.6119H111.884C111.148 10.9063 110.424 11.1885 109.713 11.4584C109.823 11.3971 109.933 11.3235 110.068 11.2621C110.154 11.2131 110.265 11.1762 110.363 11.1272L110.068 11.2376C108.743 11.7774 107.443 12.3172 106.216 12.8448L105.48 13.1637C105.455 13.1637 105.455 13.1637 105.455 13.1883H105.382C102.916 14.2802 99.6892 15.8751 97.2109 17.0406C97.5913 16.8566 98.0207 16.7461 98.4623 16.7216C99.1616 16.6603 99.9345 16.7707 100.793 17.0406C103.149 17.7767 106.057 19.8133 109.344 23.1257C111.675 25.4322 114.178 28.3644 116.865 31.8977C117.025 32.094 117.159 32.3271 117.307 32.5234C119.012 34.8053 120.693 37.2222 122.349 39.7495C127.747 48.0798 132.826 57.5879 136.998 66.9733C138.274 69.8809 139.488 72.7886 140.58 75.6594C142.457 80.5422 144.027 85.2411 145.193 89.6332C146.15 93.2769 146.874 96.6876 147.23 99.7547C147.389 101.031 147.475 102.196 147.524 103.288C147.573 104.834 147.499 106.196 147.328 107.361C146.947 109.962 146.003 111.594 144.592 112.281C144.592 112.305 144.567 112.305 144.543 112.305C144.481 112.354 144.408 112.391 144.346 112.416C145.647 114.882 147.303 117.495 149.364 120.206V120.218V120.231C149.61 120.562 149.88 120.906 150.125 121.212C164.921 140.204 192.549 157.576 212.522 160.3C214.559 160.594 216.436 160.704 218.166 160.655C221.258 160.594 223.809 160.03 225.846 159.024C227.122 158.398 228.202 157.588 229.048 156.631C229.232 156.435 229.404 156.202 229.563 155.981C229.588 155.957 229.612 155.92 229.625 155.895L230.324 154.889C230.349 154.865 230.373 154.84 230.385 154.828C230.496 154.693 230.582 154.509 230.68 154.386C230.704 154.362 230.729 154.362 230.729 154.337C231.305 153.503 231.943 152.57 232.569 151.626C233.305 150.485 234.066 149.27 234.79 148.068L235.415 147.111C235.501 146.927 235.612 146.78 235.71 146.62C235.82 146.436 235.906 146.289 236.029 146.13L236.839 144.694C237.084 144.289 237.305 143.884 237.538 143.504C237.783 143.099 238.004 142.694 238.237 142.289C238.298 142.179 238.348 142.044 238.421 141.934C238.36 142.02 238.311 142.093 238.262 142.179C238.176 142.326 238.09 142.474 238.004 142.621L238.544 141.676C238.544 141.664 238.556 141.652 238.556 141.639C238.335 142.02 238.127 142.4 237.906 142.792C237.759 142.989 237.648 143.173 237.538 143.357Z" fill="url(#paint15_linear_3269_13201)"></path><path d="M66.8125 35.8231L66.8366 35.7991H66.8125C66.8125 35.7991 66.8125 35.7991 66.8125 35.8231Z" fill="url(#paint16_linear_3269_13201)"></path><path d="M215.936 172.887C215.175 173.513 214.145 173.893 212.844 174.004C211.274 174.139 209.348 173.893 207.029 173.243C205.863 172.912 204.588 172.483 203.226 171.943C195.766 168.986 186.676 163.281 177.585 156.178C172.272 152.031 166.948 147.418 161.979 142.584C155.931 136.745 150.361 130.586 145.858 124.586C143.503 121.458 141.577 118.563 140.104 115.949C139.92 115.655 139.773 115.348 139.589 115.054C139.589 115.029 139.565 115.029 139.565 115.005C138.963 115.385 138.338 115.765 137.798 116.084L137.688 116.146C137.332 116.367 136.951 116.636 136.522 116.882C136.461 116.931 136.387 116.968 136.326 116.992C136.62 116.808 136.78 116.391 136.78 115.765C136.78 115.189 136.645 114.428 136.399 113.483C136.154 112.588 135.798 111.496 135.32 110.232C134.964 109.337 134.559 108.306 134.093 107.214C132.866 104.393 131.296 101.141 129.431 97.608C126.928 92.7743 123.898 87.4007 120.585 81.8062C114.476 71.513 107.335 60.4714 100.453 50.8161C98.7719 48.4605 97.1156 46.2031 95.5085 44.0316C93.7664 41.7006 92.1224 39.6149 90.6256 37.7869C87.0678 33.4194 84.2215 30.3768 82.2094 28.696C81.4979 28.1194 80.8599 27.69 80.3569 27.4691C79.9152 27.2483 79.5472 27.1747 79.2773 27.2483C79.2527 27.2483 79.2282 27.2483 79.2282 27.2483C79.1178 27.3096 79.0074 27.3833 78.9092 27.4446C78.9338 27.4201 78.9583 27.3955 78.9706 27.3833C78.8111 27.4937 78.6516 27.5796 78.5044 27.7022C77.3143 28.4384 76.1365 29.199 75.0815 29.9228C74.9465 30.0333 74.787 30.1191 74.6521 30.2173L74.4926 30.3277C73.2412 31.1742 71.8058 32.2048 70.3704 33.2353C70.3458 33.2353 70.3458 33.2599 70.3213 33.2599C70.1863 33.3457 70.0514 33.4439 69.941 33.5298C69.806 33.6402 69.6711 33.7261 69.5361 33.8242C69.0454 34.1555 68.5792 34.499 68.1007 34.8302C67.9412 34.9406 67.8062 35.0511 67.6713 35.1492C67.5854 35.2351 67.4873 35.2842 67.4014 35.3455C67.3523 35.3946 67.3155 35.4314 67.2664 35.4559C67.2419 35.4805 67.2174 35.4805 67.2051 35.505C67.156 35.5541 67.1192 35.5663 67.0701 35.5909C67.0088 35.6522 66.9352 35.7013 66.8738 35.7504L66.8125 35.8117C66.8616 35.8608 67.1437 36.2411 67.7081 36.9281C68.1375 37.4925 68.7141 38.2286 69.438 39.161C71.45 41.7865 74.5662 45.9209 78.7252 51.4295C79.4 52.3251 80.087 53.2452 80.8108 54.2022C84.7245 59.3917 89.0307 65.1334 93.4106 70.9977C96.2078 74.7396 99.0541 78.5428 101.851 82.2847C107.789 90.2347 113.519 97.9393 118.303 104.38C120.831 107.803 123.113 110.895 125.014 113.471C125.713 114.416 126.339 115.262 126.867 116.023C127.652 117.078 128.302 117.949 128.817 118.661C129.934 120.231 130.474 120.992 130.474 121.029C129.603 121.679 128.572 122.464 127.738 123.139C127.603 123.249 127.492 123.36 127.357 123.458C127.357 123.482 127.333 123.482 127.308 123.507C127.284 123.531 127.247 123.556 127.222 123.593L127.247 123.617C128.253 124.807 129.357 126.12 130.535 127.604C131.97 129.42 133.529 131.457 135.234 133.69C137.05 136.094 138.914 138.646 140.791 141.272C147.453 150.571 154.409 161.024 160.507 170.79C163.893 176.212 167.009 181.426 169.659 186.125C171.745 189.818 173.548 193.204 174.971 196.099C175.082 196.026 175.18 195.964 175.29 195.891C175.18 195.964 175.082 196.038 174.971 196.099C175.474 197.13 175.916 198.075 176.296 198.933C176.947 200.406 177.425 201.62 177.732 202.602C178.186 204.037 178.272 204.945 178.026 205.313C178.002 205.35 177.977 205.374 177.94 205.399C178.308 205.154 178.677 204.92 179.02 204.687L179.805 204.16L179.891 204.098C182.504 202.295 185.78 199.903 188.553 197.854C189.056 197.486 189.546 197.118 190.013 196.774C190 196.774 189.988 196.762 189.964 196.75C189.767 196.639 189.264 196.112 188.479 195.204C187.804 194.431 186.933 193.376 185.89 192.112C185.289 191.376 184.627 190.579 183.915 189.695C181.67 186.923 178.959 183.524 175.953 179.721C169.647 171.734 162.004 161.932 154.483 152.141C154.434 152.08 154.385 152.019 154.348 151.957C148.84 144.805 143.405 137.665 138.595 131.26C137.945 130.389 137.319 129.567 136.743 128.782C134.277 125.519 132.351 122.893 130.805 120.808C131.234 120.489 131.651 120.158 132.105 119.851L133.332 118.955L134.068 118.44C134.117 118.44 134.13 118.415 134.154 118.391L134.338 118.28C134.522 118.17 134.669 118.06 134.829 117.949C134.854 117.949 134.854 117.925 134.878 117.925C135.209 117.704 135.577 117.458 135.933 117.225C137.675 120.158 140.031 123.605 142.988 127.506C144.644 129.727 146.41 131.984 148.3 134.266C158.311 146.51 170.911 159.503 181.977 169.121C186.97 173.44 191.632 177.108 195.607 179.709C196.662 180.408 197.644 180.985 198.539 181.5C200.306 182.481 201.766 183.132 202.956 183.451C204.146 183.782 205.041 183.77 205.618 183.402C205.667 183.377 205.704 183.34 205.753 183.316C205.802 183.267 205.839 183.23 205.888 183.205L205.949 183.144L206.011 183.083L207.397 181.758L207.483 181.659C207.495 181.647 207.52 181.623 207.532 181.61C207.777 181.39 208.023 181.156 208.268 180.911C209.225 179.979 210.256 178.936 211.249 177.905C211.47 177.672 211.703 177.439 211.924 177.218C212.488 176.629 213.041 176.04 213.593 175.452C213.617 175.427 213.654 175.39 213.678 175.353C213.691 175.341 213.715 175.317 213.728 175.304L213.838 175.182C214.316 174.654 214.832 174.09 215.372 173.513C215.322 173.562 215.261 173.624 215.212 173.685C215.261 173.636 215.31 173.574 215.359 173.525C215.519 173.366 215.654 173.206 215.789 173.059C215.838 173.035 215.85 172.998 215.899 172.949C215.985 172.863 216.083 172.752 216.169 172.63C216.083 172.691 216.034 172.765 215.973 172.826C215.985 172.863 215.96 172.887 215.936 172.887Z" fill="url(#paint17_linear_3269_13201)"></path><path d="M216.583 172.237C216.608 172.188 216.645 172.152 216.669 172.103C216.51 172.287 216.338 172.458 216.203 172.642C216.338 172.507 216.448 172.372 216.583 172.237Z" fill="url(#paint18_linear_3269_13201)"></path><path d="M7.53926 185.07C7.64968 185.316 7.7601 185.561 7.87051 185.794C8.01773 186.088 8.16496 186.358 8.29991 186.628C7.85824 185.696 7.42885 184.751 7.01172 183.831C7.17121 184.248 7.35524 184.665 7.53926 185.07Z" fill="url(#paint19_linear_3269_13201)"></path><path d="M106.273 147.124C106.31 147.381 106.335 147.627 106.359 147.884C106.347 147.7 106.323 147.504 106.286 147.246L106.273 147.124Z" fill="url(#paint20_linear_3269_13201)"></path><path d="M254.285 79.6838C254.285 79.647 254.285 79.5979 254.285 79.5611L254.273 79.4507C254.261 79.2299 254.248 79.009 254.236 78.8128C254.199 78.3097 254.162 77.7822 254.101 77.2301C254.052 76.7148 254.015 76.2118 253.966 75.6966C253.966 75.672 253.966 75.6352 253.966 75.6107C253.966 75.6352 253.966 75.6598 253.966 75.6843C253.991 76.0033 254.003 76.2977 254.028 76.6044C254.126 78.138 254.212 79.4139 254.273 80.5303C254.199 79.4139 254.126 78.138 254.028 76.6044C254.653 88.1368 250.384 104.037 227.429 116.232C227.454 116.551 227.479 116.857 227.515 117.176C227.466 116.857 227.454 116.551 227.405 116.232C223.688 118.047 219.811 119.483 215.873 120.55C210.119 122.071 204.205 122.832 198.414 122.832C182.723 122.832 167.657 117.373 158.002 107.251C158.432 107.141 158.873 107.055 159.278 106.957L159.842 106.846L159.867 106.822C159.891 106.822 159.891 106.822 159.891 106.822C160.026 106.797 160.161 106.773 160.296 106.76C171.448 115.986 187.741 119.213 203.886 115.876C208.61 114.919 213.333 113.385 217.897 111.287C220.387 110.122 222.841 108.797 225.246 107.3C246.691 93.8171 255.721 70.7156 248.151 52.1779C247.501 50.7425 246.961 49.5402 246.446 48.4605C246.397 48.3747 246.36 48.2642 246.286 48.1415C245.844 47.1601 245.39 46.2645 244.937 45.3934C244.397 44.3629 243.857 43.3323 243.207 42.2404C242.937 41.811 242.691 41.3693 242.422 40.9154C241.968 40.2161 241.526 39.48 241.011 38.6825C244.372 44.4119 246.053 50.8406 246.163 57.4656C246.249 62.5693 245.427 67.7834 243.747 72.9116C240.189 83.6588 232.864 93.9766 222.228 101.792C220.252 103.252 218.216 104.564 216.142 105.754C212.339 107.95 208.401 109.693 204.389 111.018C189.103 116.011 173.227 114.416 161.695 106.54H161.609C162.075 106.454 162.566 106.355 163.044 106.245C174.258 111.938 188.367 111.619 201.58 105.349C204.843 103.779 208.07 101.877 211.161 99.5956C212.867 98.3442 214.548 96.9701 216.155 95.4979C221.97 90.2347 226.607 84.0759 230.03 77.5368C238.287 61.735 239.318 43.5899 231.883 29.8002C230.987 28.1194 229.957 26.5122 228.791 24.9909C226.73 22.2428 224.375 19.8872 221.786 17.9366C219.504 16.2558 216.302 14.1947 213.91 12.6488C213.91 12.6488 213.91 12.6488 213.885 12.6488C213.86 12.6243 213.861 12.6243 213.836 12.5998C212.989 12.109 212.131 11.6183 211.333 11.1889C210.977 10.9926 210.634 10.8086 210.278 10.6245C210.168 10.5632 210.033 10.4896 209.898 10.4282C209.358 10.1583 208.806 9.86389 208.242 9.59398L208.058 9.48357C207.996 9.45903 207.947 9.43449 207.898 9.42222C207.837 9.39769 207.763 9.36088 207.702 9.33634C207.518 9.25046 207.37 9.17685 207.186 9.09097C207.211 9.10324 207.236 9.11551 207.26 9.12778C207.236 9.11551 207.211 9.10324 207.199 9.09097C207.039 9.01736 206.892 8.93148 206.733 8.85787C206.769 8.88241 206.806 8.89468 206.843 8.91922C206.696 8.85787 206.561 8.78426 206.414 8.72292C206.389 8.71065 206.364 8.69838 206.352 8.69838C205.935 8.51436 205.518 8.33033 205.101 8.15857C205.113 8.15857 205.113 8.17084 205.125 8.17084C205.886 8.51436 206.647 8.85787 207.407 9.21366C207.812 9.42222 208.217 9.63079 208.646 9.85162H208.659C212.082 11.7532 215.247 14.3051 217.995 17.5072C218.559 18.1328 219.087 18.7831 219.602 19.4578C230.914 34.499 230.975 57.4779 221.258 76.7026C218.461 82.2357 214.854 87.4498 210.487 92.0872H210.462L210.438 92.1118C209.027 93.6331 207.567 94.9949 206.07 96.2953C203.457 98.5773 200.746 100.503 197.948 102.135C186.526 108.834 174.086 110.196 163.535 106.098C167.522 104.957 171.24 102.43 174.417 98.4669C175.669 96.9456 176.81 95.2034 177.889 93.2528C178.601 91.9278 179.276 90.5169 179.926 89.0201C179.865 89.0201 179.791 89.0447 179.73 89.0447C179.791 89.0201 179.865 89.0201 179.926 88.9956C181.361 85.5481 182.453 81.7817 183.214 77.8435C184.085 73.3901 184.539 68.7035 184.6 63.9434C184.625 60.8762 184.514 57.76 184.22 54.6561C183.103 42.4367 179.521 30.1805 173.804 20.3289C172.614 18.2433 171.313 16.3048 169.927 14.44C169.461 13.8389 168.982 13.2255 168.516 12.6488C165.854 9.42222 163.057 6.87038 160.186 5.01784C156.628 2.66229 152.972 1.38637 149.414 1.16554C148.494 1.11646 147.574 1.11646 146.678 1.21461C146.384 1.23915 146.102 1.27595 145.807 1.30049L139.759 2.33104L139.575 2.38011C139.464 2.40465 139.329 2.42919 139.219 2.44146C139.084 2.46599 138.949 2.49053 138.839 2.5028C136.532 2.99354 133.735 3.66831 131.453 4.20812C132.459 4.02409 133.49 3.96275 134.545 4.01182C137.857 4.17131 141.391 5.50858 144.973 8.06042C147.5 9.85162 150.052 12.2685 152.567 15.2743C153.193 16.0104 153.819 16.7956 154.42 17.6298C155.34 18.8199 156.211 20.0958 157.057 21.3963C163.842 31.8122 168.676 45.1726 170.933 58.3857C171.448 61.367 171.829 64.3359 172.05 67.2681C172.405 71.7952 172.454 76.175 172.111 80.3708C171.816 84.1127 171.24 87.6951 170.344 90.9586V90.9831C169.939 92.443 169.498 93.8048 168.982 95.0808C168.246 96.9578 167.412 98.6386 166.48 100.123C164.038 104 160.947 106.417 157.475 107.374L157.413 107.398C157.352 107.423 157.303 107.423 157.229 107.447C156.873 107.533 156.493 107.644 156.088 107.766C156.064 107.791 156.039 107.791 156.039 107.791C163.695 117.103 175.558 123.482 188.686 126.267C195.58 127.727 202.794 128.193 209.935 127.543C215.934 126.979 221.872 125.642 227.466 123.47C243.366 116.771 252.052 106.809 254.064 93.0197C254.089 92.8602 254.113 92.7007 254.126 92.5535C254.126 92.4921 254.126 92.4185 254.15 92.3572C254.175 91.621 254.212 90.8604 254.236 90.0507C254.236 89.8298 254.261 89.6213 254.261 89.425V89.2655C254.31 87.9405 254.346 86.8486 254.371 85.8671C254.346 86.8977 254.31 88.0387 254.261 89.4127C254.261 89.4005 254.261 89.3882 254.261 89.3759C254.334 88.0755 254.383 86.8118 254.408 85.6708C254.494 83.8551 254.396 81.5854 254.285 79.6838Z" fill="url(#paint21_linear_3269_13201)"></path><path d="M161.946 203.804C161.455 200.786 160.621 197.4 159.553 193.769C158.228 189.377 156.511 184.616 154.499 179.709C152.977 176.065 151.321 172.348 149.53 168.631C145.862 161.036 141.654 153.405 137.212 146.486C135.397 143.664 133.569 140.953 131.728 138.401C131.287 137.775 130.808 137.174 130.367 136.561C127.79 133.113 125.349 130.242 123.14 127.96L122.711 127.531L122.907 127.335C122.306 127.899 121.067 127.776 119.19 126.93C118.27 126.501 117.215 125.924 116.012 125.163C115.166 124.623 114.221 123.998 113.24 123.286H113.215C109.682 120.734 105.609 117.336 101.192 113.349C89.7088 102.933 76.2012 88.5419 65.7117 75.3778C64.3008 73.6111 62.939 71.8445 61.6385 70.1391C57.7003 64.9005 54.7927 60.5329 52.9034 57.1346C52.0323 55.5396 51.3821 54.1533 50.9527 52.9878C50.3025 51.2457 50.192 50.0066 50.5969 49.3563C50.6214 49.3073 50.6214 49.295 50.646 49.2705C50.695 49.2214 50.7564 49.16 50.83 49.0864C50.7196 49.1723 50.6337 49.2705 50.511 49.3563L49.0388 50.7672L47.0513 52.6443C46.8059 52.8897 46.536 53.135 46.2661 53.4049C46.2416 53.4049 46.2416 53.4049 46.217 53.4295C45.6527 53.9938 45.1006 54.5459 44.5608 55.1102C43.4198 56.2758 42.2543 57.4781 41.2238 58.5577C40.9784 58.8521 40.7085 59.122 40.4386 59.392C40.3527 59.4778 40.2423 59.5882 40.1442 59.7109C40.0828 59.7723 40.0337 59.8459 39.9847 59.9072C39.9356 59.9318 39.9233 59.9686 39.8988 59.9931C38.8682 61.4285 38.8682 63.7718 39.9233 66.9125C40.4877 68.6424 41.3833 70.6053 42.561 72.7769C44.1682 75.6845 46.3275 78.9724 49.0756 82.6285C52.6825 87.4377 56.952 92.3942 61.614 97.2279C68.3249 104.233 75.8086 110.993 83.1574 116.747C91.1442 123.016 99.0083 128.095 105.498 130.966H105.523C106.848 131.543 108.026 132.021 109.167 132.402C110.798 132.941 112.234 133.248 113.485 133.359C115.608 133.555 117.129 133.138 118.049 132.144L118.074 132.119C118.135 132.07 118.184 132.009 118.233 131.96C118.319 131.874 118.417 131.776 118.503 131.69L119.153 131.015L119.852 130.304C121.803 132.181 123.84 134.463 125.938 137.15C126.208 137.505 126.477 137.861 126.772 138.241C128.207 140.168 129.618 142.204 131.005 144.327C137.163 153.859 142.512 165.306 146.34 176.519C147.285 179.292 148.131 182.052 148.867 184.764C150.119 189.401 151.088 193.916 151.665 198.124C152.18 201.755 152.401 205.178 152.339 208.294C152.315 209.546 152.229 210.736 152.094 211.828C151.898 213.668 151.554 215.251 151.088 216.625C150.217 219.25 148.892 221.041 147.211 221.974C147.15 221.998 147.076 222.035 147.015 222.06C146.684 222.195 146.316 222.354 145.96 222.489C146.156 222.428 146.389 222.354 146.585 222.293L149.051 221.213H149.076C149.076 221.213 149.076 221.189 149.101 221.189C151.971 219.913 155.566 218.146 158.621 216.649C159.136 216.404 159.602 216.183 160.081 215.95C160.24 215.864 160.375 215.766 160.535 215.656C161.516 214.895 162.142 213.484 162.387 211.398C162.522 210.184 162.522 208.761 162.387 207.08C162.252 206.086 162.117 204.994 161.946 203.804Z" fill="url(#paint22_linear_3269_13201)"></path><path d="M138.57 180.457C136.129 167.735 131.332 154.853 124.83 144.633C123.811 143.039 122.756 141.505 121.664 140.045C121.615 140.057 121.554 140.07 121.505 140.082C121.456 140.094 121.407 140.106 121.358 140.119C121.456 140.094 121.566 140.057 121.664 140.033C121.112 139.297 120.56 138.61 120.008 137.935C118.806 136.475 117.604 135.162 116.401 133.972C116.193 134.205 115.996 134.438 115.812 134.659C115.8 134.684 115.776 134.696 115.763 134.721C115.726 134.757 115.702 134.794 115.665 134.831C115.653 134.843 115.641 134.868 115.616 134.88C115.591 134.905 115.567 134.941 115.542 134.966C115.518 134.99 115.506 135.015 115.481 135.04C115.469 135.052 115.469 135.064 115.457 135.064C115.101 135.493 114.72 135.972 114.352 136.438C115.052 137.174 115.751 137.959 116.45 138.781C117.002 139.432 117.542 140.119 118.082 140.83C118.18 140.818 118.291 140.793 118.389 140.781C118.352 140.793 118.315 140.793 118.278 140.806C118.217 140.818 118.143 140.83 118.082 140.843C119.272 142.425 120.401 144.106 121.456 145.86C127.566 155.97 131.479 168.692 132.816 181.378C133.111 184.224 133.283 187.058 133.319 189.867C133.381 194.738 133.037 199.523 132.264 204.05C131.59 207.988 130.596 211.742 129.259 215.202C128.694 216.649 128.093 217.999 127.443 219.275C126.363 221.397 125.173 223.274 123.885 224.894C120.757 228.844 117.064 231.323 113.101 232.316L112.708 232.378C111.985 232.5 111.285 232.623 110.586 232.733C111.003 232.697 111.408 232.648 111.813 232.574H111.825L111.874 232.562L114.966 231.997C115.039 231.985 115.125 231.961 115.211 231.948C115.248 231.936 115.285 231.936 115.322 231.924C115.395 231.911 115.457 231.899 115.53 231.887C115.91 231.813 116.291 231.727 116.683 231.642C117.763 231.433 118.818 231.212 119.861 230.979C121.149 230.685 122.437 230.378 123.591 230.071C123.836 229.998 124.094 229.936 124.339 229.863C124.793 229.728 125.235 229.605 125.664 229.482C125.762 229.458 125.86 229.433 125.958 229.409C126.437 229.274 126.915 229.139 127.406 229.004C127.553 228.955 127.7 228.906 127.848 228.844C127.872 228.832 127.897 228.82 127.921 228.82C130.731 227.728 133.209 225.52 135.221 222.219C136.166 220.661 137 218.87 137.712 216.821C138.129 215.631 138.497 214.368 138.828 213.018C138.693 213.055 138.558 213.092 138.435 213.128C138.57 213.092 138.705 213.055 138.828 213.018C139.638 209.705 140.116 206.111 140.312 202.32C140.533 197.928 140.362 193.29 139.834 188.542C139.515 185.892 139.098 183.181 138.57 180.457Z" fill="url(#paint23_linear_3269_13201)"></path><path d="M116.334 216.367C118.481 212.674 120.211 208.687 121.573 204.479C123.303 199.13 124.394 193.462 124.861 187.708C125.18 183.721 125.216 179.696 124.947 175.709C124.345 166.827 122.26 158.153 118.739 150.632C117.487 147.897 116.027 145.332 114.396 142.928C113.991 142.363 113.61 141.836 113.206 141.296C112.776 140.732 112.359 140.204 111.905 139.664C112.04 139.505 112.151 139.333 112.261 139.174L112.482 138.842C111.525 140.167 110.151 141.21 108.384 141.91C107.488 142.265 106.507 142.535 105.427 142.744C105.317 142.744 105.231 142.768 105.133 142.793C104.017 142.952 102.826 143.038 101.501 143.014C99.7962 143.014 97.9436 142.83 95.9316 142.498C76.0812 139.1 48.1581 120.648 33.5832 101.313C33.0679 100.614 32.5772 99.9514 32.111 99.2766C29.829 96.0132 28.0992 92.9461 26.9214 90.1366C24.5658 84.5421 24.345 79.9537 26.1607 76.7762C26.2221 76.6412 26.3202 76.5063 26.4061 76.3713L23.9156 79.8433L23.7807 80.0396C23.7561 80.0642 23.7316 80.0887 23.7193 80.1255C23.6948 80.1746 23.658 80.2114 23.6089 80.285C23.1795 80.9107 22.7624 81.5854 22.2839 82.2725C21.7073 83.1435 21.0693 84.0882 20.4682 85.0206C19.8179 86.0512 19.1922 87.1063 18.5666 88.1368C18.5175 88.1982 18.5052 88.2472 18.4561 88.2963L18.3703 88.4803C18.3457 88.5294 18.3212 88.5417 18.3089 88.5907C18.2844 88.6398 18.2476 88.7012 18.223 88.7502C18.1985 88.7748 18.1985 88.7993 18.174 88.7993C18.1249 88.8852 18.1126 88.9588 18.0635 89.0201C18.039 89.0201 18.039 89.0447 18.039 89.0447C17.9286 89.2655 17.8182 89.4741 17.7078 89.6949C15.1559 94.7986 16.0024 101.828 20.5909 109.827C21.6459 111.643 22.8483 113.471 24.2837 115.385C25.9644 117.618 27.8415 119.814 29.9026 121.949C45.5695 138.254 70.8916 150.804 90.239 151.148C93.0608 151.209 95.6126 150.988 97.8946 150.547C101.416 149.847 104.25 148.596 106.421 146.878C106.446 146.854 106.47 146.829 106.507 146.817C111.316 164.643 102.25 185.659 82.5099 198.467V198.492C80.0685 200.087 77.5411 201.473 74.9648 202.7C70.7812 204.675 66.475 206.172 62.1319 207.202C42.5146 211.791 22.4802 206.528 11.733 192.247C10.592 190.726 9.58603 189.131 8.71497 187.499C9.14436 188.37 9.54922 189.131 9.90501 189.83C10.8006 191.511 11.5367 192.836 12.3955 194.198C13.4874 195.94 14.7633 197.756 16.6772 200.516C16.7017 200.541 16.7017 200.565 16.7263 200.577C16.7754 200.627 16.7876 200.663 16.8612 200.737C17.2416 201.228 17.671 201.792 18.1126 202.332C18.3825 202.663 18.677 203.007 18.9591 203.313C30.6265 216.416 50.5014 219.729 69.2476 212.895C72.8055 211.595 76.3266 209.914 79.7495 207.902C81.786 206.675 83.7981 205.325 85.7488 203.829C85.6874 203.767 85.6383 203.669 85.5647 203.583C86.5707 203.718 87.4173 202.111 88.2024 201.473L90.0182 199.878C90.2145 199.694 90.423 199.522 90.6193 199.338C90.9506 199.044 91.245 198.737 91.564 198.418C91.6254 198.369 91.699 198.308 91.7603 198.234C92.0548 197.94 92.3369 197.67 92.6314 197.388L92.8767 197.142C93.073 196.921 93.3061 196.688 93.5024 196.492C93.6128 196.382 93.7233 196.247 93.8214 196.136C94.0054 195.952 94.1772 195.756 94.3612 195.572C94.4716 195.437 94.5821 195.327 94.6925 195.192C94.852 195.008 95.0237 194.836 95.1832 194.627C95.2936 194.517 95.404 194.382 95.5145 194.247C95.674 194.063 95.8335 193.867 95.9807 193.683C96.0911 193.548 96.2015 193.437 96.3119 193.302C96.361 193.253 96.3733 193.216 96.4223 193.143C96.5573 193.008 96.6677 192.848 96.7781 192.713C96.864 192.578 96.9744 192.468 97.0726 192.333C97.2566 192.137 97.4038 191.928 97.5633 191.707C97.6492 191.597 97.7473 191.486 97.8332 191.376C98.0295 191.106 98.2381 190.836 98.4344 190.566C98.4834 190.517 98.5202 190.456 98.5448 190.407C98.7411 190.112 98.9496 189.843 99.1459 189.56C99.195 189.511 99.2318 189.474 99.2564 189.425C99.3177 189.34 99.3913 189.229 99.4526 189.131C99.514 189.045 99.5631 188.947 99.6367 188.861C99.6612 188.837 99.6857 188.8 99.7225 188.751C99.7716 188.689 99.8084 188.616 99.833 188.554C99.882 188.505 99.8943 188.468 99.9189 188.444C100.005 188.309 100.103 188.174 100.164 188.064C100.275 187.904 100.385 187.745 100.483 187.597C100.508 187.548 100.532 187.512 100.569 187.462C100.569 187.462 100.569 187.438 100.594 187.438C100.618 187.377 100.655 187.303 100.704 187.242C100.753 187.18 100.79 187.107 100.839 187.045C100.974 186.849 101.084 186.64 101.219 186.444C101.244 186.395 101.281 186.334 101.305 186.285C101.305 186.285 101.33 186.26 101.33 186.236C101.379 186.174 101.416 186.076 101.465 186.015C101.6 185.818 101.71 185.61 101.82 185.414C101.906 185.279 101.98 185.144 102.066 185.009C102.09 184.96 102.127 184.923 102.152 184.849C102.176 184.825 102.201 184.788 102.201 184.763C102.25 184.702 102.287 184.628 102.336 184.543C102.36 184.493 102.397 184.432 102.422 184.358C102.507 184.224 102.581 184.089 102.642 183.954C102.692 183.892 102.704 183.843 102.753 183.77C102.777 183.721 102.802 183.659 102.814 183.61C102.876 183.524 102.925 183.426 102.974 183.34C102.998 183.316 102.998 183.291 103.023 183.279C103.072 183.144 103.133 183.034 103.207 182.923C103.231 182.874 103.256 182.813 103.293 182.764C103.354 182.629 103.428 182.494 103.489 182.359C103.538 182.273 103.575 182.162 103.648 182.064C103.648 182.015 103.673 182.003 103.698 181.954C103.698 181.929 103.722 181.905 103.747 181.893C103.771 181.843 103.796 181.807 103.808 181.758C103.869 181.598 103.943 181.439 104.004 181.304C104.066 181.144 104.164 180.985 104.225 180.837C104.225 180.837 104.25 180.813 104.25 180.788C104.274 180.739 104.299 180.727 104.299 180.678C104.36 180.543 104.434 180.408 104.495 180.273C104.52 180.212 104.544 180.138 104.581 180.089C104.605 179.979 104.642 179.868 104.716 179.77C104.716 179.746 104.74 179.709 104.74 179.684C104.765 179.635 104.765 179.623 104.789 179.598C104.814 179.537 104.839 179.488 104.851 179.439C104.9 179.378 104.912 179.304 104.937 179.243C105.023 179.059 105.096 178.911 105.157 178.727C105.182 178.666 105.219 178.568 105.243 178.506C105.292 178.421 105.305 178.347 105.329 178.286C105.354 178.261 105.378 178.237 105.378 178.224C105.378 178.2 105.378 178.175 105.403 178.163C105.427 178.114 105.452 178.053 105.464 178.003C105.513 177.918 105.526 177.819 105.55 177.734C105.575 177.709 105.575 177.684 105.575 177.672C105.624 177.611 105.66 177.513 105.685 177.427C105.71 177.341 105.746 177.267 105.771 177.181C105.82 177.046 105.881 176.912 105.93 176.752C105.979 176.691 105.992 176.593 106.016 176.507C106.041 176.445 106.078 176.396 106.102 176.323C106.127 176.261 106.127 176.212 106.151 176.139C106.213 175.979 106.262 175.82 106.335 175.672C106.384 175.537 106.421 175.403 106.47 175.243C106.495 175.218 106.495 175.218 106.495 175.194C106.581 174.924 106.691 174.63 106.765 174.36C106.814 174.225 106.826 174.09 106.875 173.955C106.9 173.906 106.924 173.893 106.924 173.869C106.985 173.624 107.059 173.403 107.12 173.17C107.145 173.108 107.17 173.035 107.182 172.973C107.206 172.912 107.206 172.863 107.231 172.789C107.317 172.495 107.427 172.188 107.501 171.894C107.55 171.734 107.587 171.599 107.611 171.464C107.722 171.084 107.807 170.728 107.881 170.372C107.942 170.176 107.992 169.968 108.016 169.771C108.126 169.415 108.2 169.06 108.237 168.692C108.261 168.532 108.298 168.373 108.323 168.225C108.323 168.201 108.323 168.176 108.347 168.14C108.372 167.956 108.409 167.784 108.433 167.6C108.519 167.244 108.568 166.864 108.617 166.508C108.642 166.447 108.642 166.373 108.642 166.312C108.691 166.091 108.703 165.882 108.728 165.661C108.728 165.612 108.728 165.551 108.752 165.502C108.752 165.441 108.777 165.367 108.777 165.306C108.801 165.146 108.826 164.974 108.838 164.79L108.899 164.054C108.924 163.993 108.924 163.944 108.924 163.87V163.846C108.948 163.784 108.948 163.735 108.948 163.662C108.948 163.613 108.948 163.576 108.973 163.551V163.33C108.998 163.244 108.998 163.171 108.998 163.085C109.022 162.975 109.022 162.889 109.022 162.766C109.022 162.705 109.047 162.631 109.047 162.545V162.349C109.071 162.238 109.071 162.128 109.071 162.03V161.919C109.096 161.858 109.096 161.76 109.096 161.699V161.404V161.343C109.12 161.257 109.12 161.159 109.12 161.073V160.778C109.12 160.754 109.12 160.754 109.12 160.754V160.619C109.12 160.509 109.145 160.374 109.145 160.239V159.147C109.145 159.061 109.145 158.987 109.12 158.901V158.202C109.096 158.153 109.096 158.092 109.096 158.043V157.859C109.096 157.748 109.071 157.613 109.071 157.478V157.368C109.071 157.319 109.071 157.319 109.047 157.307C109.047 157.282 109.047 157.282 109.047 157.282C109.071 157.257 109.047 157.233 109.047 157.196V156.975C109.047 156.926 109.047 156.889 109.022 156.84C109.022 156.84 109.022 156.84 109.022 156.816C109.022 156.73 109.022 156.632 108.998 156.521C108.998 156.411 108.998 156.325 108.973 156.202C108.973 156.116 108.973 156.018 108.948 155.908V155.822C108.948 155.773 108.924 155.736 108.924 155.687V155.552C108.899 155.528 108.899 155.491 108.899 155.417C108.899 155.368 108.899 155.331 108.875 155.282C108.875 155.258 108.875 155.258 108.875 155.233C108.85 155.123 108.85 154.988 108.826 154.877V154.767C108.801 154.632 108.777 154.497 108.764 154.362V154.203C108.74 154.141 108.74 154.068 108.715 154.006C108.715 153.945 108.715 153.896 108.691 153.822C108.691 153.773 108.691 153.736 108.666 153.687C108.666 153.577 108.642 153.442 108.617 153.332C108.617 153.307 108.617 153.27 108.593 153.246C108.568 153.086 108.544 152.951 108.531 152.792C108.531 152.767 108.531 152.767 108.531 152.767C108.531 152.718 108.507 152.706 108.507 152.657C108.507 152.632 108.507 152.632 108.507 152.608C108.482 152.522 108.458 152.411 108.445 152.289C108.421 152.105 108.384 151.933 108.335 151.749C108.335 151.688 108.31 151.614 108.31 151.553C108.286 151.504 108.286 151.442 108.261 151.393C108.261 151.332 108.237 151.258 108.237 151.197C108.188 151.037 108.176 150.902 108.126 150.755C108.102 150.669 108.102 150.596 108.077 150.51C108.053 150.448 108.028 150.375 108.016 150.289C107.992 150.203 107.967 150.105 107.955 150.019C107.955 149.958 107.93 149.909 107.906 149.835C107.906 149.786 107.881 149.725 107.881 149.676C107.832 149.541 107.82 149.406 107.771 149.271C107.722 149.111 107.685 148.952 107.636 148.804C107.636 148.78 107.636 148.755 107.611 148.743C107.611 148.682 107.587 148.584 107.562 148.522C107.538 148.498 107.538 148.461 107.538 148.461C107.538 148.436 107.538 148.412 107.513 148.4L107.489 148.375C107.489 148.351 107.488 148.314 107.464 148.289C107.403 148.044 107.329 147.823 107.243 147.578L107.427 147.197L108.163 145.75C114.629 159.576 113.267 177.316 105.121 192.75C101.845 198.958 97.4652 204.798 92.067 209.865C90.4599 211.288 88.8527 212.625 87.221 213.852C84.3747 215.999 81.4916 217.839 78.5717 219.36C64.2544 226.881 49.4218 226.918 36.27 219.103C36.1841 219.054 36.0982 218.992 36.0123 218.943C36.135 219.029 36.2454 219.103 36.3681 219.189C36.7607 219.459 37.1288 219.716 37.4968 219.962C37.6563 220.072 37.8281 220.182 37.9998 220.293C38.0857 220.342 38.1593 220.403 38.2452 220.452C38.3924 220.551 38.5519 220.636 38.6991 220.735C39.3371 221.139 39.9628 221.52 40.5517 221.863C40.6376 221.912 40.7234 221.961 40.8093 222.01C41.4963 222.391 42.2693 222.845 43.079 223.286C43.1035 223.299 43.128 223.311 43.1526 223.335C43.7415 223.654 44.3181 223.961 44.8947 224.256C45.9989 224.832 47.0294 225.335 48.3299 225.924C49.0415 226.243 49.8266 226.587 50.7468 226.991C50.8081 227.016 50.8695 227.041 50.9308 227.077C50.894 227.065 50.8572 227.041 50.8327 227.028C50.1334 226.734 49.4341 226.403 48.7593 226.059C50.3665 226.746 52.1086 227.458 53.8139 228.132C63.8004 231.273 75.2592 229.592 85.761 223.225C88.5337 221.544 91.245 219.532 93.8337 217.201C95.2446 215.925 96.6309 214.551 97.9804 213.091C102.25 208.429 105.746 203.191 108.445 197.633C113.034 188.211 115.328 177.893 115.169 168.066C115.132 165.71 114.948 163.379 114.629 161.097C113.77 155.025 111.905 149.283 108.985 144.216C108.985 144.216 108.985 144.216 108.985 144.204C109.169 143.885 109.341 143.603 109.501 143.308C109.55 143.284 109.55 143.247 109.562 143.222C109.648 143.087 109.746 142.952 109.807 142.817L110.482 141.762C111.574 143.259 112.592 144.879 113.488 146.535C116.089 151.258 117.941 156.546 119.058 162.116C119.242 163.073 119.413 164.042 119.573 165.023C120.554 171.354 120.628 178.003 119.794 184.592C118.984 190.91 117.377 197.179 114.96 203.068C113.107 207.595 110.752 211.889 107.93 215.803C106.838 217.324 105.685 218.759 104.532 220.084C102.52 222.366 100.41 224.366 98.2135 226.059C90.7788 231.862 82.4731 234.389 74.5476 233.494C76.0689 233.69 77.6393 233.874 79.087 234.034H79.1483C79.3078 234.058 79.4428 234.083 79.5777 234.083C79.909 234.132 80.2525 234.144 80.5592 234.193C80.7432 234.193 80.915 234.218 81.099 234.218C81.3198 234.23 81.5407 234.242 81.786 234.254C81.5529 234.242 81.3198 234.23 81.099 234.218C81.8842 234.279 82.6939 234.34 83.5404 234.389C84.5342 234.451 85.5034 234.5 86.3745 234.524C86.4235 234.524 86.4726 234.524 86.5094 234.524C86.6566 234.524 86.8038 234.537 86.9511 234.537C87.0615 234.537 87.1842 234.537 87.2946 234.549C87.4295 234.549 87.5522 234.561 87.6872 234.561C87.9694 234.561 88.2393 234.573 88.5092 234.573C88.7055 234.573 88.9018 234.573 89.0981 234.573C89.1839 234.573 89.2698 234.573 89.3434 234.573C89.368 234.573 89.3802 234.573 89.4048 234.573H89.9814C90.4967 234.573 91.0119 234.549 91.5027 234.512C97.3915 234.07 103.195 231.396 108.335 226.587C110.102 224.93 111.807 223.004 113.414 220.808C114.482 219.36 115.414 217.913 116.334 216.367Z" fill="url(#paint24_linear_3269_13201)"></path><path d="M8.65284 187.364C8.6651 187.401 8.68964 187.438 8.71418 187.475C8.6651 187.377 8.61603 187.266 8.55469 187.168C8.57922 187.229 8.61603 187.291 8.65284 187.364Z" fill="url(#paint25_linear_3269_13201)"></path><path d="M239.429 36.1921C239.994 37.0019 240.521 37.8238 241.012 38.6704C240.534 37.922 240.018 37.1 239.429 36.1921Z" fill="url(#paint26_linear_3269_13201)"></path><path d="M243.79 124.746C239.459 129.089 233.288 132.475 225.473 134.425C215.597 136.879 204.58 136.646 193.992 134.266C185.834 132.426 177.908 129.309 170.952 125.138C164.303 121.151 158.512 116.207 154.23 110.514C153.788 109.925 153.371 109.349 152.979 108.76C152.525 108.919 151.985 109.116 151.359 109.336C151.053 109.459 150.734 109.582 150.402 109.717C151.2 111.029 152.095 112.354 153.089 113.692C153.114 113.63 153.138 113.569 153.163 113.52C153.138 113.581 153.114 113.643 153.089 113.692C155.224 116.526 157.714 119.225 160.487 121.764C164.916 125.825 170.056 129.457 175.602 132.524C190.25 140.646 207.733 144.89 222.418 142.878C222.59 142.474 222.762 142.069 222.934 141.676C222.774 142.081 222.602 142.474 222.431 142.878C227.105 142.24 231.141 141.014 234.503 139.321C238.613 137.235 241.717 134.45 243.729 131.137C243.778 131.052 243.839 130.966 243.888 130.868C244.097 130.512 244.281 130.156 244.465 129.788C244.514 129.69 244.563 129.592 244.612 129.493C244.71 129.285 244.808 129.064 244.906 128.856C244.919 128.831 244.919 128.819 244.931 128.794C245.287 127.899 245.655 126.942 246.035 125.948C246.096 125.776 246.17 125.604 246.231 125.42C247.397 122.329 248.612 118.93 249.618 115.925C249.63 115.888 249.642 115.839 249.654 115.802C249.642 115.814 249.642 115.839 249.63 115.851C248.403 119.09 246.44 122.096 243.79 124.746Z" fill="url(#paint27_linear_3269_13201)"></path><path d="M51.135 196.774C56.9748 196.688 62.9128 195.83 68.6667 194.161C72.5435 193.045 76.3222 191.56 79.9782 189.708C97.8657 180.617 107.496 164.95 106.527 149.725C106.478 149.234 106.466 148.743 106.392 148.265C106.417 148.62 106.417 148.964 106.441 149.565C106.441 149.565 106.441 149.59 106.441 149.614C104.454 153.577 101.092 156.963 96.4303 159.466C93.0074 161.306 88.8606 162.668 84.0882 163.429H84.0636C70.004 165.686 53.4783 162.288 39.2469 155.184C32.5115 151.847 26.3036 147.664 21.1386 142.842C18.5867 140.486 16.2803 137.959 14.2928 135.321C7.50831 126.304 5.53309 117.409 7.80275 110.085C7.85183 109.975 7.8641 109.84 7.91317 109.729C7.91317 109.705 7.93771 109.68 7.93771 109.668C7.93771 109.644 7.96224 109.619 7.96224 109.607C8.12173 109.177 8.28122 108.772 8.45298 108.38C8.31803 108.674 8.20761 108.981 8.07266 109.275C7.82729 109.901 7.58192 110.527 7.33655 111.128C7.31202 111.177 7.31202 111.214 7.28748 111.263C7.26294 111.312 7.2384 111.349 7.2384 111.398C7.04211 111.962 6.83354 112.514 6.61271 113.103C6.42868 113.569 6.28146 114.06 6.09743 114.575C5.96248 115.005 5.80299 115.41 5.66804 115.79C4.96873 117.802 4.19582 120.452 3.60693 122.624C3.55786 122.844 3.49652 123.065 3.44744 123.274C3.42291 123.323 3.42291 123.384 3.39837 123.433C3.39837 123.458 3.39837 123.458 3.39837 123.458C3.39837 123.482 3.39837 123.482 3.39837 123.482C3.39837 123.482 3.39837 123.482 3.39837 123.507C3.37383 123.507 3.37383 123.531 3.37383 123.556C0.147222 139.542 11.2502 154.828 28.3157 164.214C35.321 168.066 43.3445 170.925 51.7853 172.434C61.3669 174.139 71.4884 174.114 81.291 171.832H81.3155C91.9523 168.925 98.0374 164.042 101.583 159.539C104.626 155.638 105.816 152.043 106.417 150.142C106.282 154.166 105.202 159.773 101.362 165.612C97.5099 171.477 90.8849 177.586 79.647 182.678H79.6224C74.3225 184.69 68.9243 186.015 63.5753 186.702C56.1896 187.683 48.9144 187.487 42.0318 186.297C19.3965 182.359 1.39861 167.465 0.147222 147.296C0.122685 146.94 0.122685 146.559 0.0981478 146.179V146.608C0.0981478 146.719 0.0736109 146.829 0.0736109 146.94V147.136C0.0490739 147.43 0.0490739 147.713 0.0490739 148.007L0 148.792C0 148.927 0.024537 149.038 0.024537 149.148C0 149.602 0 150.044 0 150.498C0.024537 151.209 0.0490739 151.958 0.0858794 152.694C0.110416 152.89 0.110416 153.123 0.110416 153.319C0.134953 153.589 0.134953 153.835 0.15949 154.08C0.15949 154.105 0.15949 154.105 0.15949 154.129V154.399C0.15949 154.558 0.15949 154.718 0.184027 154.865V155.025C0.208564 155.295 0.208564 155.54 0.233101 155.81C0.257638 156.08 0.282175 156.374 0.294444 156.681C0.294444 156.681 0.294444 156.705 0.294444 156.73C0.318981 156.914 0.343517 157.086 0.343517 157.245C0.368054 157.442 0.392591 157.65 0.40486 157.846C0.429397 158.043 0.453934 158.276 0.466202 158.472C0.490739 158.693 0.515276 158.926 0.527545 159.147C0.527545 159.171 0.552082 159.208 0.552082 159.257C0.576619 159.527 0.613424 159.797 0.637961 160.067C0.662498 160.263 0.687035 160.496 0.72384 160.693V160.779C0.72384 160.803 0.72384 160.803 0.72384 160.803C0.748377 160.987 0.772914 161.134 0.785183 161.318C0.785183 161.404 0.80972 161.478 0.80972 161.564V161.625L0.895599 162.189C0.895599 162.214 0.895599 162.214 0.895599 162.239C0.895599 162.288 0.920136 162.3 0.920136 162.324C1.72986 167.784 3.92591 173.121 7.59419 178.016C16.9673 190.444 33.677 197.044 51.135 196.774Z" fill="url(#paint28_linear_3269_13201)"></path><path d="M169.903 0.110416C170.063 0.134953 170.222 0.15949 170.369 0.171759C174.283 0.662498 178.135 2.14698 181.791 4.58841C184.944 6.71086 187.95 9.55715 190.661 13.1641C190.993 13.6057 191.336 14.1088 191.667 14.575C193.41 17.0655 194.931 19.7645 196.231 22.6353C199.752 30.3645 201.74 39.2714 202.12 48.3869C202.28 52.0306 202.182 55.7112 201.826 59.3549C201.286 65.0229 200.12 70.5928 198.354 75.8805C196.882 80.2481 194.968 84.4072 192.649 88.2226C191.729 89.7685 190.747 91.2039 189.717 92.5411C188.171 94.5777 186.515 96.418 184.797 98.0252C178.687 103.693 171.694 106.49 164.763 106.331C164.665 106.319 164.579 106.306 164.481 106.282L164.763 106.331H164.395C164.53 106.331 164.714 106.331 164.824 106.355C173.486 107.877 182.797 105.411 191.066 99.0557C193.213 97.424 195.274 95.5224 197.25 93.3631C198.464 92.0136 199.617 90.615 200.783 89.0814H200.807V89.0569C203.875 84.9102 206.426 80.3708 208.438 75.5738C211.015 69.4151 212.696 62.876 213.456 56.3001C214.929 43.8353 213.125 31.2233 207.923 21.065C206.733 18.7585 205.396 16.5624 203.875 14.5504C201.789 11.7777 199.507 9.47127 197.066 7.56965C193.213 4.58841 189.005 2.6868 184.601 1.7912C184.539 1.76666 184.441 1.74212 184.355 1.72986L183.055 1.53356C182 1.34953 180.945 1.15324 179.902 0.993747C179.387 0.932404 178.871 0.858794 178.405 0.797451C178.16 0.772914 177.89 0.748377 177.62 0.736109C176.185 0.552082 174.749 0.417128 173.302 0.294444C173.056 0.269907 172.786 0.269907 172.541 0.24537C172.136 0.196296 171.731 0.184027 171.314 0.15949C171.228 0.15949 171.118 0.134953 171.02 0.134953H170.774C170.418 0.110416 170.038 0.0858794 169.658 0.0736109C169.339 0.0490739 169.008 0.0490739 168.652 0.024537C168.112 0.024537 167.535 0 166.971 0C167.462 0.024537 167.977 0.0490739 168.517 0.0613424C168.946 0.0613424 169.437 0.0858794 169.903 0.110416Z" fill="url(#paint29_linear_3269_13201)"></path></g><defs><linearGradient id="paint0_linear_3269_13201" x1="99.2539" y1="85.8201" x2="240.599" y2="85.8201" gradientUnits="userSpaceOnUse"><stop stop-color="#C06EF3"></stop><stop offset="1" stop-color="#7562E0"></stop></linearGradient><linearGradient id="paint1_linear_3269_13201" x1="68.8203" y1="36.0562" x2="68.8444" y2="36.0562" gradientUnits="userSpaceOnUse"><stop stop-color="#C06EF3"></stop><stop offset="1" stop-color="#7562E0"></stop></linearGradient><linearGradient id="paint2_linear_3269_13201" x1="68.8203" y1="116.555" x2="218.177" y2="116.555" gradientUnits="userSpaceOnUse"><stop stop-color="#C06EF3"></stop><stop offset="1" stop-color="#7562E0"></stop></linearGradient><linearGradient id="paint3_linear_3269_13201" x1="218.227" y1="172.618" x2="218.693" y2="172.618" gradientUnits="userSpaceOnUse"><stop stop-color="#C06EF3"></stop><stop offset="1" stop-color="#7562E0"></stop></linearGradient><linearGradient id="paint4_linear_3269_13201" x1="9.01953" y1="185.475" x2="10.3077" y2="185.475" gradientUnits="userSpaceOnUse"><stop stop-color="#C06EF3"></stop><stop offset="1" stop-color="#7562E0"></stop></linearGradient><linearGradient id="paint5_linear_3269_13201" x1="108.285" y1="147.749" x2="108.371" y2="147.749" gradientUnits="userSpaceOnUse"><stop stop-color="#C06EF3"></stop><stop offset="1" stop-color="#7562E0"></stop></linearGradient><linearGradient id="paint6_linear_3269_13201" x1="133.461" y1="64.7271" x2="256.454" y2="64.7271" gradientUnits="userSpaceOnUse"><stop stop-color="#C06EF3"></stop><stop offset="1" stop-color="#7562E0"></stop></linearGradient><linearGradient id="paint7_linear_3269_13201" x1="41.125" y1="136.033" x2="164.485" y2="136.033" gradientUnits="userSpaceOnUse"><stop stop-color="#C06EF3"></stop><stop offset="1" stop-color="#7562E0"></stop></linearGradient><linearGradient id="paint8_linear_3269_13201" x1="112.605" y1="183.598" x2="142.426" y2="183.598" gradientUnits="userSpaceOnUse"><stop stop-color="#C06EF3"></stop><stop offset="1" stop-color="#7562E0"></stop></linearGradient><linearGradient id="paint9_linear_3269_13201" x1="10.7305" y1="155.718" x2="127.142" y2="155.718" gradientUnits="userSpaceOnUse"><stop stop-color="#C06EF3"></stop><stop offset="1" stop-color="#7562E0"></stop></linearGradient><linearGradient id="paint10_linear_3269_13201" x1="10.5625" y1="187.567" x2="10.722" y2="187.567" gradientUnits="userSpaceOnUse"><stop stop-color="#C06EF3"></stop><stop offset="1" stop-color="#7562E0"></stop></linearGradient><linearGradient id="paint11_linear_3269_13201" x1="241.437" y1="37.6764" x2="243.02" y2="37.6764" gradientUnits="userSpaceOnUse"><stop stop-color="#C06EF3"></stop><stop offset="1" stop-color="#7562E0"></stop></linearGradient><linearGradient id="paint12_linear_3269_13201" x1="152.422" y1="126.312" x2="251.674" y2="126.312" gradientUnits="userSpaceOnUse"><stop stop-color="#C06EF3"></stop><stop offset="1" stop-color="#7562E0"></stop></linearGradient><linearGradient id="paint13_linear_3269_13201" x1="2.00781" y1="152.826" x2="108.614" y2="152.826" gradientUnits="userSpaceOnUse"><stop stop-color="#C06EF3"></stop><stop offset="1" stop-color="#7562E0"></stop></linearGradient><linearGradient id="paint14_linear_3269_13201" x1="166.43" y1="53.6408" x2="215.986" y2="53.6408" gradientUnits="userSpaceOnUse"><stop stop-color="#C06EF3"></stop><stop offset="1" stop-color="#7562E0"></stop></linearGradient><linearGradient id="paint15_linear_3269_13201" x1="97.2109" y1="85.5742" x2="238.556" y2="85.5742" gradientUnits="userSpaceOnUse"><stop stop-color="#C06EF3"></stop><stop offset="1" stop-color="#7562E0"></stop></linearGradient><linearGradient id="paint16_linear_3269_13201" x1="66.8125" y1="35.8111" x2="66.8366" y2="35.8111" gradientUnits="userSpaceOnUse"><stop stop-color="#C06EF3"></stop><stop offset="1" stop-color="#7562E0"></stop></linearGradient><linearGradient id="paint17_linear_3269_13201" x1="66.8125" y1="116.31" x2="216.169" y2="116.31" gradientUnits="userSpaceOnUse"><stop stop-color="#C06EF3"></stop><stop offset="1" stop-color="#7562E0"></stop></linearGradient><linearGradient id="paint18_linear_3269_13201" x1="216.203" y1="172.372" x2="216.669" y2="172.372" gradientUnits="userSpaceOnUse"><stop stop-color="#C06EF3"></stop><stop offset="1" stop-color="#7562E0"></stop></linearGradient><linearGradient id="paint19_linear_3269_13201" x1="7.01172" y1="185.23" x2="8.29991" y2="185.23" gradientUnits="userSpaceOnUse"><stop stop-color="#C06EF3"></stop><stop offset="1" stop-color="#7562E0"></stop></linearGradient><linearGradient id="paint20_linear_3269_13201" x1="106.273" y1="147.504" x2="106.359" y2="147.504" gradientUnits="userSpaceOnUse"><stop stop-color="#C06EF3"></stop><stop offset="1" stop-color="#7562E0"></stop></linearGradient><linearGradient id="paint21_linear_3269_13201" x1="131.453" y1="64.4818" x2="254.441" y2="64.4818" gradientUnits="userSpaceOnUse"><stop stop-color="#C06EF3"></stop><stop offset="1" stop-color="#7562E0"></stop></linearGradient><linearGradient id="paint22_linear_3269_13201" x1="39.1289" y1="135.788" x2="162.489" y2="135.788" gradientUnits="userSpaceOnUse"><stop stop-color="#C06EF3"></stop><stop offset="1" stop-color="#7562E0"></stop></linearGradient><linearGradient id="paint23_linear_3269_13201" x1="110.586" y1="183.353" x2="140.406" y2="183.353" gradientUnits="userSpaceOnUse"><stop stop-color="#C06EF3"></stop><stop offset="1" stop-color="#7562E0"></stop></linearGradient><linearGradient id="paint24_linear_3269_13201" x1="8.71497" y1="155.472" x2="125.127" y2="155.472" gradientUnits="userSpaceOnUse"><stop stop-color="#C06EF3"></stop><stop offset="1" stop-color="#7562E0"></stop></linearGradient><linearGradient id="paint25_linear_3269_13201" x1="8.55469" y1="187.321" x2="8.71418" y2="187.321" gradientUnits="userSpaceOnUse"><stop stop-color="#C06EF3"></stop><stop offset="1" stop-color="#7562E0"></stop></linearGradient><linearGradient id="paint26_linear_3269_13201" x1="239.429" y1="37.4313" x2="241.012" y2="37.4313" gradientUnits="userSpaceOnUse"><stop stop-color="#C06EF3"></stop><stop offset="1" stop-color="#7562E0"></stop></linearGradient><linearGradient id="paint27_linear_3269_13201" x1="150.402" y1="126.067" x2="249.654" y2="126.067" gradientUnits="userSpaceOnUse"><stop stop-color="#C06EF3"></stop><stop offset="1" stop-color="#7562E0"></stop></linearGradient><linearGradient id="paint28_linear_3269_13201" x1="1.24092e-07" y1="152.581" x2="106.594" y2="152.581" gradientUnits="userSpaceOnUse"><stop stop-color="#C06EF3"></stop><stop offset="1" stop-color="#7562E0"></stop></linearGradient><linearGradient id="paint29_linear_3269_13201" x1="164.395" y1="53.3957" x2="213.951" y2="53.3957" gradientUnits="userSpaceOnUse"><stop stop-color="#C06EF3"></stop><stop offset="1" stop-color="#7562E0"></stop></linearGradient></defs></svg>