<svg width="114" height="114" viewBox="0 0 114 114" fill="none" xmlns="http://www.w3.org/2000/svg">
<g opacity="0.3">
<circle cx="3" cy="3" r="3" fill="#6DCBFF"/>
<circle cx="21" cy="3" r="3" fill="#6DCBFF"/>
<circle cx="39" cy="3" r="3" fill="#6DCBFF"/>
<circle cx="57" cy="3" r="3" fill="#6DCBFF"/>
<circle cx="75" cy="3" r="3" fill="#6DCBFF"/>
<circle cx="93" cy="3" r="3" fill="#6DCBFF"/>
<circle cx="111" cy="3" r="3" fill="#6DCBFF"/>
<circle cx="3" cy="21" r="3" fill="#6DCBFF"/>
<circle cx="21" cy="21" r="3" fill="#6DCBFF"/>
<circle cx="39" cy="21" r="3" fill="#6DCBFF"/>
<circle cx="57" cy="21" r="3" fill="#6DCBFF"/>
<circle cx="75" cy="21" r="3" fill="#6DCBFF"/>
<circle cx="93" cy="21" r="3" fill="#6DCBFF"/>
<circle cx="111" cy="21" r="3" fill="#6DCBFF"/>
<circle cx="3" cy="39" r="3" fill="#6DCBFF"/>
<circle cx="21" cy="39" r="3" fill="#6DCBFF"/>
<circle cx="39" cy="39" r="3" fill="#6DCBFF"/>
<circle cx="57" cy="39" r="3" fill="#6DCBFF"/>
<circle cx="75" cy="39" r="3" fill="#6DCBFF"/>
<circle cx="93" cy="39" r="3" fill="#6DCBFF"/>
<circle cx="111" cy="39" r="3" fill="#6DCBFF"/>
<circle cx="3" cy="57" r="3" fill="#6DCBFF"/>
<circle cx="21" cy="57" r="3" fill="#6DCBFF"/>
<circle cx="39" cy="57" r="3" fill="#6DCBFF"/>
<circle cx="57" cy="57" r="3" fill="#6DCBFF"/>
<circle cx="75" cy="57" r="3" fill="#6DCBFF"/>
<circle cx="93" cy="57" r="3" fill="#6DCBFF"/>
<circle cx="111" cy="57" r="3" fill="#6DCBFF"/>
<circle cx="3" cy="75" r="3" fill="#6DCBFF"/>
<circle cx="21" cy="75" r="3" fill="#6DCBFF"/>
<circle cx="39" cy="75" r="3" fill="#6DCBFF"/>
<circle cx="57" cy="75" r="3" fill="#6DCBFF"/>
<circle cx="75" cy="75" r="3" fill="#6DCBFF"/>
<circle cx="93" cy="75" r="3" fill="#6DCBFF"/>
<circle cx="111" cy="75" r="3" fill="#6DCBFF"/>
<circle cx="3" cy="93" r="3" fill="#6DCBFF"/>
<circle cx="21" cy="93" r="3" fill="#6DCBFF"/>
<circle cx="39" cy="93" r="3" fill="#6DCBFF"/>
<circle cx="57" cy="93" r="3" fill="#6DCBFF"/>
<circle cx="75" cy="93" r="3" fill="#6DCBFF"/>
<circle cx="93" cy="93" r="3" fill="#6DCBFF"/>
<circle cx="111" cy="93" r="3" fill="#6DCBFF"/>
<circle cx="3" cy="111" r="3" fill="#6DCBFF"/>
<circle cx="21" cy="111" r="3" fill="#6DCBFF"/>
<circle cx="39" cy="111" r="3" fill="#6DCBFF"/>
<circle cx="57" cy="111" r="3" fill="#6DCBFF"/>
<circle cx="75" cy="111" r="3" fill="#6DCBFF"/>
<circle cx="93" cy="111" r="3" fill="#6DCBFF"/>
<circle cx="111" cy="111" r="3" fill="#6DCBFF"/>
</g>
</svg>
