<svg width="176" height="35" viewBox="0 0 176 35" fill="none" xmlns="http://www.w3.org/2000/svg">
<path d="M0.728655 19.3058C2.19019 15.4551 7.67097 12.4868 10.2287 11.484C21.921 6.67064 40.7383 4.26372 48.594 5.46718C56.4498 6.67064 47.8633 9.07716 40.3729 11.4839C32.8825 13.8906 38.3633 15.094 45.1229 13.8906C51.8825 12.6872 65.9498 11.4839 78.0075 10.8822C90.0652 10.2805 77.8248 9.07716 65.9498 9.07716C54.0748 9.07716 54.2575 6.67054 58.4594 5.46718C62.6614 4.26381 72.1614 -0.54963 83.3056 0.0520504C94.4498 0.653731 120.758 1.85709 132.084 6.06886C143.411 10.2806 166.796 21.7126 172.46 25.3226C178.123 28.9327 177.392 39.1613 167.344 33.1445C157.296 27.1277 136.469 16.2974 90.796 14.4924C45.1229 12.6873 10.4113 22.9159 6.75748 27.1277C3.10363 31.3394 0.545936 31.3394 2.00748 27.7294C3.46902 24.1193 3.83443 23.5176 2.37289 24.721C0.911348 25.9243 -1.09827 24.1193 0.728655 19.3058Z" fill="#FF733B"/>
</svg>
